<?xml version="1.0" encoding="utf-8"?>
<!-- Generator: Adobe Illustrator 16.0.0, SVG Export Plug-In . SVG Version: 6.00 Build 0)  -->
<!DOCTYPE svg PUBLIC "-//W3C//DTD SVG 1.1//EN" "http://www.w3.org/Graphics/SVG/1.1/DTD/svg11.dtd">
<svg version="1.1" xmlns="http://www.w3.org/2000/svg" xmlns:xlink="http://www.w3.org/1999/xlink" x="0px" y="0px" width="540px"
	 height="360px" viewBox="0 0 540 360" style="enable-background:new 0 0 540 360;" xml:space="preserve">
<g id="Background_Complete">
	<g>
		<g>
			<g>
				<rect x="411.89" y="87.04" style="fill:#F5F5F5;" width="103.42" height="69.26"/>
			</g>
		</g>
		<g>
			<g>
				<rect x="411.89" y="87.04" style="fill:#EBEBEB;" width="103.42" height="6.92"/>
			</g>
		</g>
		<g>
			<g>
				<ellipse style="fill:#FFFFFF;" cx="415.53" cy="90.5" rx="0.84" ry="0.78"/>
			</g>
		</g>
		<g>
			<g>
				<ellipse style="fill:#FFFFFF;" cx="418.23" cy="90.5" rx="0.84" ry="0.78"/>
			</g>
		</g>
		<g>
			<g>
				<ellipse style="fill:#FFFFFF;" cx="420.93" cy="90.5" rx="0.84" ry="0.78"/>
			</g>
		</g>
	</g>
	<g>
		<g>
			<g>
				<rect x="197.07" y="30.14" style="fill:#E0E0E0;" width="194.12" height="130.01"/>
			</g>
		</g>
		<g>
			<g>
				<rect x="197.07" y="30.14" style="fill:#E0E0E0;" width="194.12" height="12.99"/>
			</g>
		</g>
		<g>
			<g>
				<ellipse style="fill:#FFFFFF;" cx="203.91" cy="36.63" rx="1.57" ry="1.46"/>
			</g>
		</g>
		<g>
			<g>
				<ellipse style="fill:#FFFFFF;" cx="208.98" cy="36.63" rx="1.57" ry="1.46"/>
			</g>
		</g>
		<g>
			<g>
				<ellipse style="fill:#FFFFFF;" cx="214.04" cy="36.63" rx="1.57" ry="1.46"/>
			</g>
		</g>
	</g>
	<g>
		<g>
			<g>
				<rect x="360.54" y="145.27" style="fill:#E0E0E0;" width="145.81" height="97.66"/>
			</g>
		</g>
		<g>
			<g>
				<rect x="360.54" y="145.27" style="fill:#E0E0E0;" width="145.81" height="9.76"/>
			</g>
		</g>
		<g>
			<g>
				<ellipse style="fill:#FFFFFF;" cx="365.67" cy="150.15" rx="1.18" ry="1.1"/>
			</g>
		</g>
		<g>
			<g>
				<ellipse style="fill:#FFFFFF;" cx="369.48" cy="150.15" rx="1.18" ry="1.1"/>
			</g>
		</g>
		<g>
			<g>
				<ellipse style="fill:#FFFFFF;" cx="373.28" cy="150.15" rx="1.18" ry="1.1"/>
			</g>
		</g>
	</g>
	<g>
		<g>
			<g>
				<rect x="175.8" y="218.61" style="fill:#F5F5F5;" width="103.42" height="69.26"/>
			</g>
		</g>
		<g>
			<g>
				<rect x="175.8" y="218.61" style="fill:#EBEBEB;" width="103.42" height="6.92"/>
			</g>
		</g>
		<g>
			<g>
				<ellipse style="fill:#FFFFFF;" cx="179.45" cy="222.07" rx="0.84" ry="0.78"/>
			</g>
		</g>
		<g>
			<g>
				<ellipse style="fill:#FFFFFF;" cx="182.14" cy="222.07" rx="0.84" ry="0.78"/>
			</g>
		</g>
		<g>
			<g>
				<ellipse style="fill:#FFFFFF;" cx="184.84" cy="222.07" rx="0.84" ry="0.78"/>
			</g>
		</g>
	</g>
	<g>
		<g>
			<g>
				<rect x="24.03" y="52.26" style="fill:#F5F5F5;" width="103.42" height="69.26"/>
			</g>
		</g>
		<g>
			<g>
				<rect x="24.03" y="52.26" style="fill:#EBEBEB;" width="103.42" height="6.92"/>
			</g>
		</g>
		<g>
			<g>
				<ellipse style="fill:#FFFFFF;" cx="27.67" cy="55.72" rx="0.84" ry="0.78"/>
			</g>
		</g>
		<g>
			<g>
				<ellipse style="fill:#FFFFFF;" cx="30.37" cy="55.72" rx="0.84" ry="0.78"/>
			</g>
		</g>
		<g>
			<g>
				<ellipse style="fill:#FFFFFF;" cx="33.07" cy="55.72" rx="0.84" ry="0.78"/>
			</g>
		</g>
	</g>
	<g>
		<g>
			<g>
				<rect x="77.44" y="22.77" style="fill:#E0E0E0;" width="100.52" height="67.32"/>
			</g>
		</g>
		<g>
			<g>
				<rect x="77.44" y="22.77" style="fill:#E0E0E0;" width="100.52" height="6.73"/>
			</g>
		</g>
		<g>
			<g>
				<ellipse style="fill:#FFFFFF;" cx="80.98" cy="26.14" rx="0.81" ry="0.76"/>
			</g>
		</g>
		<g>
			<g>
				<ellipse style="fill:#FFFFFF;" cx="83.6" cy="26.14" rx="0.81" ry="0.76"/>
			</g>
		</g>
		<g>
			<g>
				<ellipse style="fill:#FFFFFF;" cx="86.22" cy="26.14" rx="0.81" ry="0.76"/>
			</g>
		</g>
	</g>
	<g>
		<g>
			<g>
				<rect x="182.35" y="43.45" style="fill:#F5F5F5;" width="194.12" height="130.01"/>
			</g>
		</g>
		<g>
			<g>
				<rect x="182.35" y="43.45" style="fill:#EBEBEB;" width="194.12" height="12.99"/>
			</g>
		</g>
		<g>
			<g>
				<ellipse style="fill:#FFFFFF;" cx="189.18" cy="49.94" rx="1.57" ry="1.46"/>
			</g>
		</g>
		<g>
			<g>
				<ellipse style="fill:#FFFFFF;" cx="194.25" cy="49.94" rx="1.57" ry="1.46"/>
			</g>
		</g>
		<g>
			<g>
				<ellipse style="fill:#FFFFFF;" cx="199.31" cy="49.94" rx="1.57" ry="1.46"/>
			</g>
		</g>
	</g>
	<g>
		<g>
			<g>
				<rect x="127.02" y="72.19" style="fill:#F5F5F5;" width="194.12" height="130.01"/>
			</g>
		</g>
		<g>
			<g>
				<rect x="127.02" y="72.19" style="fill:#EBEBEB;" width="194.12" height="12.99"/>
			</g>
		</g>
		<g>
			<g>
				<ellipse style="fill:#FFFFFF;" cx="133.86" cy="78.68" rx="1.57" ry="1.46"/>
			</g>
		</g>
		<g>
			<g>
				<ellipse style="fill:#FFFFFF;" cx="138.92" cy="78.68" rx="1.57" ry="1.46"/>
			</g>
		</g>
		<g>
			<g>
				<ellipse style="fill:#FFFFFF;" cx="143.98" cy="78.68" rx="1.57" ry="1.46"/>
			</g>
		</g>
	</g>
</g>
<g id="Background_Simple" style="display:none;">
</g>
<g id="Floor">
	<g>
		<g>
			<path style="fill:#263238;" d="M460.85,332.9c0,0.11-93.87,0.21-209.64,0.21c-115.81,0-209.66-0.09-209.66-0.21
				c0-0.11,93.85-0.21,209.66-0.21C366.98,332.7,460.85,332.79,460.85,332.9z"/>
		</g>
	</g>
</g>
<g id="Characters">
	<g>
		<g>
			<path style="fill:#FFBE9D;" d="M380,125.9c0,0-5.58-5.63-6.38-7c-4.16-7.13-22.43-37.75-22.43-37.75L341.07,88
				c0,0,20.87,37.55,25.15,42.71c4.28,5.16,10.29,10.3,10.29,10.3L380,125.9z"/>
		</g>
		<g>
			<g>
				<path style="fill:#B78876;" d="M146.69,97.77c0.02,0.01,6.96-12.07,10.44-11.38c3.49,0.68,6.55,3.21,6.55,3.21l-8.87,10.42
					L146.69,97.77z"/>
			</g>
			<g>
				<polygon style="fill:#263238;" points="106.17,127.11 131.26,117.58 146.8,93.94 156.37,98.9 138.28,131.12 108.55,142.4 				
					"/>
			</g>
		</g>
		<g>
			<g>
				<g>
					<g>
						<g>
							<g>
								<rect x="157.2" y="55.56" style="fill:#FAFAFA;" width="196.9" height="131.87"/>
							</g>
						</g>
					</g>
					<g>
						<g>
							<g>
								<rect x="157.2" y="55.56" style="fill:#455A64;" width="196.9" height="13.17"/>
							</g>
						</g>
					</g>
					<g>
						<g>
							<g>
								<ellipse style="fill:#FFFFFF;" cx="164.14" cy="62.15" rx="1.59" ry="1.48"/>
							</g>
						</g>
					</g>
					<g>
						<g>
							<g>
								<ellipse style="fill:#FFFFFF;" cx="169.27" cy="62.15" rx="1.59" ry="1.48"/>
							</g>
						</g>
					</g>
					<g>
						<g>
							<g>
								<ellipse style="fill:#FFFFFF;" cx="174.41" cy="62.15" rx="1.59" ry="1.48"/>
							</g>
						</g>
					</g>
				</g>
				<g>
					<g>
						<g>
							<g>
								<path style="fill:#263238;" d="M354.1,187.44c0-1.34-0.07-51.54-0.16-131.87l0.16,0.16c-54.26,0.01-122.7,0.03-196.88,0.04
									h-0.02l0.21-0.21c-0.01,46.98-0.01,91.66-0.02,131.87l-0.19-0.19C273.17,187.36,352.42,187.43,354.1,187.44
									c-1.68,0-80.92,0.08-196.9,0.19l-0.19,0v-0.19c-0.01-40.21-0.01-84.89-0.02-131.87v-0.21h0.21h0.02
									c74.18,0.02,142.62,0.03,196.88,0.04h0.16v0.16C354.16,135.9,354.1,186.1,354.1,187.44z"/>
							</g>
						</g>
					</g>
				</g>
			</g>
			<g>
				<g>
					<polygon style="fill:#263238;" points="213.99,121.81 211.82,121.81 211.82,121.42 213.59,121.42 213.59,119.65 213.99,119.65 
											"/>
				</g>
				<g>
					<path style="fill:#263238;" d="M207.76,121.81h-4.06v-0.39h4.06V121.81z M199.64,121.81h-4.06v-0.39h4.06V121.81z
						 M191.53,121.81h-4.06v-0.39h4.06V121.81z M183.41,121.81h-4.06v-0.39h4.06V121.81z"/>
				</g>
				<g>
					<polygon style="fill:#263238;" points="175.29,121.81 173.12,121.81 173.12,119.65 173.52,119.65 173.52,121.42 175.29,121.42 
											"/>
				</g>
				<g>
					<path style="fill:#263238;" d="M173.52,115.59h-0.39v-4.06h0.39V115.59z M173.52,107.47h-0.39v-4.06h0.39V107.47z
						 M173.52,99.35h-0.39v-4.06h0.39V99.35z M173.52,91.23h-0.39v-4.06h0.39V91.23z"/>
				</g>
				<g>
					<polygon style="fill:#263238;" points="173.52,83.12 173.12,83.12 173.12,80.95 175.29,80.95 175.29,81.34 173.52,81.34 					
						"/>
				</g>
				<g>
					<path style="fill:#263238;" d="M207.76,81.34h-4.06v-0.39h4.06V81.34z M199.64,81.34h-4.06v-0.39h4.06V81.34z M191.53,81.34
						h-4.06v-0.39h4.06V81.34z M183.41,81.34h-4.06v-0.39h4.06V81.34z"/>
				</g>
				<g>
					<polygon style="fill:#263238;" points="213.99,83.12 213.59,83.12 213.59,81.34 211.82,81.34 211.82,80.95 213.99,80.95 					
						"/>
				</g>
				<g>
					<path style="fill:#263238;" d="M213.99,115.59h-0.39v-4.06h0.39V115.59z M213.99,107.47h-0.39v-4.06h0.39V107.47z
						 M213.99,99.35h-0.39v-4.06h0.39V99.35z M213.99,91.23h-0.39v-4.06h0.39V91.23z"/>
				</g>
			</g>
			<g>
				<g>
					<rect x="171.06" y="129.16" style="fill:#455A64;" width="44.77" height="3"/>
				</g>
				<g>
					<rect x="228.88" y="87.58" style="fill:#455A64;" width="44.77" height="3"/>
				</g>
				<g>
					<g>
						<path style="fill:#455A64;" d="M340.24,98.74c0,0.11-24.93,0.21-55.67,0.21c-30.76,0-55.68-0.09-55.68-0.21
							s24.92-0.21,55.68-0.21C315.31,98.53,340.24,98.62,340.24,98.74z"/>
					</g>
				</g>
				<g>
					<g>
						<path style="fill:#455A64;" d="M340.24,105.27c0,0.11-24.93,0.21-55.67,0.21c-30.76,0-55.68-0.09-55.68-0.21
							s24.92-0.21,55.68-0.21C315.31,105.07,340.24,105.16,340.24,105.27z"/>
					</g>
				</g>
				<g>
					<g>
						<path style="fill:#455A64;" d="M340.24,111.81c0,0.11-24.93,0.21-55.67,0.21c-30.76,0-55.68-0.09-55.68-0.21
							s24.92-0.21,55.68-0.21C315.31,111.61,340.24,111.7,340.24,111.81z"/>
					</g>
				</g>
				<g>
					<g>
						<path style="fill:#455A64;" d="M340.24,118.35c0,0.11-24.93,0.21-55.67,0.21c-30.76,0-55.68-0.09-55.68-0.21
							s24.92-0.21,55.68-0.21C315.31,118.15,340.24,118.24,340.24,118.35z"/>
					</g>
				</g>
				<g>
					<g>
						<path style="fill:#455A64;" d="M340.24,124.89c0,0.11-24.93,0.21-55.67,0.21c-30.76,0-55.68-0.09-55.68-0.21
							s24.92-0.21,55.68-0.21C315.31,124.69,340.24,124.78,340.24,124.89z"/>
					</g>
				</g>
				<g>
					<g>
						<path style="fill:#455A64;" d="M272.35,131.43c0,0.11-9.73,0.21-21.73,0.21c-12.01,0-21.73-0.09-21.73-0.21
							s9.73-0.21,21.73-0.21C262.62,131.23,272.35,131.32,272.35,131.43z"/>
					</g>
				</g>
				<g>
					<g>
						<path style="fill:#455A64;" d="M339.42,144.12c0,0.11-16.39,0.21-36.59,0.21c-20.21,0-36.6-0.09-36.6-0.21
							s16.38-0.21,36.6-0.21C323.04,143.92,339.42,144.01,339.42,144.12z"/>
					</g>
				</g>
				<g>
					<g>
						<path style="fill:#455A64;" d="M339.42,151.07c0,0.11-16.39,0.21-36.59,0.21c-20.21,0-36.6-0.09-36.6-0.21
							c0-0.11,16.38-0.21,36.6-0.21C323.04,150.86,339.42,150.95,339.42,151.07z"/>
					</g>
				</g>
				<g>
					<g>
						<path style="fill:#455A64;" d="M339.42,158.01c0,0.11-16.39,0.21-36.59,0.21c-20.21,0-36.6-0.09-36.6-0.21
							s16.38-0.21,36.6-0.21C323.04,157.8,339.42,157.9,339.42,158.01z"/>
					</g>
				</g>
				<g>
					<g>
						<path style="fill:#455A64;" d="M339.42,164.95c0,0.11-16.39,0.21-36.59,0.21c-20.21,0-36.6-0.09-36.6-0.21
							c0-0.11,16.38-0.21,36.6-0.21C323.04,164.75,339.42,164.84,339.42,164.95z"/>
					</g>
				</g>
				<g>
					<g>
						<ellipse style="fill:#455A64;" cx="194.13" cy="143.46" rx="21.81" ry="0.21"/>
					</g>
				</g>
				<g>
					<g>
						<ellipse style="fill:#455A64;" cx="194.13" cy="148.91" rx="21.81" ry="0.21"/>
					</g>
				</g>
				<g>
					<g>
						<ellipse style="fill:#455A64;" cx="194.13" cy="154.36" rx="21.81" ry="0.21"/>
					</g>
				</g>
				<g>
					<g>
						<ellipse style="fill:#455A64;" cx="194.13" cy="159.82" rx="21.81" ry="0.21"/>
					</g>
				</g>
				<g>
					<g>
						<ellipse style="fill:#455A64;" cx="194.13" cy="165.27" rx="21.81" ry="0.21"/>
					</g>
				</g>
				<g>
					<g>
						<g>
							<g>
								<rect x="228.86" y="140.81" style="fill:#455A64;" width="31.76" height="30.73"/>
							</g>
						</g>
					</g>
					<g>
						<g>
							<g>
								<polygon style="fill:#AC1E73;" points="231.32,168.91 240.11,153.1 247.29,163.21 251.66,157.84 258.16,168.91 								"/>
							</g>
						</g>
					</g>
					<g>
						<g>
							<g>
								<circle style="fill:#AC1E73;" cx="248.07" cy="150.02" r="2.29"/>
							</g>
						</g>
					</g>
					<g>
						<g>
							<g>
								<g>
									<path style="fill:#263238;" d="M258.16,169c0,0,0-0.04-0.01-0.13c0-0.09,0-0.21-0.01-0.36c0-0.33-0.01-0.79-0.02-1.38
										c-0.01-1.22-0.02-2.98-0.03-5.22c-0.02-4.49-0.04-10.88-0.07-18.55l0.13,0.13c-7.77,0.01-16.99,0.01-26.83,0.02
										c-0.04,0.03,0.28-0.28,0.15-0.15v0.01v0.01v0.03v0.05v0.11v0.22v0.44v0.87c0,0.58,0,1.16,0,1.73c0,1.15,0,2.29,0,3.42
										c0,2.26,0,4.47,0,6.62c0,4.3-0.01,8.37-0.01,12.12l-0.13-0.13c8.01,0.03,14.7,0.05,19.4,0.07c2.35,0.01,4.2,0.03,5.47,0.03
										c0.62,0.01,1.11,0.01,1.45,0.02c0.16,0,0.28,0.01,0.38,0.01C258.11,168.99,258.16,169,258.16,169c0,0-0.04,0-0.12,0.01
										c-0.09,0-0.21,0-0.36,0.01c-0.34,0-0.81,0.01-1.43,0.02c-1.27,0.01-3.11,0.02-5.44,0.03c-4.72,0.02-11.44,0.04-19.49,0.07
										l-0.13,0V169c0-3.74-0.01-7.81-0.01-12.12c0-2.15,0-4.36,0-6.62c0-1.13,0-2.27,0-3.42c0-0.58,0-1.15,0-1.73v-0.87v-0.44
										v-0.22v-0.11v-0.05v-0.03v-0.01v-0.01c-0.14,0.13,0.18-0.19,0.15-0.16c9.85,0.01,19.06,0.02,26.83,0.02h0.13l0,0.13
										c-0.03,7.71-0.05,14.13-0.07,18.64c-0.01,2.23-0.03,3.98-0.03,5.19c-0.01,0.58-0.01,1.04-0.01,1.36
										c0,0.14-0.01,0.26-0.01,0.34C258.16,168.96,258.16,169,258.16,169z"/>
								</g>
							</g>
						</g>
					</g>
				</g>
			</g>
		</g>
		<g>
			<g>
				<g>
					<g>
						<rect x="159.9" y="76.41" style="fill:#AC1E73;" width="44.88" height="43.42"/>
					</g>
				</g>
			</g>
			<g>
				<g>
					<g>
						<polygon style="fill:#FAFAFA;" points="163.38,116.11 175.8,93.77 185.96,108.05 192.13,100.47 201.31,116.11 						"/>
					</g>
				</g>
			</g>
			<g>
				<g>
					<g>
						<circle style="fill:#FAFAFA;" cx="187.05" cy="89.42" r="3.23"/>
					</g>
				</g>
			</g>
			<g>
				<g>
					<g>
						<g>
							<path style="fill:#FAFAFA;" d="M201.31,116.24c0,0-0.01-0.06-0.01-0.18c0-0.13-0.01-0.3-0.01-0.51
								c0-0.46-0.01-1.11-0.02-1.95c-0.01-1.72-0.03-4.21-0.05-7.37c-0.02-6.34-0.06-15.37-0.09-26.22l0.18,0.18
								c-10.98,0.01-24,0.02-37.92,0.03c-0.05,0.04,0.4-0.4,0.21-0.21v0.01v0.02v0.04v0.08v0.16v0.31v0.62v1.23
								c0,0.82,0,1.64,0,2.45c0,1.63,0,3.24,0,4.83c0,3.19,0,6.32-0.01,9.36c-0.01,6.08-0.01,11.83-0.02,17.12l-0.19-0.19
								c11.32,0.04,20.77,0.07,27.42,0.09c3.31,0.02,5.93,0.04,7.73,0.05c0.88,0.01,1.57,0.02,2.05,0.02c0.22,0,0.4,0.01,0.53,0.01
								C201.24,116.23,201.3,116.23,201.31,116.24c0,0-0.05,0.01-0.17,0.01c-0.13,0-0.3,0.01-0.51,0.01
								c-0.48,0.01-1.15,0.01-2.02,0.02c-1.8,0.01-4.4,0.03-7.69,0.05c-6.68,0.02-16.17,0.06-27.54,0.09l-0.19,0v-0.19
								c-0.01-5.29-0.01-11.04-0.02-17.12c0-3.04,0-6.17-0.01-9.36c0-1.6,0-3.21,0-4.83c0-0.81,0-1.63,0-2.45v-1.23l0-0.62v-0.31
								v-0.16v-0.08v-0.04v-0.02v-0.01c-0.19,0.19,0.26-0.27,0.22-0.22c13.92,0.01,26.94,0.02,37.92,0.03l0.18,0V80
								c-0.04,10.89-0.07,19.96-0.09,26.34c-0.02,3.14-0.04,5.62-0.05,7.33c-0.01,0.83-0.02,1.47-0.02,1.92
								c0,0.2-0.01,0.36-0.01,0.49C201.31,116.19,201.31,116.24,201.31,116.24z"/>
						</g>
					</g>
				</g>
			</g>
		</g>
		<g>
			<g>
				<path style="fill:#B78876;" d="M172.42,97.27c1.91-2.25,4.16-4.98,5.16-6.55c1.86-2.92,1.6-3.1,1.23-3.27
					c-1-0.45-3.46,5.01-3.6,3.51c-0.14-1.5,3.77-6.31,2.7-6.74c-1.39-0.56-3.86,5.21-4.1,5.68c-0.24,0.46-0.93,0.12-0.68-0.3
					c0.35-0.59,3.87-6.93,2.51-7.49c-0.75-0.31-1.15,1.12-1.15,1.12s-2.86,6.18-3.49,5.9c-0.64-0.29,0.92-3.98,1.53-5.19
					c0.61-1.19,0.29-1.98-0.45-1.82c-0.51,0.11-2.47,3.75-3.04,4.96c-0.58,1.21-2.11,4.54-2.67,2.25c-0.57-2.29-1.85-3.85-2.47-4.03
					c-0.63-0.18-1.09,0.65-0.64,1.22c0.36,0.47,0.74,1.43,0.99,2.16c0.21,0.61,0.32,1.24,0.32,1.88c0,0.55-0.02,1.04-0.04,1.48
					l-0.22,4.69l5.36,3.67L172.42,97.27z"/>
			</g>
			<g>
				<g>
					<path style="fill:#B78876;" d="M109.33,240.97l5.56,85.01l12.9-1.42c0,0,0.32-82.87-0.29-82.83
						C126.89,241.78,109.33,240.97,109.33,240.97z"/>
				</g>
				<g>
					<polygon style="fill:#B78876;" points="81.28,238.53 66.76,322.81 78.23,324.56 98.32,242.54 					"/>
				</g>
			</g>
			<g>
				<g>
					<g>
						<path style="fill:#B78876;" d="M99.48,96.81l-0.09,29.23l12.54,0.6l0.36-7.11c0,0,4.45,0.88,5.6-3.25
							c0.73-2.64,0.55-23.06,0.55-23.06L99.48,96.81z"/>
					</g>
					<g>
						<path style="fill:#263238;" d="M121.28,96.1c-0.84,1.75-4.87,4.94-4.87,4.94l-1.82,4.87c-1.58-1.24-3.7-1.17-4.1,1.61
							c-0.29,2,2.2,2.41,2.2,2.41c-1.45,2.47-2.43,4.46-4.55,6.81c-2.29,2.54-3.57,2.8-6.05,2.84h-2.73c0,0-5.59-4.67-4.49-16.98
							c1.11-12.31,11.19-9.98,14.82-11.79C110.14,90.58,124.09,90.27,121.28,96.1z"/>
					</g>
				</g>
				<g>
					<path style="fill:#263238;" d="M94.62,105.01c-2.09-1.18-4.91-0.89-6.71,0.69c-1.81,1.58-2.46,4.08-2.9,6.44
						c-0.44,2.36-0.81,4.85-2.25,6.76c-0.37,0.49-0.82,0.96-0.94,1.56c-0.18,0.87,0.45,1.78,1.28,2.07c0.84,0.3,1.8,0.05,2.51-0.48
						c0.71-0.53,1.21-1.3,1.57-2.11c-0.04,1.5,1.54,2.82,3,2.5c1.42-0.3,2.29-1.75,2.74-3.13c0.55-1.67,0.78-3.45,0.65-5.2
						c-0.12-1.61-0.52-3.24-0.25-4.83c0.27-1.6,1.52-3.2,3.14-3.14"/>
				</g>
				<g>
					<path style="fill:#263238;" d="M114.59,105.91c0,0,0.68,3.65-1.02,4.02c-0.75,0.16-1.61-0.22-1.61-0.22l-1.71,3.77
						c0,0-1.08,5.41,2.03,6.05c2.89,0.6,5.88,0.21,6.17-4.36l0.08-3.3c0,0-2.29,0.52-2.51-0.53c-0.22-1.04-0.39-8.25-0.39-8.25
						L114.59,105.91z"/>
				</g>
				<g>
					<g>
						<path style="fill:#263238;" d="M82.48,115.6c0.01,0.05-0.43-0.09-0.96,0.32c-0.25,0.2-0.49,0.57-0.44,1.02
							c0.04,0.44,0.38,0.95,0.93,1.05c0.55,0.11,1.2-0.16,1.63-0.7c0.44-0.53,0.73-1.25,0.91-2.02c0.36-1.56,0.14-3.37,0.18-5.27
							c0.02-0.95,0.14-1.91,0.46-2.77c0.32-0.87,0.87-1.62,1.5-2.17c1.29-1.12,2.87-1.5,4.13-1.43c1.27,0.06,2.24,0.45,2.86,0.78
							c0.31,0.16,0.54,0.32,0.68,0.42c0.15,0.11,0.22,0.18,0.21,0.19c-0.02,0.03-0.34-0.19-0.96-0.47
							c-0.62-0.27-1.58-0.61-2.79-0.63c-1.2-0.03-2.68,0.37-3.87,1.43c-0.59,0.53-1.08,1.21-1.38,2.02
							c-0.29,0.81-0.4,1.71-0.42,2.65c-0.04,1.86,0.18,3.7-0.22,5.35c-0.21,0.81-0.52,1.57-1.02,2.16
							c-0.49,0.59-1.27,0.92-1.95,0.76c-0.7-0.16-1.07-0.8-1.1-1.32c-0.04-0.55,0.28-0.97,0.57-1.17
							C82.05,115.38,82.51,115.59,82.48,115.6z"/>
					</g>
				</g>
				<g>
					<g>
						<path style="fill:#263238;" d="M114.91,96.21c0.01-0.03,0.25,0.04,0.7,0.05c0.44,0.02,1.11-0.04,1.79-0.42
							c0.68-0.36,1.34-1.12,1.49-2.14c0.08-0.5,0.02-1.04-0.22-1.53c-0.23-0.49-0.63-0.93-1.12-1.25c-0.99-0.67-2.19-0.77-3.23-0.68
							c-1.05,0.09-1.98,0.35-2.77,0.55c-1.58,0.43-2.6,0.51-2.61,0.45c0-0.03,0.24-0.08,0.68-0.19c0.44-0.11,1.07-0.29,1.85-0.53
							c0.78-0.23,1.72-0.52,2.81-0.64c1.08-0.12,2.39-0.03,3.49,0.71c0.54,0.36,1,0.85,1.26,1.42c0.27,0.57,0.32,1.2,0.22,1.76
							c-0.18,1.14-0.96,1.98-1.72,2.34c-0.77,0.37-1.48,0.38-1.94,0.32C115.14,96.36,114.9,96.23,114.91,96.21z"/>
					</g>
				</g>
				<g>
					<g>
						<path style="fill:#FFFFFF;" d="M95.5,112.88c0,0,0.12-0.01,0.35,0c0.23-0.01,0.57-0.02,0.99-0.12c0.84-0.17,2.04-0.67,3.2-1.7
							c1.17-1.02,2.2-2.58,3.25-4.36c1.06-1.74,2.22-3.8,4.22-5.18c2.03-1.35,4.38-1.62,6.38-2.02c2.02-0.37,3.82-0.93,5.06-1.88
							c1.24-0.94,1.85-2.12,2.05-2.95c0.2-0.85,0.09-1.34,0.12-1.34c0,0,0.13,0.49-0.06,1.35c-0.18,0.85-0.79,2.06-2.04,3.03
							c-1.25,0.98-3.08,1.56-5.1,1.94c-2,0.41-4.33,0.68-6.31,2.01c-1.96,1.35-3.12,3.38-4.19,5.12c-1.05,1.77-2.1,3.34-3.3,4.37
							c-1.18,1.04-2.41,1.53-3.27,1.68C95.99,112.98,95.5,112.88,95.5,112.88z"/>
					</g>
				</g>
				<g>
					<g>
						<path style="fill:#FFFFFF;" d="M96.72,115.98c0,0,0.08-0.06,0.25-0.17c0.17-0.1,0.41-0.26,0.73-0.47
							c0.62-0.42,1.5-1.07,2.45-2.01c0.95-0.94,1.98-2.18,2.85-3.72c0.88-1.53,1.52-3.43,2.86-5.03c1.37-1.62,3.35-2.28,5.04-2.74
							c1.72-0.45,3.29-0.79,4.51-1.34c1.23-0.52,2.11-1.2,2.61-1.75c0.5-0.56,0.68-0.94,0.7-0.92c0,0-0.16,0.39-0.66,0.97
							c-0.49,0.58-1.37,1.27-2.61,1.81c-1.23,0.57-2.81,0.93-4.52,1.38c-1.69,0.46-3.63,1.12-4.96,2.7
							c-1.32,1.56-1.96,3.45-2.85,4.99c-0.88,1.55-1.93,2.8-2.9,3.73c-0.97,0.94-1.86,1.57-2.5,1.98
							C97.1,115.8,96.72,115.98,96.72,115.98z"/>
					</g>
				</g>
				<g>
					<g>
						<path style="fill:#FFFFFF;" d="M88.49,121.67c-0.01-0.01,0.17-0.24,0.4-0.7c0.23-0.46,0.48-1.18,0.55-2.11
							c0.08-0.92-0.03-2.03-0.28-3.24c-0.24-1.21-0.61-2.52-0.73-3.96c-0.11-1.42,0.1-2.85,0.78-3.92c0.68-1.07,1.71-1.68,2.61-1.95
							c0.91-0.28,1.69-0.24,2.21-0.15c0.52,0.1,0.78,0.24,0.78,0.24c-0.01,0.02-0.28-0.09-0.79-0.18c-0.51-0.07-1.28-0.09-2.16,0.2
							c-0.87,0.28-1.87,0.88-2.52,1.92c-0.66,1.03-0.86,2.42-0.75,3.83c0.11,1.41,0.48,2.72,0.71,3.94
							c0.25,1.21,0.35,2.34,0.25,3.28c-0.08,0.94-0.36,1.67-0.61,2.13C88.7,121.46,88.49,121.67,88.49,121.67z"/>
					</g>
				</g>
				<g>
					<g>
						<path style="fill:#FFFFFF;" d="M83.38,122.44c-0.01-0.03,0.36,0.08,0.86-0.26c0.5-0.33,0.94-1.09,1.28-2.09
							c0.35-1,0.58-2.25,0.72-3.64c0.14-1.4,0.19-2.95,0.44-4.56c0.25-1.61,0.77-3.12,1.6-4.29c0.81-1.17,1.93-1.94,2.98-2.21
							c1.04-0.31,1.94-0.19,2.51-0.02c0.57,0.19,0.84,0.4,0.84,0.4c-0.01,0.02-0.29-0.17-0.85-0.34c-0.56-0.16-1.45-0.25-2.46,0.07
							c-1.01,0.28-2.09,1.04-2.88,2.19c-0.8,1.15-1.31,2.63-1.56,4.23c-0.25,1.6-0.3,3.15-0.45,4.55c-0.14,1.4-0.39,2.66-0.76,3.67
							c-0.35,1-0.83,1.78-1.36,2.11C83.74,122.57,83.36,122.43,83.38,122.44z"/>
					</g>
				</g>
				<g>
					<g>
						<path style="fill:#E8505B;" d="M94.67,107.61c-0.11,0.01-0.3-0.73-0.43-1.65c-0.09-0.67-0.12-1.26-0.08-1.53l0.08,0.08
							c0.06-0.04,0-0.03,0-0.01c-0.01,0.01-0.01,0.03-0.01,0.04c0,0.01-0.03,0.04-0.07-0.01c-0.02-0.03-0.08-0.15,0.09-0.2
							l0.05-0.01l0.04,0.09c0.1,0.25,0.23,0.83,0.32,1.5C94.77,106.83,94.78,107.6,94.67,107.61z"/>
					</g>
				</g>
			</g>
			<g>
				<g>
					<polygon style="fill:#AC1E73;" points="86.89,189.95 74.09,253.52 97.37,257.47 105.76,211.86 109.33,257.47 130.88,254.42 
						125.36,186.76 					"/>
				</g>
				<g>
					<g>
						<path style="fill:#263238;" d="M118.6,211.03c0,0.03-0.36,0.07-1,0.12c-0.73,0.06-1.64,0.13-2.73,0.21
							c-2.31,0.17-5.5,0.42-9.01,0.77c-3.51,0.35-6.69,0.73-8.99,1.01c-1.08,0.13-2,0.24-2.72,0.33c-0.64,0.07-1,0.1-1.01,0.07
							s0.34-0.11,0.98-0.23c0.64-0.12,1.56-0.28,2.71-0.46c2.29-0.36,5.46-0.78,8.99-1.13c3.52-0.35,6.72-0.55,9.03-0.65
							c1.16-0.05,2.1-0.08,2.74-0.08S118.6,211.01,118.6,211.03z"/>
					</g>
				</g>
				<g>
					<g>
						<g>
							<path style="fill:#AC1E73;" d="M128.41,224.11c0.02,0.29,3.35,5.34,3.35,5.34l-1.68,0.75c0,0,3.64,5.03-0.24,11.49
								L128.41,224.11z"/>
						</g>
						<g>
							<path style="fill:#AC1E73;" d="M81.54,220.38c-0.28,0.19-4.12,6.17-4.12,6.17h0.75c0,0-4.47,5.77-0.97,11.53L81.54,220.38z"
								/>
						</g>
					</g>
					<g style="opacity:0.2;">
						<g>
							<path d="M128.41,224.11c0.02,0.29,3.35,5.34,3.35,5.34l-1.68,0.75c0,0,3.64,5.03-0.24,11.49L128.41,224.11z"/>
						</g>
						<g>
							<path d="M81.54,220.38c-0.28,0.19-4.12,6.17-4.12,6.17h0.75c0,0-4.47,5.77-0.97,11.53L81.54,220.38z"/>
						</g>
					</g>
				</g>
				<g>
					<g>
						<path style="fill:#263238;" d="M130.83,250.42c0,0.03-0.3,0.09-0.85,0.17c-0.64,0.09-1.41,0.2-2.32,0.32
							c-2.06,0.28-4.71,0.64-7.65,1.05c-2.93,0.43-5.59,0.83-7.64,1.13c-0.91,0.13-1.68,0.24-2.32,0.34
							c-0.55,0.07-0.85,0.1-0.86,0.07s0.29-0.11,0.83-0.23c0.54-0.12,1.32-0.28,2.3-0.46c1.94-0.37,4.64-0.82,7.63-1.25
							c2.99-0.42,5.71-0.74,7.67-0.93c0.99-0.09,1.78-0.16,2.34-0.2C130.51,250.39,130.82,250.39,130.83,250.42z"/>
					</g>
				</g>
				<g>
					<g>
						<path style="fill:#263238;" d="M97.73,254.64c-0.01,0.03-0.33-0.02-0.91-0.14c-0.66-0.14-1.48-0.31-2.45-0.52
							c-2.16-0.46-4.97-1.07-8.07-1.74c-3.11-0.65-5.92-1.23-8.08-1.68c-0.97-0.21-1.79-0.38-2.45-0.52
							c-0.58-0.13-0.89-0.21-0.89-0.24c0-0.03,0.33,0,0.92,0.09c0.59,0.08,1.43,0.21,2.47,0.39c2.09,0.36,4.96,0.9,8.12,1.57
							c3.16,0.67,6,1.34,8.05,1.86c1.03,0.26,1.85,0.48,2.42,0.64C97.42,254.51,97.74,254.61,97.73,254.64z"/>
					</g>
				</g>
				<g>
					<g>
						<g>
							
								<ellipse transform="matrix(-0.2115 0.9774 -0.9774 -0.2115 334.0228 156.4772)" style="fill:#263238;" cx="103.89" cy="212.97" rx="0.59" ry="0.2"/>
						</g>
					</g>
					<g>
						<g>
							
								<ellipse transform="matrix(-0.2118 0.9773 -0.9773 -0.2118 336.9482 162.3355)" style="fill:#263238;" cx="103.01" cy="217.05" rx="1.19" ry="0.21"/>
						</g>
					</g>
					<g>
						<g>
							
								<ellipse transform="matrix(-0.2118 0.9773 -0.9773 -0.2118 340.2791 168.9694)" style="fill:#263238;" cx="102" cy="221.71" rx="1.19" ry="0.21"/>
						</g>
					</g>
					<g>
						<g>
							
								<ellipse transform="matrix(-0.2114 0.9774 -0.9774 -0.2114 343.5902 175.5057)" style="fill:#263238;" cx="100.99" cy="226.37" rx="1.19" ry="0.21"/>
						</g>
					</g>
					<g>
						<g>
							
								<ellipse transform="matrix(-0.2119 0.9773 -0.9773 -0.2119 346.9448 182.2558)" style="fill:#263238;" cx="99.98" cy="231.03" rx="1.19" ry="0.21"/>
						</g>
					</g>
					<g>
						<g>
							
								<ellipse transform="matrix(-0.2114 0.9774 -0.9774 -0.2114 350.2527 188.7666)" style="fill:#263238;" cx="98.97" cy="235.69" rx="1.19" ry="0.21"/>
						</g>
					</g>
					<g>
						<g>
							
								<ellipse transform="matrix(-0.2115 0.9774 -0.9774 -0.2115 353.5878 195.4203)" style="fill:#263238;" cx="97.96" cy="240.34" rx="1.19" ry="0.21"/>
						</g>
					</g>
					<g>
						<g>
							
								<ellipse transform="matrix(-0.2119 0.9773 -0.9773 -0.2119 356.9362 202.1553)" style="fill:#263238;" cx="96.95" cy="245" rx="1.19" ry="0.21"/>
						</g>
					</g>
					<g>
						<g>
							
								<ellipse transform="matrix(-0.2118 0.9773 -0.9773 -0.2118 360.2628 208.7661)" style="fill:#263238;" cx="95.94" cy="249.66" rx="1.19" ry="0.21"/>
						</g>
					</g>
					<g>
						<g>
							
								<ellipse transform="matrix(-0.2123 0.9772 -0.9772 -0.2123 363.1945 214.7084)" style="fill:#263238;" cx="95.06" cy="253.74" rx="0.59" ry="0.21"/>
						</g>
					</g>
				</g>
				<g>
					<g>
						<g>
							
								<ellipse transform="matrix(0.0669 0.9978 -0.9978 0.0669 307.2477 55.5825)" style="fill:#263238;" cx="123.91" cy="192.06" rx="0.59" ry="0.21"/>
						</g>
					</g>
					<g>
						<g>
							
								<ellipse transform="matrix(0.0692 0.9976 -0.9976 0.0692 311.2318 58.6563)" style="fill:#263238;" cx="124.18" cy="196.11" rx="1.16" ry="0.2"/>
						</g>
					</g>
					<g>
						<g>
							
								<ellipse transform="matrix(0.073 0.9973 -0.9973 0.073 315.6202 61.9003)" style="fill:#263238;" cx="124.51" cy="200.73" rx="1.16" ry="0.21"/>
						</g>
					</g>
					<g>
						<g>
							
								<ellipse transform="matrix(0.0768 0.997 -0.997 0.0768 320.0122 65.0858)" style="fill:#263238;" cx="124.86" cy="205.35" rx="1.16" ry="0.21"/>
						</g>
					</g>
					<g>
						<g>
							
								<ellipse transform="matrix(0.0814 0.9967 -0.9967 0.0814 324.2899 68.0523)" style="fill:#263238;" cx="125.23" cy="209.96" rx="1.16" ry="0.21"/>
						</g>
					</g>
					<g>
						<g>
							
								<ellipse transform="matrix(0.0844 0.9964 -0.9964 0.0844 328.8183 71.3102)" style="fill:#263238;" cx="125.61" cy="214.57" rx="1.16" ry="0.21"/>
						</g>
					</g>
					<g>
						<g>
							
								<ellipse transform="matrix(0.0882 0.9961 -0.9961 0.0882 333.2281 74.3419)" style="fill:#263238;" cx="126.01" cy="219.19" rx="1.16" ry="0.21"/>
						</g>
					</g>
					<g>
						<g>
							
								<ellipse transform="matrix(0.092 0.9958 -0.9958 0.092 337.6419 77.3225)" style="fill:#263238;" cx="126.42" cy="223.8" rx="1.16" ry="0.21"/>
						</g>
					</g>
					<g>
						<g>
							
								<ellipse transform="matrix(0.0957 0.9954 -0.9954 0.0957 342.0655 80.2594)" style="fill:#263238;" cx="126.86" cy="228.4" rx="1.16" ry="0.2"/>
						</g>
					</g>
					<g>
						<g>
							
								<ellipse transform="matrix(0.0996 0.995 -0.995 0.0996 346.483 83.1269)" style="fill:#263238;" cx="127.31" cy="233.01" rx="1.16" ry="0.21"/>
						</g>
					</g>
					<g>
						<g>
							
								<ellipse transform="matrix(0.1034 0.9946 -0.9946 0.1034 350.9097 85.9526)" style="fill:#263238;" cx="127.78" cy="237.61" rx="1.16" ry="0.21"/>
						</g>
					</g>
					<g>
						<g>
							
								<ellipse transform="matrix(0.1068 0.9943 -0.9943 0.1068 355.4036 88.8225)" style="fill:#263238;" cx="128.27" cy="242.22" rx="1.16" ry="0.21"/>
						</g>
					</g>
					<g>
						<g>
							
								<ellipse transform="matrix(0.111 0.9938 -0.9938 0.111 359.7717 91.4502)" style="fill:#263238;" cx="128.77" cy="246.82" rx="1.16" ry="0.21"/>
						</g>
					</g>
					<g>
						<g>
							
								<ellipse transform="matrix(0.114 0.9935 -0.9935 0.114 363.7202 93.8819)" style="fill:#263238;" cx="129.23" cy="250.86" rx="0.59" ry="0.21"/>
						</g>
					</g>
				</g>
			</g>
			<g>
				<g>
					<polygon style="fill:#F0F0F0;" points="66.98,320.32 69.08,309.36 81.73,311.58 78.67,322.75 					"/>
				</g>
				<g>
					<g>
						<polygon style="fill:#455A64;" points="66.98,320.32 65.04,328.99 78.46,330.65 78.94,322.06 						"/>
					</g>
					<g>
						<g>
							
								<ellipse transform="matrix(0.1603 -0.9871 0.9871 0.1603 -259.6975 344.0962)" style="fill:#263238;" cx="72.4" cy="324.69" rx="4" ry="0.2"/>
						</g>
					</g>
					<g>
						<g>
							<path style="fill:#263238;" d="M78.51,329.7c-0.01,0.06-0.75-0.05-1.94-0.24c-1.34-0.22-2.91-0.47-4.66-0.75
								c-1.82-0.3-3.46-0.61-4.64-0.87c-1.18-0.26-1.9-0.47-1.89-0.53c0.01-0.06,0.75,0.05,1.94,0.24c1.34,0.22,2.91,0.47,4.66,0.75
								c1.82,0.3,3.46,0.61,4.64,0.87C77.8,329.44,78.52,329.65,78.51,329.7z"/>
						</g>
					</g>
				</g>
				<g>
					<g>
						<path style="fill:#263238;" d="M81.23,313.39c-0.01,0.05-0.72-0.02-1.85-0.2c-1.14-0.18-2.7-0.46-4.42-0.79
							c-1.64-0.31-3.12-0.6-4.4-0.84c-1.13-0.22-1.82-0.36-1.82-0.42c0.01-0.05,0.72-0.01,1.86,0.13c1.14,0.14,2.71,0.4,4.43,0.73
							s3.27,0.66,4.4,0.91C80.55,313.15,81.24,313.33,81.23,313.39z"/>
					</g>
				</g>
				<g>
					<g>
						<path style="fill:#AC1E73;" d="M80.71,314.74c-0.01,0.05-0.72-0.02-1.84-0.17c-1.13-0.16-2.68-0.41-4.39-0.71
							c-1.71-0.3-3.26-0.59-4.37-0.82c-1.12-0.23-1.8-0.4-1.79-0.46c0.01-0.06,0.71,0.01,1.84,0.17c1.13,0.16,2.68,0.41,4.4,0.71
							c1.71,0.3,3.26,0.59,4.38,0.82S80.72,314.69,80.71,314.74z"/>
					</g>
				</g>
			</g>
			<g>
				<g>
					<path style="fill:#F0F0F0;" d="M114.92,327.82c-0.15-0.97-0.83-14.15-0.83-14.15l14.03-1.08l0.49,13.64L114.92,327.82z"/>
				</g>
				<g>
					<g>
						<g>
							<g>
								<g>
									<g>
										<path style="fill:#455A64;" d="M129.63,327.51l-0.2-1.54l-14.51,1.85l0.61,5.08l0.9-0.05c4.02-0.28,20.4-1.7,22.96-2.84
											C142.26,328.74,129.63,327.51,129.63,327.51z"/>
									</g>
								</g>
							</g>
							<g>
								<g>
									<g>
										<path style="fill:#455A64;" d="M120.76,332.14c-0.36-1.18-1.17-2.22-2.23-2.85c-1.06-0.63-2.3-0.88-3.51-0.63l0.5,4.04
											L120.76,332.14z"/>
									</g>
								</g>
							</g>
						</g>
						<g>
							<g>
								<g>
									<path style="fill:#455A64;" d="M135.83,328.32c0,0,4.46,0.7,4.01,1.48c-0.45,0.78-16.95,2.83-24.31,3.1l-0.02-0.33
										l19.27-2.23C134.79,330.35,134.99,328.47,135.83,328.32z"/>
								</g>
							</g>
						</g>
						<g>
							<g>
								<g>
									<g>
										<path style="fill:#263238;" d="M115.29,332.6c0,0.01,0.09,0,0.25,0c0.22-0.01,0.45-0.03,0.72-0.05
											c0.72-0.06,1.6-0.13,2.64-0.21c2.23-0.2,5.3-0.51,8.69-0.93c3.39-0.42,6.45-0.87,8.66-1.22c1.03-0.17,1.9-0.32,2.61-0.44
											c0.26-0.05,0.5-0.09,0.71-0.13c0.16-0.03,0.25-0.05,0.25-0.06c0-0.01-0.09,0-0.25,0.02c-0.21,0.03-0.45,0.06-0.71,0.1
											c-0.71,0.1-1.59,0.23-2.62,0.38c-2.21,0.32-5.27,0.75-8.66,1.17c-3.39,0.42-6.46,0.75-8.68,0.98
											c-1.04,0.11-1.92,0.2-2.63,0.27c-0.27,0.03-0.5,0.05-0.72,0.08C115.37,332.58,115.29,332.59,115.29,332.6z"/>
									</g>
								</g>
							</g>
						</g>
						<g>
							<g>
								<g>
									<g>
										<path style="fill:#263238;" d="M134.81,330.57c0.05,0,0.02-0.63,0.33-1.31c0.31-0.69,0.81-1.08,0.77-1.12
											c-0.02-0.04-0.6,0.31-0.93,1.04C134.64,329.92,134.77,330.59,134.81,330.57z"/>
									</g>
								</g>
							</g>
						</g>
						<g>
							<g>
								<g>
									<g>
										
											<ellipse transform="matrix(-0.4275 0.904 -0.904 -0.4275 483.1823 350.5964)" style="fill:#263238;" cx="130.58" cy="328.29" rx="0.72" ry="0.09"/>
									</g>
								</g>
							</g>
						</g>
						<g>
							<g>
								<g>
									<g>
										
											<ellipse transform="matrix(-0.655 0.7556 -0.7556 -0.655 462.0531 445.0425)" style="fill:#263238;" cx="129.43" cy="328" rx="0.61" ry="0.09"/>
									</g>
								</g>
							</g>
						</g>
						<g>
							<g>
								<g>
									<g>
										
											<ellipse transform="matrix(-0.9937 0.1123 -0.1123 -0.9937 293.6775 637.6676)" style="fill:#263238;" cx="128.87" cy="327.11" rx="0.76" ry="0.09"/>
									</g>
								</g>
							</g>
						</g>
						<g>
							<g>
								<g>
									<g>
										<path style="fill:#263238;" d="M127.74,326.26c-0.01,0.04,0.38,0.17,0.87,0.14c0.5-0.02,0.87-0.18,0.86-0.22
											c-0.01-0.05-0.39,0.03-0.86,0.05C128.14,326.25,127.75,326.21,127.74,326.26z"/>
									</g>
								</g>
							</g>
						</g>
						<g>
							<g>
								<g>
									<g>
										<path style="fill:#263238;" d="M130.61,327.62c0,0.02,0.36,0.02,0.93-0.12c0.28-0.07,0.61-0.18,0.96-0.34
											c0.17-0.09,0.36-0.16,0.54-0.3c0.08-0.07,0.18-0.17,0.2-0.32c0.02-0.14-0.07-0.29-0.19-0.35
											c-0.94-0.35-1.77,0.26-2.04,0.76c-0.15,0.26-0.21,0.49-0.23,0.66c-0.02,0.16,0,0.25,0.01,0.25
											c0.03,0.01,0.02-0.37,0.32-0.84c0.15-0.23,0.4-0.47,0.73-0.62c0.32-0.14,0.78-0.22,1.12-0.06
											c0.16,0.09,0.12,0.27-0.03,0.39c-0.14,0.12-0.33,0.2-0.49,0.29c-0.34,0.17-0.65,0.28-0.92,0.37
											C130.96,327.54,130.6,327.59,130.61,327.62z"/>
									</g>
								</g>
							</g>
						</g>
						<g>
							<g>
								<g>
									<g>
										<path style="fill:#263238;" d="M130.86,327.63c0.01,0.01,0.12-0.25,0.03-0.66c-0.05-0.2-0.15-0.44-0.34-0.65
											c-0.19-0.19-0.44-0.44-0.83-0.38c-0.21,0.05-0.29,0.31-0.23,0.46c0.04,0.16,0.13,0.29,0.21,0.39
											c0.17,0.21,0.35,0.38,0.51,0.51c0.33,0.25,0.57,0.33,0.58,0.31c0.01-0.03-0.21-0.14-0.5-0.41
											c-0.15-0.13-0.31-0.3-0.46-0.51c-0.15-0.18-0.28-0.52-0.05-0.59c0.23-0.05,0.5,0.15,0.66,0.32
											c0.17,0.18,0.28,0.39,0.34,0.57C130.88,327.38,130.82,327.63,130.86,327.63z"/>
									</g>
								</g>
							</g>
						</g>
						<g>
							<g>
								<g>
									<g>
										<path style="fill:#263238;" d="M115.09,328.61c0.01,0.03,0.41-0.09,1.07-0.09c0.66-0.01,1.59,0.14,2.45,0.67
											c0.86,0.53,1.42,1.29,1.71,1.88c0.3,0.59,0.37,1.01,0.4,1c0.01,0,0-0.11-0.04-0.29c-0.04-0.19-0.12-0.45-0.25-0.76
											c-0.27-0.62-0.84-1.42-1.73-1.97c-0.9-0.55-1.87-0.69-2.54-0.64c-0.34,0.02-0.61,0.07-0.79,0.12
											C115.18,328.56,115.09,328.6,115.09,328.61z"/>
									</g>
								</g>
							</g>
						</g>
						<g>
							<g>
								<g>
									<g>
										<path style="fill:#263238;" d="M122.4,330.5c0,0.05,0.96,0.08,2.14-0.05c1.18-0.13,2.1-0.39,2.09-0.43
											c-0.01-0.05-0.95,0.13-2.11,0.26C123.35,330.41,122.4,330.45,122.4,330.5z"/>
									</g>
								</g>
							</g>
						</g>
						<g>
							<g>
								<g>
									<g>
										<path style="fill:#263238;" d="M119.57,330.85c-0.03,0.04,0.1,0.19,0.23,0.4c0.13,0.2,0.2,0.39,0.25,0.38
											c0.05-0.01,0.05-0.24-0.1-0.47C119.8,330.91,119.59,330.81,119.57,330.85z"/>
									</g>
								</g>
							</g>
						</g>
						<g>
							<g>
								<g>
									<g>
										
											<ellipse transform="matrix(-0.7853 -0.6192 0.6192 -0.7853 7.5506 662.4048)" style="fill:#263238;" cx="118.64" cy="329.89" rx="0.39" ry="0.09"/>
									</g>
								</g>
							</g>
						</g>
						<g>
							<g>
								<g>
									<g>
										<path style="fill:#263238;" d="M116.73,329.23c0.02,0.05,0.21,0.02,0.43,0.07c0.22,0.04,0.39,0.14,0.42,0.11
											c0.04-0.03-0.11-0.22-0.39-0.28C116.92,329.07,116.71,329.19,116.73,329.23z"/>
									</g>
								</g>
							</g>
						</g>
						<g>
							<g>
								<g>
									<g>
										
											<ellipse transform="matrix(-0.9705 -0.2411 0.2411 -0.9705 148.9111 676.4998)" style="fill:#263238;" cx="115.84" cy="329.14" rx="0.23" ry="0.09"/>
									</g>
								</g>
							</g>
						</g>
					</g>
				</g>
				<g>
					<g>
						
							<ellipse transform="matrix(0.9988 -0.0496 0.0496 0.9988 -15.4872 6.3882)" style="fill:#263238;" cx="120.98" cy="315.25" rx="6.97" ry="0.21"/>
					</g>
				</g>
				<g>
					<g>
						
							<ellipse transform="matrix(0.9983 -0.0588 0.0588 0.9983 -18.4231 7.6645)" style="fill:#AC1E73;" cx="121.09" cy="317.03" rx="6.86" ry="0.21"/>
					</g>
				</g>
			</g>
			<g>
				<g>
					<g>
						<path style="fill:#455A64;" d="M84.91,161.99l0.9,17.36l0.15,15.19l39.99-2.93l-1.72-27.96c-0.26-6.54-0.38-13.35-0.55-19.39
							c2.73-1.04,28.13-10.65,29.87-10.9c1.84-0.26,18.47-31.02,18.47-31.02c0.53-3.69-9.48-6.06-9.48-6.06
							s-15.53,23.43-16.85,24.75s-25.65,3.87-25.65,3.87c-7.47-1.69-26.38-1.96-30.95,1.4C89.11,126.33,78.77,131.43,84.91,161.99z"
							/>
					</g>
					<g>
						<g>
							<path style="fill:#263238;" d="M147.89,126.32c-0.1,0.06-0.74-1.08-1.27-2.57c-0.53-1.49-1-2.66-0.91-2.7
								c0.1-0.06,0.74,1.08,1.27,2.57C147.5,125.11,147.97,126.28,147.89,126.32z"/>
						</g>
					</g>
					<g>
						<g>
							<path style="fill:#263238;" d="M149.63,124.33c-0.07,0.07-0.96-0.63-2.08-1.49c-1.12-0.86-1.93-1.71-1.85-1.79
								c0.07-0.07,0.96,0.63,2.08,1.49C148.91,123.4,149.71,124.25,149.63,124.33z"/>
						</g>
					</g>
					<g>
						<g>
							<path style="fill:#263238;" d="M124.05,124.59c0.01,0.07-0.94,0.07-2.34,0.55c-1.39,0.46-3.24,1.52-4.56,3.35
								c-1.31,1.84-1.7,3.94-1.69,5.4c0,1.48,0.31,2.38,0.24,2.39c-0.02,0.01-0.12-0.21-0.24-0.61c-0.12-0.41-0.24-1.01-0.28-1.77
								c-0.09-1.5,0.28-3.7,1.65-5.63c1.37-1.92,3.33-2.98,4.79-3.39c0.73-0.21,1.34-0.3,1.77-0.32
								C123.81,124.55,124.05,124.57,124.05,124.59z"/>
						</g>
					</g>
					<g>
						<g>
							
								<ellipse transform="matrix(1 -7.708600e-03 7.708600e-03 1 -0.9534 0.8188)" style="fill:#263238;" cx="105.74" cy="124.08" rx="6.37" ry="0.19"/>
						</g>
					</g>
				</g>
				<g>
					<g>
						<g>
							<path style="fill:#263238;" d="M105.99,138.93c0.01-0.01,0.11,0.2,0.28,0.6c0.18,0.38,0.43,1,1.01,1.56
								c0.29,0.27,0.68,0.52,1.15,0.61c0.47,0.1,1-0.04,1.44-0.4c0.46-0.34,0.86-0.83,1.44-1.21c0.6-0.37,1.38-0.5,2.13-0.33
								c0.75,0.16,1.49,0.59,2.01,1.26c0.52,0.68,0.73,1.59,0.64,2.49c-0.1,0.9-0.48,1.8-1.14,2.5c-0.67,0.71-1.54,1.16-2.36,1.66
								c-0.82,0.49-1.64,1.08-2.01,1.98c-0.37,0.9-0.29,1.95-0.38,3.02c-0.04,0.54-0.14,1.1-0.38,1.62
								c-0.24,0.52-0.61,0.98-1.05,1.35c-0.89,0.74-2.18,1.03-3.32,0.67c-0.57-0.17-1.1-0.46-1.53-0.87
								c-0.43-0.41-0.72-0.92-0.98-1.4c-0.49-0.96-0.95-2.03-1.9-2.29c-0.94-0.27-1.95,0.27-3.04,0.25
								c-1.12-0.02-2.1-0.76-2.52-1.71c-0.43-0.98-0.18-2.12,0.44-2.87c0.31-0.38,0.73-0.67,1.17-0.83
								c0.44-0.17,0.88-0.26,1.29-0.37c0.41-0.11,0.81-0.24,1.12-0.46c0.31-0.22,0.52-0.54,0.6-0.9c0.14-0.74-0.14-1.49-0.27-2.22
								c-0.33-1.52,0.37-2.95,1.29-3.7c0.93-0.8,2.07-0.92,2.89-0.78c0.84,0.14,1.41,0.5,1.75,0.77c0.34,0.28,0.46,0.48,0.46,0.48
								c-0.02,0.01-0.16-0.16-0.51-0.42c-0.34-0.25-0.91-0.57-1.72-0.68c-0.79-0.11-1.86,0.03-2.71,0.8
								c-0.85,0.73-1.48,2.06-1.15,3.47c0.12,0.71,0.44,1.46,0.29,2.34c-0.08,0.43-0.34,0.84-0.71,1.11
								c-0.37,0.26-0.8,0.4-1.22,0.52c-0.84,0.22-1.73,0.4-2.27,1.11c-0.54,0.66-0.75,1.66-0.38,2.49c0.36,0.82,1.23,1.46,2.18,1.48
								c0.95,0.04,1.97-0.54,3.14-0.24c0.57,0.16,1.03,0.58,1.35,1.04c0.32,0.47,0.55,0.97,0.8,1.45c0.25,0.48,0.52,0.94,0.9,1.3
								c0.38,0.36,0.85,0.62,1.36,0.77c1.02,0.32,2.15,0.07,2.95-0.59c0.4-0.33,0.73-0.74,0.94-1.2c0.21-0.46,0.3-0.97,0.34-1.49
								c0.09-1.03,0-2.12,0.42-3.14c0.43-1.03,1.35-1.66,2.18-2.15c0.84-0.5,1.68-0.94,2.29-1.58c0.61-0.64,0.97-1.47,1.06-2.29
								c0.1-0.82-0.09-1.65-0.55-2.26c-0.46-0.61-1.13-1.01-1.82-1.17c-0.69-0.16-1.39-0.05-1.93,0.27
								c-0.54,0.33-0.95,0.82-1.44,1.18c-0.48,0.37-1.1,0.53-1.61,0.4c-0.52-0.11-0.93-0.39-1.23-0.69
								c-0.59-0.61-0.82-1.24-0.98-1.64c-0.08-0.2-0.13-0.36-0.17-0.47S105.98,138.93,105.99,138.93z"/>
						</g>
					</g>
					<g>
						<g>
							<path style="fill:#263238;" d="M125.2,174.27c0,0.01-0.11,0.05-0.34,0.08c-0.23,0.03-0.57,0.04-1.01-0.05
								c-0.43-0.09-0.95-0.28-1.46-0.66c-0.52-0.37-0.93-1-1.29-1.68c-0.37-0.67-0.71-1.49-1.41-1.96
								c-0.72-0.51-1.68-0.23-2.69-0.03c-0.51,0.09-1.09,0.13-1.64-0.06c-0.55-0.18-1.04-0.54-1.4-1.01
								c-0.36-0.47-0.58-1.09-0.55-1.71c0.02-0.62,0.25-1.23,0.65-1.73c0.39-0.51,0.99-0.82,1.55-0.98c0.56-0.17,1.12-0.27,1.6-0.47
								c0.48-0.19,0.86-0.54,0.98-1c0.13-0.46,0.05-0.97-0.05-1.46c-0.1-0.49-0.24-0.98-0.26-1.49c-0.03-0.51,0.06-1,0.22-1.45
								c0.32-0.89,0.94-1.59,1.63-2c0.7-0.41,1.45-0.53,2.07-0.48c0.63,0.05,1.15,0.23,1.54,0.44c0.39,0.21,0.65,0.44,0.81,0.6
								c0.16,0.17,0.22,0.27,0.21,0.28c-0.03,0.04-0.33-0.37-1.09-0.74c-0.38-0.18-0.88-0.33-1.48-0.36
								c-0.59-0.03-1.28,0.1-1.91,0.5c-0.62,0.39-1.18,1.04-1.46,1.86c-0.14,0.41-0.22,0.86-0.19,1.31
								c0.02,0.46,0.16,0.93,0.27,1.44c0.11,0.5,0.22,1.06,0.06,1.64c-0.15,0.59-0.66,1.05-1.2,1.27c-1.07,0.44-2.31,0.43-2.99,1.34
								c-0.7,0.85-0.75,2.12-0.1,2.94c0.31,0.41,0.74,0.72,1.21,0.88c0.47,0.17,0.96,0.14,1.45,0.06c0.49-0.08,0.98-0.21,1.49-0.24
								c0.51-0.04,1.04,0.08,1.45,0.36c0.82,0.59,1.12,1.45,1.48,2.11c0.33,0.69,0.7,1.27,1.17,1.64c0.46,0.38,0.95,0.58,1.35,0.69
								C124.71,174.34,125.2,174.22,125.2,174.27z"/>
						</g>
					</g>
					<g>
						<g>
							<path style="fill:#263238;" d="M88.21,126.78c0.03-0.05,0.34,0.43,1.19,0.7c0.42,0.13,0.99,0.09,1.5-0.28
								c0.53-0.34,0.96-0.97,1.72-1.4c0.76-0.42,1.8-0.44,2.71-0.01c0.46,0.21,0.89,0.53,1.23,0.95c0.34,0.43,0.57,0.95,0.67,1.51
								c0.19,1.12-0.14,2.36-0.9,3.33c-0.79,0.99-1.96,1.5-2.98,2.16c-0.51,0.33-0.98,0.7-1.31,1.17c-0.33,0.46-0.49,1.01-0.56,1.58
								c-0.14,1.13-0.01,2.31-0.42,3.39c-0.42,1.07-1.31,1.83-2.26,2.16c-0.96,0.33-1.96,0.18-2.72-0.18
								c-0.75-0.38-1.36-0.93-1.57-1.61c-0.17-0.68-0.03-1.24-0.03-1.69c0.02-0.45-0.13-0.77-0.31-0.91
								c-0.18-0.15-0.31-0.18-0.3-0.21c0,0,0.14,0,0.35,0.14c0.22,0.12,0.43,0.5,0.42,0.97c0.03,0.46-0.08,1.03,0.09,1.62
								c0.18,0.57,0.77,1.08,1.47,1.41c0.71,0.32,1.62,0.44,2.48,0.13c0.86-0.3,1.66-1.01,2.02-1.97c0.36-0.97,0.24-2.11,0.38-3.31
								c0.07-0.6,0.25-1.23,0.63-1.76c0.37-0.53,0.89-0.94,1.42-1.28c1.06-0.68,2.19-1.18,2.89-2.06c0.7-0.88,1.01-2.01,0.84-3.02
								c-0.08-0.5-0.28-0.97-0.58-1.35c-0.3-0.38-0.69-0.67-1.1-0.86c-0.82-0.4-1.76-0.4-2.44-0.04c-0.68,0.36-1.15,0.98-1.73,1.33
								c-0.57,0.39-1.23,0.41-1.67,0.24c-0.45-0.15-0.74-0.39-0.91-0.56C88.27,126.9,88.21,126.79,88.21,126.78z"/>
						</g>
					</g>
					<g>
						<g>
							<path style="fill:#263238;" d="M137.95,127.32c0.03-0.01,0.16,0.27,0.4,0.78c0.25,0.48,0.62,1.26,1.47,1.72
								c0.41,0.22,0.95,0.33,1.45,0.13c0.51-0.19,0.93-0.66,1.44-1.11c0.49-0.47,1.23-0.84,2.01-0.82c0.77,0,1.56,0.28,2.19,0.79
								c0.64,0.51,1.04,1.28,1.15,2.03c0.13,0.76,0,1.5-0.25,2.15c-0.26,0.65-0.65,1.19-1.11,1.61c-0.46,0.41-0.98,0.68-1.44,0.88
								c-0.94,0.39-1.67,0.71-2.07,1.08c-0.41,0.37-0.55,0.66-0.58,0.63c-0.01-0.01,0.02-0.08,0.08-0.22
								c0.07-0.13,0.19-0.32,0.39-0.53c0.39-0.44,1.16-0.82,2.06-1.23c0.45-0.22,0.92-0.48,1.33-0.87c0.41-0.39,0.76-0.9,0.98-1.5
								c0.22-0.59,0.33-1.27,0.21-1.95c-0.11-0.67-0.45-1.32-1.01-1.78c-0.56-0.46-1.26-0.7-1.93-0.71
								c-0.69-0.01-1.28,0.27-1.76,0.71c-0.49,0.42-0.95,0.92-1.57,1.14c-0.62,0.24-1.26,0.07-1.71-0.19
								c-0.93-0.56-1.26-1.41-1.47-1.91C138,127.63,137.92,127.33,137.95,127.32z"/>
						</g>
					</g>
					<g>
						<g>
							<path style="fill:#263238;" d="M158.35,102.82c0.03,0.02-0.13,0.29-0.39,0.78c-0.23,0.49-0.64,1.25-0.5,2.21
								c0.07,0.46,0.3,0.96,0.76,1.24c0.46,0.29,1.08,0.35,1.75,0.49c0.67,0.11,1.41,0.48,1.86,1.12c0.46,0.62,0.71,1.42,0.67,2.23
								c-0.03,0.82-0.41,1.59-0.94,2.13c-0.53,0.55-1.21,0.89-1.88,1.08c-0.67,0.18-1.35,0.19-1.95,0.07
								c-0.61-0.13-1.13-0.38-1.57-0.63c-0.87-0.52-1.56-0.92-2.11-1.02c-0.54-0.11-0.85-0.05-0.86-0.09c0-0.01,0.07-0.04,0.22-0.06
								c0.15-0.03,0.37-0.04,0.66-0.01c0.58,0.05,1.35,0.44,2.22,0.92c0.44,0.23,0.94,0.45,1.49,0.55c0.56,0.09,1.17,0.07,1.79-0.1
								c0.61-0.18,1.22-0.5,1.69-1c0.47-0.49,0.79-1.15,0.82-1.87c0.03-0.72-0.19-1.43-0.58-1.97c-0.4-0.56-0.98-0.87-1.62-0.99
								c-0.63-0.14-1.3-0.21-1.85-0.57c-0.56-0.36-0.81-0.97-0.87-1.49c-0.11-1.08,0.38-1.85,0.65-2.32
								C158.13,103.05,158.33,102.81,158.35,102.82z"/>
						</g>
					</g>
					<g>
						<g>
							<path style="fill:#263238;" d="M133.94,140.42c-0.01,0.02-0.29-0.11-0.83-0.4l0.01,0.01c-0.44-0.15-1.09-0.08-1.88,0.12
								c-0.4,0.09-0.85,0.19-1.36,0.18c-0.51-0.02-1.05-0.21-1.52-0.56c-0.46-0.34-0.86-0.86-1.03-1.49
								c-0.18-0.63-0.1-1.34,0.21-1.96c0.3-0.63,0.88-1.17,1.57-1.41c0.67-0.26,1.39-0.34,2.01-0.62c0.39-0.18,0.7-0.47,0.84-0.84
								c0.15-0.37,0.12-0.8,0.05-1.22c-0.15-0.83-0.45-1.7-0.3-2.56c0.26-1.71,1.59-2.9,2.84-3.15c1.26-0.27,2.29,0.14,2.86,0.52
								c0.3,0.19,0.49,0.38,0.61,0.52c0.12,0.14,0.17,0.22,0.16,0.23c-0.03,0.03-0.27-0.28-0.85-0.61
								c-0.57-0.32-1.56-0.66-2.71-0.37c-1.13,0.26-2.31,1.38-2.53,2.92c-0.13,0.76,0.15,1.55,0.32,2.44
								c0.08,0.44,0.12,0.95-0.07,1.43c-0.17,0.49-0.6,0.86-1.05,1.07c-0.71,0.31-1.42,0.39-2.04,0.63
								c-0.62,0.21-1.09,0.66-1.36,1.2c-0.28,0.54-0.35,1.16-0.21,1.69c0.14,0.54,0.48,1,0.88,1.31c0.41,0.32,0.88,0.49,1.33,0.53
								c0.46,0.03,0.89-0.06,1.29-0.13c0.8-0.17,1.52-0.21,1.98-0.01l0.01,0.01l0,0C133.69,140.22,133.95,140.39,133.94,140.42z"/>
						</g>
					</g>
					<g>
						<g>
							<path style="fill:#263238;" d="M107.57,192.97c-0.01,0-0.06-0.15,0.03-0.41c0.08-0.26,0.31-0.62,0.75-0.92
								c0.44-0.29,1.1-0.43,1.82-0.46c0.72-0.05,1.56,0,2.37-0.31c0.81-0.31,1.57-1.01,1.93-1.96c0.36-0.95,0.23-2.15-0.43-3.08
								c-0.66-0.95-1.88-1.38-3.02-2.06c-0.57-0.35-1.14-0.82-1.46-1.47c-0.34-0.64-0.46-1.35-0.54-2.05
								c-0.13-1.38-0.15-2.76-0.92-3.78c-0.72-1.02-1.9-1.66-3.03-1.6c-1.13,0.06-2.11,0.82-2.54,1.73
								c-0.22,0.45-0.29,0.95-0.22,1.41c0.07,0.47,0.24,0.91,0.35,1.36c0.12,0.45,0.17,0.92,0.05,1.35c-0.12,0.43-0.39,0.76-0.69,1
								c-0.6,0.48-1.27,0.6-1.77,0.63c-0.52,0.03-0.91-0.02-1.18-0.04c-0.27-0.03-0.41-0.06-0.4-0.07c0-0.04,0.57,0.04,1.57-0.04
								c0.49-0.05,1.11-0.19,1.64-0.64c0.26-0.22,0.49-0.52,0.58-0.89c0.1-0.37,0.05-0.78-0.07-1.21c-0.12-0.43-0.3-0.88-0.38-1.39
								c-0.09-0.52-0.02-1.09,0.22-1.6c0.47-1.02,1.53-1.87,2.82-1.96c1.29-0.08,2.59,0.63,3.38,1.74c0.4,0.55,0.66,1.23,0.78,1.91
								c0.12,0.68,0.15,1.37,0.23,2.05c0.07,0.68,0.19,1.34,0.49,1.9c0.28,0.57,0.78,0.98,1.31,1.32c1.07,0.66,2.37,1.1,3.12,2.18
								c0.73,1.04,0.85,2.37,0.44,3.42c-0.41,1.05-1.26,1.79-2.15,2.12c-0.91,0.32-1.76,0.23-2.47,0.27
								c-0.71,0.01-1.32,0.12-1.75,0.37c-0.42,0.25-0.66,0.58-0.76,0.81C107.57,192.82,107.59,192.97,107.57,192.97z"/>
						</g>
					</g>
					<g>
						<g>
							<path style="fill:#263238;" d="M101.94,193.38c-0.02,0-0.08-0.22-0.04-0.62c0.01-0.4,0.23-0.97,0.19-1.62
								c-0.03-0.31-0.19-0.66-0.45-0.91c-0.26-0.26-0.65-0.43-1.08-0.54c-0.43-0.12-0.92-0.19-1.42-0.34
								c-0.51-0.14-1.02-0.41-1.44-0.78c-0.85-0.75-1.31-1.82-1.33-2.8c-0.01-0.99,0.4-1.83,0.86-2.38
								c0.47-0.56,0.99-0.87,1.36-1.03c0.37-0.15,0.6-0.17,0.6-0.15c0.04,0.07-0.89,0.25-1.73,1.35c-0.4,0.54-0.74,1.31-0.71,2.19
								c0.03,0.87,0.45,1.83,1.22,2.5c0.75,0.72,1.77,0.81,2.69,1.06c0.46,0.13,0.91,0.33,1.22,0.67c0.32,0.33,0.47,0.75,0.5,1.13
								c0.02,0.38-0.08,0.71-0.15,0.97c-0.08,0.27-0.14,0.5-0.18,0.69C101.97,193.16,101.97,193.38,101.94,193.38z"/>
						</g>
					</g>
					<g>
						<g>
							<path style="fill:#263238;" d="M84.43,159.48c0,0,0.15-0.22,0.6-0.44c0.22-0.1,0.54-0.18,0.9-0.1
								c0.36,0.08,0.73,0.31,1.04,0.68l0.01,0.01l0.01,0.02c0.31,0.72,0.62,1.68,1.45,2.32c0.41,0.31,0.95,0.53,1.5,0.42
								c0.55-0.1,1.01-0.53,1.5-0.99c0.47-0.46,1.12-0.94,1.9-1c0.76-0.08,1.56,0.12,2.23,0.56c0.67,0.43,1.2,1.15,1.39,1.98
								c0.2,0.82,0.1,1.71-0.22,2.5c-0.25,0.61-0.64,1.16-1.12,1.59c-0.48,0.43-1.01,0.75-1.53,1.05c-1.03,0.59-2.04,1.18-2.51,2.11
								c-0.47,0.93-0.39,2.01-0.47,2.98c-0.04,0.98-0.32,1.95-0.9,2.61c-0.56,0.66-1.27,1.05-1.93,1.21
								c-0.65,0.16-1.31,0.13-1.7-0.19c-0.38-0.3-0.57-0.62-0.72-0.81c-0.14-0.2-0.21-0.31-0.2-0.32s0.1,0.08,0.26,0.27
								c0.17,0.18,0.38,0.48,0.75,0.73c0.36,0.26,0.94,0.27,1.55,0.1c0.61-0.17,1.26-0.55,1.77-1.18c0.52-0.62,0.75-1.48,0.78-2.45
								c0.07-0.95-0.04-2.06,0.47-3.13c1.11-2.2,4.24-2.34,5.12-4.75c0.3-0.72,0.38-1.52,0.21-2.25c-0.17-0.73-0.62-1.35-1.21-1.74
								c-0.59-0.4-1.31-0.58-1.97-0.51c-0.68,0.05-1.22,0.43-1.7,0.89c-0.48,0.44-1,0.93-1.68,1.05c-0.67,0.11-1.29-0.16-1.74-0.51
								c-0.9-0.75-1.18-1.75-1.47-2.48l0.01,0.02c-0.25-0.33-0.59-0.56-0.9-0.64c-0.32-0.09-0.61-0.04-0.82,0.05
								C84.64,159.32,84.46,159.51,84.43,159.48z"/>
						</g>
					</g>
				</g>
			</g>
		</g>
		<g>
			<path style="fill:#B78876;" d="M154.76,91.25c0.87,0.21,1.63,0.85,1.96,1.68c1.39-1.11,3.19-1.7,4.97-1.63
				c-0.13,1.03-0.85,1.9-1.67,2.55c-0.82,0.65-1.76,1.12-2.58,1.76s-1.56,1.49-1.72,2.52"/>
		</g>
		<g>
			<g>
				<g>
					<g>
						<g>
							<g>
								<g>
									<path style="fill:#AC1E73;" d="M409.18,330.13l-0.65-6.41l12-1.3l1.05,9.37l-0.74,0.13c-3.29,0.54-16.77,2.53-19.06,2.09
										C399.24,333.53,409.18,330.13,409.18,330.13z"/>
								</g>
							</g>
						</g>
						<g>
							<g>
								<g>
									<path style="fill:#AC1E73;" d="M417.22,332.17c0.06-1.02,0.52-2.01,1.25-2.72c0.73-0.71,1.69-1.15,2.71-1.18l0.37,3.35
										L417.22,332.17z"/>
								</g>
							</g>
						</g>
					</g>
					<g>
						<g>
							<g>
								<path style="fill:#AC1E73;" d="M404.34,331.97c0,0-3.46,1.42-2.95,1.96c0.51,0.54,14.21-0.95,20.19-2.14l-0.05-0.27
									l-15.96,1.88C405.57,333.4,405.04,331.93,404.34,331.97z"/>
							</g>
						</g>
					</g>
					<g>
						<g>
							<g>
								<g>
									<path style="fill:#263238;" d="M421.72,331.5c0,0.01-0.07,0.02-0.2,0.04c-0.18,0.03-0.37,0.06-0.59,0.1
										c-0.59,0.09-1.31,0.2-2.17,0.33c-1.83,0.27-4.37,0.6-7.19,0.91c-2.81,0.31-5.37,0.53-7.21,0.67
										c-0.86,0.06-1.6,0.11-2.19,0.15c-0.22,0.01-0.42,0.02-0.6,0.03c-0.14,0-0.21,0-0.21,0c0-0.01,0.07-0.02,0.21-0.03
										c0.18-0.02,0.37-0.04,0.59-0.06c0.59-0.05,1.32-0.12,2.19-0.19c1.85-0.16,4.39-0.4,7.21-0.71
										c2.81-0.31,5.35-0.63,7.19-0.87c0.86-0.11,1.58-0.21,2.18-0.29c0.22-0.03,0.41-0.05,0.59-0.07
										C421.65,331.5,421.72,331.49,421.72,331.5z"/>
								</g>
							</g>
						</g>
					</g>
					<g>
						<g>
							<g>
								<g>
									<path style="fill:#263238;" d="M405.59,333.59c-0.04,0.01-0.13-0.51-0.52-1c-0.38-0.5-0.86-0.71-0.83-0.75
										c0-0.04,0.54,0.13,0.95,0.66C405.6,333.03,405.63,333.59,405.59,333.59z"/>
								</g>
							</g>
						</g>
					</g>
					<g>
						<g>
							<g>
								<g>
									
										<ellipse transform="matrix(0.6244 0.7811 -0.7811 0.6244 411.9615 -194.8318)" style="fill:#263238;" cx="408.57" cy="330.94" rx="0.6" ry="0.07"/>
								</g>
							</g>
						</g>
					</g>
					<g>
						<g>
							<g>
								<g>
									
										<ellipse transform="matrix(0.8116 0.5842 -0.5842 0.8116 270.1786 -176.9272)" style="fill:#263238;" cx="409.44" cy="330.49" rx="0.51" ry="0.07"/>
								</g>
							</g>
						</g>
					</g>
					<g>
						<g>
							<g>
								<g>
									
										<ellipse transform="matrix(0.9929 -0.1193 0.1193 0.9929 -36.3936 51.2193)" style="fill:#263238;" cx="409.72" cy="329.66" rx="0.63" ry="0.07"/>
								</g>
							</g>
						</g>
					</g>
					<g>
						<g>
							<g>
								<g>
									<path style="fill:#263238;" d="M410.47,328.77c0.02,0.04-0.27,0.21-0.68,0.28c-0.4,0.08-0.74,0.02-0.73-0.02
										c0-0.04,0.32-0.05,0.71-0.13C410.15,328.83,410.45,328.73,410.47,328.77z"/>
								</g>
							</g>
						</g>
					</g>
					<g>
						<g>
							<g>
								<g>
									<path style="fill:#263238;" d="M408.42,330.4c0,0.02-0.29,0.08-0.77,0.08c-0.24,0-0.53-0.03-0.84-0.09
										c-0.16-0.04-0.32-0.06-0.49-0.14c-0.08-0.04-0.17-0.1-0.22-0.22c-0.04-0.11,0-0.25,0.08-0.32c0.7-0.46,1.48-0.13,1.79,0.22
										c0.17,0.18,0.26,0.36,0.31,0.49c0.04,0.13,0.05,0.2,0.04,0.21c-0.03,0.01-0.08-0.3-0.42-0.62
										c-0.17-0.16-0.41-0.3-0.71-0.36c-0.28-0.05-0.67-0.03-0.91,0.16c-0.11,0.1-0.05,0.24,0.1,0.31c0.13,0.07,0.3,0.1,0.45,0.14
										c0.3,0.07,0.58,0.1,0.82,0.12C408.12,330.41,408.42,330.38,408.42,330.4z"/>
								</g>
							</g>
						</g>
					</g>
					<g>
						<g>
							<g>
								<g>
									<path style="fill:#263238;" d="M408.22,330.47c-0.01,0.01-0.15-0.18-0.15-0.53c0-0.17,0.04-0.38,0.15-0.59
										c0.12-0.19,0.27-0.44,0.6-0.46c0.18,0,0.29,0.2,0.28,0.33c0,0.14-0.05,0.26-0.09,0.36c-0.09,0.21-0.21,0.38-0.31,0.51
										c-0.22,0.26-0.4,0.37-0.41,0.36c-0.02-0.02,0.14-0.16,0.32-0.42c0.09-0.13,0.19-0.3,0.27-0.5
										c0.09-0.18,0.13-0.48-0.07-0.49c-0.19,0-0.37,0.22-0.47,0.38c-0.1,0.18-0.15,0.37-0.16,0.52
										C408.15,330.26,408.25,330.46,408.22,330.47z"/>
								</g>
							</g>
						</g>
					</g>
					<g>
						<g>
							<g>
								<g>
									<path style="fill:#263238;" d="M421.12,328.24c0,0.03-0.35,0-0.88,0.13c-0.53,0.12-1.25,0.42-1.85,1.01
										c-0.59,0.59-0.9,1.31-1.02,1.84c-0.13,0.53-0.11,0.88-0.13,0.88c-0.01,0-0.02-0.08-0.03-0.24c0-0.16,0.01-0.38,0.06-0.66
										c0.1-0.55,0.4-1.31,1.02-1.92c0.62-0.61,1.38-0.91,1.93-1.01c0.28-0.05,0.5-0.06,0.66-0.05
										C421.04,328.22,421.12,328.23,421.12,328.24z"/>
								</g>
							</g>
						</g>
					</g>
					<g>
						<g>
							<g>
								<g>
									
										<ellipse transform="matrix(-0.1209 -0.9927 0.9927 -0.1209 146.9021 781.7924)" style="fill:#263238;" cx="419.63" cy="325.85" rx="2.48" ry="0.07"/>
								</g>
							</g>
						</g>
					</g>
					<g>
						<g>
							<g>
								<g>
									<path style="fill:#263238;" d="M415.58,331.16c0.01,0.04-0.76,0.25-1.73,0.36c-0.97,0.12-1.77,0.09-1.77,0.05
										c0-0.04,0.79-0.08,1.75-0.2C414.8,331.27,415.58,331.12,415.58,331.16z"/>
								</g>
							</g>
						</g>
					</g>
					<g>
						<g>
							<g>
								<g>
									<path style="fill:#263238;" d="M417.94,330.9c0.03,0.03-0.05,0.17-0.11,0.36c-0.06,0.19-0.09,0.35-0.13,0.35
										c-0.04,0-0.08-0.18-0.01-0.4C417.76,331,417.91,330.88,417.94,330.9z"/>
								</g>
							</g>
						</g>
					</g>
					<g>
						<g>
							<g>
								<g>
									
										<ellipse transform="matrix(0.6212 -0.7837 0.7837 0.6212 -100.0384 452.9683)" style="fill:#263238;" cx="418.5" cy="329.96" rx="0.32" ry="0.07"/>
								</g>
							</g>
						</g>
					</g>
					<g>
						<g>
							<g>
								<g>
									<path style="fill:#263238;" d="M419.92,329.06c0,0.04-0.16,0.06-0.33,0.14c-0.17,0.08-0.29,0.19-0.32,0.17
										c-0.03-0.02,0.05-0.2,0.26-0.3C419.73,328.97,419.92,329.02,419.92,329.06z"/>
								</g>
							</g>
						</g>
					</g>
					<g>
						<g>
							<g>
								<g>
									
										<ellipse transform="matrix(0.8883 -0.4592 0.4592 0.8883 -104.0251 229.8774)" style="fill:#263238;" cx="420.62" cy="328.82" rx="0.19" ry="0.07"/>
								</g>
							</g>
						</g>
					</g>
				</g>
			</g>
			<g>
				<g>
					<g>
						<g>
							<g>
								<g>
									<path style="fill:#AC1E73;" d="M374.09,330.28l0.19-6.44l12.07,0.28l-0.18,9.42l-0.75,0.03
										c-3.33,0.11-16.96,0.31-19.17-0.42C363.79,332.35,374.09,330.28,374.09,330.28z"/>
								</g>
							</g>
						</g>
						<g>
							<g>
								<g>
									<path style="fill:#AC1E73;" d="M381.8,333.35c0.2-1,0.78-1.93,1.6-2.54c0.82-0.61,1.82-0.92,2.84-0.81l-0.08,3.37
										L381.8,333.35z"/>
								</g>
							</g>
						</g>
					</g>
					<g>
						<g>
							<g>
								<path style="fill:#AC1E73;" d="M369.05,331.47c0,0-3.62,0.95-3.18,1.55c0.43,0.6,14.21,0.92,20.3,0.52l-0.01-0.27
									l-16.07-0.23C370.09,333.05,369.76,331.51,369.05,331.47z"/>
							</g>
						</g>
					</g>
					<g>
						<g>
							<g>
								<g>
									<path style="fill:#263238;" d="M386.35,333.27c0,0-0.07,0.01-0.21,0.02c-0.18,0.01-0.38,0.01-0.6,0.02
										c-0.6,0.01-1.33,0.03-2.2,0.04c-1.85,0.03-4.42,0.02-7.24-0.04c-2.83-0.06-5.39-0.18-7.24-0.28
										c-0.86-0.06-1.6-0.1-2.19-0.14c-0.22-0.02-0.42-0.03-0.59-0.05c-0.14-0.01-0.21-0.02-0.21-0.03c0,0,0.07-0.01,0.21,0
										c0.18,0.01,0.37,0.01,0.6,0.02c0.6,0.03,1.33,0.06,2.19,0.1c1.85,0.08,4.41,0.17,7.24,0.24c2.83,0.06,5.39,0.08,7.24,0.08
										c0.87,0,1.6,0,2.2,0c0.22,0,0.42,0,0.6,0.01C386.28,333.26,386.35,333.27,386.35,333.27z"/>
								</g>
							</g>
						</g>
					</g>
					<g>
						<g>
							<g>
								<g>
									<path style="fill:#263238;" d="M370.08,333.23c-0.04,0-0.07-0.52-0.39-1.06c-0.31-0.54-0.75-0.82-0.73-0.86
										c0.01-0.04,0.52,0.2,0.85,0.78C370.17,332.68,370.12,333.24,370.08,333.23z"/>
								</g>
							</g>
						</g>
					</g>
					<g>
						<g>
							<g>
								<g>
									
										<ellipse transform="matrix(0.517 0.856 -0.856 0.517 463.6563 -159.7373)" style="fill:#263238;" cx="373.38" cy="331" rx="0.59" ry="0.07"/>
								</g>
							</g>
						</g>
					</g>
					<g>
						<g>
							<g>
								<g>
									
										<ellipse transform="matrix(0.7285 0.6851 -0.6851 0.7285 328.1587 -166.6418)" style="fill:#263238;" cx="374.31" cy="330.67" rx="0.51" ry="0.07"/>
								</g>
							</g>
						</g>
					</g>
					<g>
						<g>
							<g>
								<g>
									
										<ellipse transform="matrix(0.9999 0.0124 -0.0124 0.9999 4.1136 -4.6144)" style="fill:#263238;" cx="374.69" cy="329.88" rx="0.63" ry="0.07"/>
								</g>
							</g>
						</g>
					</g>
					<g>
						<g>
							<g>
								<g>
									<path style="fill:#263238;" d="M375.55,329.09c0.01,0.04-0.3,0.17-0.71,0.19c-0.41,0.02-0.73-0.08-0.72-0.11
										c0.01-0.04,0.33-0.01,0.71-0.03C375.22,329.11,375.54,329.05,375.55,329.09z"/>
								</g>
							</g>
						</g>
					</g>
					<g>
						<g>
							<g>
								<g>
									<path style="fill:#263238;" d="M373.3,330.45c0,0.02-0.3,0.05-0.78-0.02c-0.24-0.03-0.52-0.1-0.82-0.2
										c-0.15-0.06-0.31-0.1-0.47-0.21c-0.08-0.05-0.16-0.13-0.19-0.25c-0.03-0.12,0.04-0.25,0.12-0.31
										c0.75-0.37,1.48,0.07,1.75,0.46c0.15,0.2,0.21,0.39,0.24,0.52c0.03,0.13,0.02,0.21,0.02,0.21
										c-0.03,0.01-0.04-0.31-0.34-0.67c-0.14-0.18-0.36-0.35-0.65-0.44c-0.27-0.09-0.66-0.12-0.92,0.04
										c-0.12,0.09-0.08,0.23,0.05,0.32c0.12,0.09,0.29,0.14,0.43,0.2c0.29,0.11,0.56,0.18,0.79,0.23
										C373.01,330.41,373.3,330.42,373.3,330.45z"/>
								</g>
							</g>
						</g>
					</g>
					<g>
						<g>
							<g>
								<g>
									<path style="fill:#263238;" d="M373.1,330.48c-0.01,0.01-0.12-0.19-0.08-0.54c0.02-0.17,0.09-0.37,0.22-0.56
										c0.14-0.17,0.32-0.4,0.65-0.38c0.18,0.03,0.26,0.23,0.23,0.36c-0.02,0.14-0.08,0.25-0.14,0.34
										c-0.12,0.19-0.25,0.35-0.38,0.46c-0.25,0.23-0.44,0.32-0.45,0.3c-0.01-0.02,0.16-0.14,0.38-0.38
										c0.11-0.12,0.23-0.27,0.33-0.46c0.11-0.16,0.19-0.45,0-0.49c-0.19-0.02-0.4,0.17-0.52,0.32c-0.13,0.17-0.2,0.34-0.23,0.5
										C373.06,330.27,373.12,330.48,373.1,330.48z"/>
								</g>
							</g>
						</g>
					</g>
					<g>
						<g>
							<g>
								<g>
									<path style="fill:#263238;" d="M386.18,329.97c0,0.03-0.34-0.04-0.89,0.01c-0.54,0.05-1.3,0.25-1.96,0.76
										c-0.67,0.51-1.06,1.18-1.25,1.69c-0.2,0.51-0.22,0.86-0.25,0.86c-0.01,0-0.01-0.09,0-0.24s0.06-0.38,0.15-0.65
										c0.17-0.53,0.57-1.24,1.26-1.77c0.69-0.53,1.49-0.72,2.04-0.74c0.28-0.01,0.51,0.01,0.66,0.03
										C386.1,329.93,386.18,329.96,386.18,329.97z"/>
								</g>
							</g>
						</g>
					</g>
					<g>
						<g>
							<g>
								<g>
									
										<ellipse transform="matrix(0.01 -0.9999 0.9999 0.01 53.7713 709.103)" style="fill:#263238;" cx="385.02" cy="327.39" rx="2.48" ry="0.07"/>
								</g>
							</g>
						</g>
					</g>
					<g>
						<g>
							<g>
								<g>
									<path style="fill:#263238;" d="M380.31,332.14c0,0.04-0.79,0.15-1.77,0.13c-0.98-0.01-1.77-0.14-1.76-0.18
										c0.01-0.04,0.79,0.02,1.76,0.04C379.51,332.14,380.3,332.09,380.31,332.14z"/>
								</g>
							</g>
						</g>
					</g>
					<g>
						<g>
							<g>
								<g>
									<path style="fill:#263238;" d="M382.67,332.19c0.03,0.03-0.07,0.17-0.15,0.34c-0.09,0.18-0.13,0.34-0.17,0.33
										c-0.04,0-0.06-0.19,0.04-0.4S382.65,332.16,382.67,332.19z"/>
								</g>
							</g>
						</g>
					</g>
					<g>
						<g>
							<g>
								<g>
									
										<ellipse transform="matrix(0.7191 -0.6949 0.6949 0.7191 -122.5545 359.4361)" style="fill:#263238;" cx="383.36" cy="331.32" rx="0.32" ry="0.07"/>
								</g>
							</g>
						</g>
					</g>
					<g>
						<g>
							<g>
								<g>
									<path style="fill:#263238;" d="M384.88,330.62c-0.01,0.04-0.17,0.04-0.35,0.09c-0.18,0.05-0.31,0.15-0.34,0.12
										c-0.03-0.02,0.07-0.19,0.29-0.26C384.71,330.5,384.89,330.58,384.88,330.62z"/>
								</g>
							</g>
						</g>
					</g>
					<g>
						<g>
							<g>
								<g>
									
										<ellipse transform="matrix(0.9406 -0.3395 0.3395 0.9406 -89.2952 150.5514)" style="fill:#263238;" cx="385.61" cy="330.47" rx="0.19" ry="0.07"/>
								</g>
							</g>
						</g>
					</g>
				</g>
			</g>
			<g>
				<g>
					<path style="fill:#AC1E73;" d="M418.36,189.71c0,0,8.57,44.84,6.61,45.42c-1.96,0.57-46.51,1.03-46.51,1.03l-4.83-42.75
						l21.24-7.02L418.36,189.71z"/>
					<path style="opacity:0.4;" d="M418.36,189.71c0,0,8.57,44.84,6.61,45.42c-1.96,0.57-46.51,1.03-46.51,1.03l-4.83-42.75
						l21.24-7.02L418.36,189.71z"/>
				</g>
				<g>
					<g>
						<path style="fill:#263238;" d="M416.46,178.23l0.83,81.38l6.83,66.93h-20.65l-4.16-65.02c0,0-1.64-53.44-3.31-53.48
							c-2.81-0.05-4.94,120.03-6.02,120.26c-1.83,0.4-21.02,0-21.02,0s6.18-140.27,6.13-140.27S416.46,178.23,416.46,178.23z"/>
					</g>
					<g>
						<g>
							<path style="fill:#455A64;" d="M396.77,207.52c-0.02,0.02-0.2-0.16-0.5-0.51c-0.27-0.37-0.67-0.91-0.99-1.66
								c-0.34-0.75-0.63-1.68-0.83-2.75s-0.28-2.25-0.31-3.49c-0.02-2.48,0.08-4.7,0.13-6.32c0.06-1.62,0.13-2.61,0.19-2.61
								c0.06,0,0.09,1,0.1,2.62c0,1.73-0.01,3.9-0.01,6.3c0.03,2.45,0.38,4.65,1,6.13C396.14,206.72,396.83,207.47,396.77,207.52z"
								/>
						</g>
					</g>
					<g>
						<g>
							<path style="fill:#455A64;" d="M408.12,195.66c0.06,0,0.04,1.04,0.08,2.72c0.06,1.65,0.17,4.03,1.36,6.26
								c0.59,1.1,1.4,2.02,2.3,2.61c0.9,0.59,1.86,0.86,2.68,0.93c1.66,0.13,2.58-0.53,2.61-0.44c0.01,0.02-0.19,0.19-0.63,0.38
								c-0.44,0.19-1.13,0.37-1.99,0.34c-0.86-0.03-1.89-0.29-2.86-0.9c-0.98-0.61-1.83-1.58-2.45-2.73
								c-1.24-2.34-1.3-4.79-1.29-6.45c0.02-0.84,0.06-1.52,0.11-1.99S408.1,195.66,408.12,195.66z"/>
						</g>
					</g>
					<g>
						<g>
							<path style="fill:#455A64;" d="M373.62,208.59c0.02-0.03,0.2,0.15,0.59,0.34c0.38,0.19,0.99,0.38,1.76,0.33
								c0.76-0.04,1.64-0.37,2.44-1c0.8-0.62,1.55-1.49,2.21-2.48c1.33-1.98,1.95-4.1,2.19-5.63c0.23-1.55,0.16-2.53,0.24-2.53
								c0.03,0,0.07,0.24,0.1,0.68c0.02,0.44,0.04,1.09-0.05,1.89c-0.17,1.58-0.76,3.78-2.13,5.82c-0.68,1.01-1.46,1.91-2.33,2.55
								c-0.86,0.65-1.83,0.99-2.65,0.99c-0.83,0.02-1.47-0.24-1.85-0.48C373.75,208.82,373.61,208.61,373.62,208.59z"/>
						</g>
					</g>
					<g>
						<g>
							<path style="fill:#455A64;" d="M413.44,257.19c0.02,0.05-0.58,0.34-1.59,0.71c-1,0.38-2.42,0.83-4,1.21
								c-1.59,0.39-3.05,0.63-4.12,0.76c-1.06,0.13-1.73,0.15-1.73,0.1c-0.01-0.12,2.6-0.48,5.75-1.26
								C410.9,257.95,413.39,257.08,413.44,257.19z"/>
						</g>
					</g>
					<g>
						<g>
							
								<ellipse transform="matrix(0.9989 -0.0478 0.0478 0.9989 -11.7841 19.7822)" style="fill:#455A64;" cx="408.04" cy="256.47" rx="3.85" ry="0.2"/>
						</g>
					</g>
					<g>
						<g>
							
								<ellipse transform="matrix(0.9758 -0.2186 0.2186 0.9758 -49.0461 89.8961)" style="fill:#455A64;" cx="381.66" cy="266.55" rx="5.07" ry="0.21"/>
						</g>
					</g>
					<g>
						<g>
							
								<ellipse transform="matrix(0.9993 0.0377 -0.0377 0.9993 10.186 -14.1828)" style="fill:#455A64;" cx="381.27" cy="263.08" rx="4.59" ry="0.21"/>
						</g>
					</g>
				</g>
				<g>
					<path style="fill:#AC1E73;" d="M404.96,126.05l6.54,0.01c0,0,6.48,0.14,10.74,6.14c2.99,4.21,3.49,9.71,1.65,14.54l-0.68,1.78
						l-6.39,15.03c-0.49,1.99,0,6.08,0,21.76l-41.72,2.71l1.81-26.23l0.69-7.58l0.33-9.49c0,0-7.66-5.15-13.81-12.89l12.4-12.37
						c0,0,9.19,8.08,11.63,7.84C390.6,127.09,404.96,126.05,404.96,126.05z"/>
				</g>
				<g>
					<g>
						<g>
							<g>
								<path style="fill:#FFBE9D;" d="M404.28,127.15l-12.83,0.95c-0.17-1.48-0.42-7.25-0.42-7.25s-5.36-0.5-5.75-5.8
									c-0.39-5.3-0.22-17.55-0.22-17.55l0,0c5.98-3.02,13.13-2.57,18.68,1.19l0.82,0.56L404.28,127.15z"/>
							</g>
							<g>
								<g>
									<circle style="fill:#263238;" cx="386.27" cy="106" r="0.77"/>
								</g>
								<g>
									<g>
										<path style="fill:#263238;" d="M385.46,105.41c0.09,0.09,0.59-0.35,1.32-0.39c0.73-0.06,1.29,0.3,1.36,0.2
											c0.04-0.04-0.06-0.21-0.3-0.37c-0.24-0.16-0.64-0.31-1.09-0.27c-0.46,0.03-0.83,0.24-1.04,0.43
											C385.49,105.19,385.42,105.37,385.46,105.41z"/>
									</g>
								</g>
							</g>
							<g>
								<g>
									<circle style="fill:#263238;" cx="394.37" cy="106.16" r="0.77"/>
								</g>
								<g>
									<g>
										<path style="fill:#263238;" d="M393.45,105.56c0.09,0.09,0.58-0.35,1.32-0.39c0.73-0.06,1.28,0.3,1.36,0.2
											c0.04-0.04-0.06-0.21-0.3-0.37c-0.24-0.16-0.64-0.31-1.09-0.27c-0.46,0.03-0.83,0.24-1.04,0.43
											C393.47,105.35,393.4,105.52,393.45,105.56z"/>
									</g>
								</g>
							</g>
							<g>
								<g>
									<path style="fill:#263238;" d="M390.89,111.77c0,0.06-0.46,0.1-1.21,0.11c-0.09,0-0.2,0.01-0.33-0.02
										c-0.13-0.03-0.28-0.13-0.35-0.28c-0.12-0.31,0-0.57,0.06-0.8c0.15-0.5,0.3-1,0.46-1.53c0.67-2.17,1.3-3.89,1.41-3.86
										c0.11,0.03-0.35,1.82-1.01,3.98c-0.17,0.53-0.33,1.03-0.49,1.52c-0.08,0.23-0.14,0.44-0.1,0.56
										c0.02,0.1,0.18,0.14,0.37,0.15C390.43,111.65,390.89,111.72,390.89,111.77z"/>
								</g>
							</g>
							<g>
								<path style="fill:#FFFFFF;" d="M393.31,112.43c0.73-0.5-2.03,1.24-3.52,1.26c0,0,0.94,1.31,2.43,0.66
									C393.78,113.67,393.31,112.43,393.31,112.43z"/>
							</g>
							<g>
								<path style="fill:#EB996E;" d="M391.01,120.77c0,0,3.37,0.07,6.8-2.39c0,0-1.4,3.92-6.73,3.77L391.01,120.77z"/>
							</g>
						</g>
					</g>
					<g>
						<g>
							<path style="fill:#FFBE9D;" d="M403.36,105.11c0.12-0.04,3.94-0.54,3.58,3.97c-0.36,4.51-4.8,2.66-4.8,2.53
								C402.14,111.48,403.36,105.11,403.36,105.11z"/>
						</g>
						<g>
							<g>
								<path style="fill:#EB996E;" d="M403.65,110.13c0.02-0.01,0.07,0.06,0.2,0.13c0.12,0.07,0.34,0.13,0.59,0.06
									c0.49-0.14,0.95-0.86,1.04-1.67c0.04-0.41-0.01-0.81-0.13-1.14c-0.11-0.34-0.31-0.59-0.54-0.65
									c-0.24-0.07-0.42,0.06-0.48,0.18c-0.07,0.12-0.05,0.21-0.07,0.22c-0.01,0.01-0.09-0.08-0.04-0.27
									c0.03-0.09,0.09-0.19,0.2-0.27c0.12-0.08,0.28-0.11,0.44-0.08c0.35,0.05,0.63,0.4,0.77,0.77c0.15,0.37,0.22,0.82,0.17,1.28
									c-0.1,0.91-0.64,1.72-1.3,1.86c-0.32,0.06-0.58-0.06-0.71-0.18C403.64,110.24,403.63,110.14,403.65,110.13z"/>
							</g>
						</g>
					</g>
					<g>
						<g>
							<g>
								<path style="fill:#E8505B;" d="M385.46,97.81c-1.31-0.32-2.24-1.69-2.19-3.04c0.05-1.35,0.98-2.59,2.21-3.15
									c1.23-0.56,2.7-0.48,3.93,0.06c0.37-1.96,2.29-3.51,4.29-3.45c2,0.06,3.83,1.7,4.09,3.68c0.13-1.02,1.29-1.6,2.32-1.66
									c1.03-0.06,2.13,0.24,2.8,1.03c0.67,0.78,0.74,2.1-0.03,2.8c1.15-0.13,2.36,0.11,3.29,0.79c0.93,0.68,1.55,1.83,1.46,2.98
									c-0.09,1.15-0.94,2.24-2.07,2.48c-0.39,0.08-0.86,0.1-1.07,0.44c-0.12,0.19-0.11,0.42-0.11,0.64
									c0.04,1.27,0.07,2.55,0.11,3.82c-0.67-0.34-1.53,0.15-1.85,0.83s-0.27,1.47-0.21,2.22c-0.33,0.49-1.15,0.35-1.51-0.12
									c-0.36-0.47-0.38-1.11-0.39-1.7c-0.03-2.05-0.05-4.09-0.08-6.14c-0.6,0.33-1.38,0.33-1.98,0c-0.6-0.33-1.01-0.99-1.05-1.68
									c-0.86,0.83-2.11,1.25-3.3,1.1c-1.19-0.15-2.3-0.85-2.94-1.86c-0.63,0.5-1.28,1.01-2.01,1.34s-1.6,0.47-2.36,0.2
									c-0.76-0.26-1.39-0.99-1.38-1.8c0.09-0.08,0.18-0.15,0.27-0.23"/>
							</g>
							<g>
								<g>
									<path style="fill:#E8505B;" d="M382.95,98.51c-0.02,0,0.05-0.18,0.33-0.2c0.13-0.01,0.31,0.03,0.46,0.17
										c0.16,0.14,0.23,0.39,0.18,0.64c-0.05,0.24-0.23,0.5-0.5,0.62c-0.27,0.13-0.59,0.13-0.9,0.03c-0.6-0.19-1.12-0.85-1.05-1.6
										c0.07-0.74,0.62-1.3,1.19-1.5c0.57-0.21,1.13-0.16,1.55-0.02c0.84,0.3,1.18,0.74,1.15,0.77c-0.04,0.06-0.45-0.29-1.22-0.49
										c-0.38-0.09-0.87-0.1-1.33,0.09c-0.46,0.18-0.86,0.63-0.92,1.19c-0.06,0.54,0.32,1.05,0.76,1.2
										c0.45,0.18,0.91-0.03,0.99-0.37c0.11-0.34-0.16-0.56-0.36-0.58C383.07,98.44,382.97,98.54,382.95,98.51z"/>
								</g>
							</g>
							<g>
								<g>
									<path style="fill:#E8505B;" d="M404.32,97.31c-0.04-0.05,0.33-0.34,0.81-0.86c0.24-0.27,0.49-0.61,0.63-1.03
										c0.15-0.42,0.17-0.94-0.09-1.36c-0.25-0.43-0.7-0.64-1.13-0.57c-0.43,0.06-0.83,0.25-1.14,0.42
										c-0.62,0.36-0.92,0.71-0.97,0.67c-0.04-0.03,0.19-0.46,0.81-0.91c0.31-0.22,0.71-0.45,1.24-0.55
										c0.26-0.05,0.58-0.03,0.86,0.1c0.28,0.13,0.52,0.36,0.68,0.63c0.34,0.56,0.28,1.22,0.09,1.7
										c-0.19,0.49-0.51,0.85-0.78,1.11C404.77,97.16,404.35,97.35,404.32,97.31z"/>
								</g>
							</g>
							<g>
								<g>
									<path style="fill:#E8505B;" d="M394.16,91.84c-0.04-0.02,0.11-0.48,0.51-1.16c0.2-0.33,0.48-0.73,0.9-1.07
										c0.42-0.35,0.99-0.61,1.64-0.62c0.64-0.03,1.29,0.29,1.6,0.76c0.33,0.47,0.41,0.98,0.4,1.38
										c-0.04,0.81-0.27,1.25-0.31,1.24c-0.07-0.01,0.06-0.49,0.02-1.23c-0.03-0.36-0.13-0.8-0.41-1.16
										c-0.27-0.37-0.75-0.6-1.29-0.58c-1.12,0.02-1.88,0.86-2.31,1.45C394.47,91.46,394.22,91.87,394.16,91.84z"/>
								</g>
							</g>
						</g>
						<g style="opacity:0.4;">
							<g>
								<path d="M385.46,97.81c-1.31-0.32-2.24-1.69-2.19-3.04c0.05-1.35,0.98-2.59,2.21-3.15c1.23-0.56,2.7-0.48,3.93,0.06
									c0.37-1.96,2.29-3.51,4.29-3.45c2,0.06,3.83,1.7,4.09,3.68c0.13-1.02,1.29-1.6,2.32-1.66c1.03-0.06,2.13,0.24,2.8,1.03
									c0.67,0.78,0.74,2.1-0.03,2.8c1.15-0.13,2.36,0.11,3.29,0.79c0.93,0.68,1.55,1.83,1.46,2.98c-0.09,1.15-0.94,2.24-2.07,2.48
									c-0.39,0.08-0.86,0.1-1.07,0.44c-0.12,0.19-0.11,0.42-0.11,0.64c0.04,1.27,0.07,2.55,0.11,3.82
									c-0.67-0.34-1.53,0.15-1.85,0.83s-0.27,1.47-0.21,2.22c-0.33,0.49-1.15,0.35-1.51-0.12c-0.36-0.47-0.38-1.11-0.39-1.7
									c-0.03-2.05-0.05-4.09-0.08-6.14c-0.6,0.33-1.38,0.33-1.98,0c-0.6-0.33-1.01-0.99-1.05-1.68c-0.86,0.83-2.11,1.25-3.3,1.1
									c-1.19-0.15-2.3-0.85-2.94-1.86c-0.63,0.5-1.28,1.01-2.01,1.34s-1.6,0.47-2.36,0.2c-0.76-0.26-1.39-0.99-1.38-1.8
									c0.09-0.08,0.18-0.15,0.27-0.23"/>
							</g>
							<g>
								<g>
									<path d="M382.95,98.51c-0.02,0,0.05-0.18,0.33-0.2c0.13-0.01,0.31,0.03,0.46,0.17c0.16,0.14,0.23,0.39,0.18,0.64
										c-0.05,0.24-0.23,0.5-0.5,0.62c-0.27,0.13-0.59,0.13-0.9,0.03c-0.6-0.19-1.12-0.85-1.05-1.6c0.07-0.74,0.62-1.3,1.19-1.5
										c0.57-0.21,1.13-0.16,1.55-0.02c0.84,0.3,1.18,0.74,1.15,0.77c-0.04,0.06-0.45-0.29-1.22-0.49
										c-0.38-0.09-0.87-0.1-1.33,0.09c-0.46,0.18-0.86,0.63-0.92,1.19c-0.06,0.54,0.32,1.05,0.76,1.2
										c0.45,0.18,0.91-0.03,0.99-0.37c0.11-0.34-0.16-0.56-0.36-0.58C383.07,98.44,382.97,98.54,382.95,98.51z"/>
								</g>
							</g>
							<g>
								<g>
									<path d="M404.32,97.31c-0.04-0.05,0.33-0.34,0.81-0.86c0.24-0.27,0.49-0.61,0.63-1.03c0.15-0.42,0.17-0.94-0.09-1.36
										c-0.25-0.43-0.7-0.64-1.13-0.57c-0.43,0.06-0.83,0.25-1.14,0.42c-0.62,0.36-0.92,0.71-0.97,0.67
										c-0.04-0.03,0.19-0.46,0.81-0.91c0.31-0.22,0.71-0.45,1.24-0.55c0.26-0.05,0.58-0.03,0.86,0.1
										c0.28,0.13,0.52,0.36,0.68,0.63c0.34,0.56,0.28,1.22,0.09,1.7c-0.19,0.49-0.51,0.85-0.78,1.11
										C404.77,97.16,404.35,97.35,404.32,97.31z"/>
								</g>
							</g>
							<g>
								<g>
									<path d="M394.16,91.84c-0.04-0.02,0.11-0.48,0.51-1.16c0.2-0.33,0.48-0.73,0.9-1.07c0.42-0.35,0.99-0.61,1.64-0.62
										c0.64-0.03,1.29,0.29,1.6,0.76c0.33,0.47,0.41,0.98,0.4,1.38c-0.04,0.81-0.27,1.25-0.31,1.24
										c-0.07-0.01,0.06-0.49,0.02-1.23c-0.03-0.36-0.13-0.8-0.41-1.16c-0.27-0.37-0.75-0.6-1.29-0.58
										c-1.12,0.02-1.88,0.86-2.31,1.45C394.47,91.46,394.22,91.87,394.16,91.84z"/>
								</g>
							</g>
						</g>
					</g>
				</g>
				<g>
					<path style="fill:#FFBE9D;" d="M408.41,144.45c0,0-8.09,14.58-11.12,17.12c-3.04,2.54-25.68-3.04-25.68-3.04l0,0l-0.37-0.62
						c0,0-1.06-1.28-2.4-3.88c-0.35-0.67-0.58-1.41-0.68-2.16c-0.13-0.91-0.26-2.13-0.12-2.82c0.16-0.85-0.77-1.48-1.34-0.95
						c-0.57,0.53-1.08,2.87-0.44,5.6c0.64,2.73-2.78,0.03-4.04-0.94s-5.31-3.75-5.9-3.59c-0.87,0.24-0.77,1.24,0.51,2.17
						c1.3,0.94,4.94,4,4.42,4.66c-0.51,0.65-6.88-4.34-6.88-4.34s-1.2-1.29-1.82-0.55c-1.13,1.33,6.01,6.12,6.71,6.56
						c0.48,0.31-0.06,1.04-0.56,0.68c-0.51-0.37-6.24-5.13-7.41-3.79c-0.9,1.03,5.84,4,6.5,5.66c0.66,1.66-4.89-2.78-5.71-1.77
						c-0.3,0.38-0.48,0.71,3.06,2.79c2.53,1.49,8.51,3.96,11.91,5.31c3.08,1.52,14.39,6.96,23.69,9.31
						c7.17,1.81,14.71,0.57,18.88-5.54l12.86-20.42L408.41,144.45z"/>
				</g>
				<g>
					<g>
						<g>
							<polygon style="fill:#AC1E73;" points="373.62,193.41 395.55,188.04 395.55,185.63 374.86,183.96 							"/>
							<polygon style="opacity:0.4;" points="373.62,193.41 395.55,188.04 395.55,185.63 374.86,183.96 							"/>
						</g>
						<g>
							<path style="fill:#AC1E73;" d="M417.35,182.42c-1.49,0.48-21.8,3.21-21.8,3.21v2.41l23.31,4.36L417.35,182.42z"/>
							<path style="opacity:0.4;" d="M417.35,182.42c-1.49,0.48-21.8,3.21-21.8,3.21v2.41l23.31,4.36L417.35,182.42z"/>
						</g>
						<g>
							<g>
								<path style="fill:#263238;" d="M391.48,189.24c-0.04,0.02-0.23-0.25-0.3-0.77c-0.08-0.51,0.01-1.28,0.48-1.95
									c0.48-0.67,1.17-1.01,1.68-1.1c0.51-0.1,0.83-0.02,0.83,0.03c0,0.06-0.31,0.08-0.75,0.25c-0.44,0.16-1.02,0.49-1.42,1.06
									c-0.4,0.57-0.53,1.23-0.53,1.69C391.46,188.92,391.54,189.22,391.48,189.24z"/>
							</g>
						</g>
						<g>
							<g>
								<path style="fill:#263238;" d="M392.17,186.35c-0.02-0.05,0.21-0.19,0.62-0.29c0.41-0.1,1.05-0.15,1.68,0.15
									c0.64,0.28,1,0.91,1.03,1.35c0.05,0.46-0.13,0.71-0.17,0.69c-0.06-0.02-0.01-0.27-0.12-0.63c-0.1-0.36-0.4-0.8-0.92-1.04
									c-0.52-0.25-1.07-0.25-1.46-0.23C392.45,186.36,392.19,186.4,392.17,186.35z"/>
							</g>
						</g>
						<g>
							<g>
								<path style="fill:#263238;" d="M395.77,185.75c0.1-0.05,0.44,0.53,0.31,1.32c-0.12,0.79-0.63,1.24-0.71,1.16
									c-0.09-0.08,0.2-0.56,0.3-1.22C395.79,186.34,395.66,185.79,395.77,185.75z"/>
							</g>
						</g>
						<g>
							<g>
								
									<ellipse transform="matrix(-0.9913 0.1314 -0.1314 -0.9913 789.5607 324.5446)" style="fill:#263238;" cx="384.07" cy="188.32" rx="7.3" ry="0.21"/>
							</g>
						</g>
						<g>
							<g>
								
									<ellipse transform="matrix(0.9917 -0.1288 0.1288 0.9917 -20.6142 53.5106)" style="fill:#263238;" cx="403.5" cy="186.17" rx="7.53" ry="0.2"/>
							</g>
						</g>
						<g>
							<g>
								<path style="fill:#263238;" d="M408.61,187.23c0,0.06-0.7,0.06-1.83,0.05c-1.28-0.01-2.77-0.02-4.4-0.04
									c-1.64,0.01-3.12,0.02-4.41,0.02c-1.13,0.01-1.83,0-1.83-0.06c0-0.06,0.69-0.15,1.82-0.23s2.69-0.15,4.42-0.14
									c1.73,0,3.29,0.07,4.42,0.16C407.92,187.08,408.61,187.18,408.61,187.23z"/>
							</g>
						</g>
					</g>
					<g>
						<g>
							<path style="fill:#AC1E73;" d="M392.26,186.85c0,0-6.09,15.64-6.64,31.15v4.71l8.67,0.38c0,0-1.29-24.23,1.27-35.04
								L392.26,186.85z"/>
							<path style="opacity:0.4;" d="M392.26,186.85c0,0-6.09,15.64-6.64,31.15v4.71l8.67,0.38c0,0-1.29-24.23,1.27-35.04
								L392.26,186.85z"/>
						</g>
						<g>
							<g>
								<path style="fill:#263238;" d="M394.06,221.02c-0.01,0.12-1.92,0.06-4.26,0.02c-2.35-0.04-4.25-0.05-4.26-0.16
									c-0.01-0.11,1.9-0.29,4.27-0.25C392.17,220.67,394.07,220.91,394.06,221.02z"/>
							</g>
						</g>
						<g>
							<g>
								<path style="fill:#263238;" d="M387.97,222.8c-0.11,0.03-0.3-0.41-0.36-0.98c-0.05-0.57,0.06-1.04,0.17-1.03
									c0.11,0,0.19,0.45,0.24,0.99C388.08,222.32,388.09,222.77,387.97,222.8z"/>
							</g>
						</g>
						<g>
							<g>
								<path style="fill:#263238;" d="M391.6,222.98c-0.1,0.04-0.34-0.39-0.4-0.98c-0.06-0.59,0.09-1.05,0.2-1.04
									c0.11,0.01,0.15,0.46,0.21,1C391.66,222.49,391.71,222.94,391.6,222.98z"/>
							</g>
						</g>
						<g>
							<g>
								<path style="fill:#263238;" d="M390.2,202c-0.05-0.01,0.01-0.92,0.21-2.39s0.56-3.48,1.1-5.67
									c0.54-2.19,1.16-4.14,1.66-5.54s0.88-2.23,0.92-2.21c0.06,0.02-0.22,0.89-0.65,2.3s-1,3.36-1.54,5.54
									c-0.54,2.18-0.94,4.17-1.22,5.62C390.42,201.11,390.26,202.01,390.2,202z"/>
							</g>
						</g>
					</g>
				</g>
			</g>
		</g>
	</g>
</g>
</svg>
