<?xml version="1.0" encoding="utf-8"?>
<!-- Generator: Adobe Illustrator 16.0.0, SVG Export Plug-In . SVG Version: 6.00 Build 0)  -->
<!DOCTYPE svg PUBLIC "-//W3C//DTD SVG 1.1//EN" "http://www.w3.org/Graphics/SVG/1.1/DTD/svg11.dtd">
<svg version="1.1" xmlns="http://www.w3.org/2000/svg" xmlns:xlink="http://www.w3.org/1999/xlink" x="0px" y="0px" width="540px"
	 height="360px" viewBox="0 0 540 360" enable-background="new 0 0 540 360" xml:space="preserve">
<g id="Background_Complete">
	<g>
		<polygon fill="#E0E0E0" points="235.942,263.103 222.008,323.606 228.196,323.606 242.299,263.103 		"/>
		<polygon fill="#E0E0E0" points="261.611,263.103 275.516,323.606 281.169,323.606 267.724,263.103 		"/>
		<polygon fill="#E0E0E0" points="226.445,217.217 234.457,259.279 243.562,259.279 235.003,217.217 		"/>
		<polygon fill="#E0E0E0" points="86.901,263.103 75.425,323.864 81.268,323.864 93.258,263.103 		"/>
		<polygon fill="#E0E0E0" points="111.035,263.103 124.157,323.864 129.93,323.864 117.26,263.103 		"/>
		<polygon fill="#E0E0E0" points="77.404,217.217 85.416,259.279 94.521,259.279 85.963,217.217 		"/>
		<polygon fill="#EBEBEB" points="59.377,213.393 61.016,221.04 243.833,221.04 241.698,213.393 		"/>
		<polygon fill="#EBEBEB" points="62.872,228.245 64.801,235.892 246.381,235.892 244.73,228.245 		"/>
		<polygon fill="#EBEBEB" points="66.479,243.619 68.277,251.267 249.295,251.267 247.584,243.619 		"/>
		<rect x="80.317" y="259.279" fill="#EBEBEB" width="195.198" height="7.647"/>
	</g>
	<g>
		<path fill="#EBEBEB" d="M80.317,102.887h45.645c0,0-4.037-7.345-15.785-6.276c-11.222,1.021-11.792-3.613-17.498-4.184
			C86.974,91.856,82.22,96.23,80.317,102.887z"/>
	</g>
	<g>
		<path fill="#E0E0E0" d="M162.309,72.448h104.566c0,0-9.247-16.827-36.163-14.377c-25.705,2.339-27.013-8.278-40.083-9.585
			C177.558,47.178,166.665,57.199,162.309,72.448z"/>
	</g>
	<g>
		<rect x="353.666" y="72.736" fill="#F5F5F5" width="79.239" height="251.128"/>
		<rect x="393.286" y="72.736" fill="#EBEBEB" width="39.619" height="250.437"/>
		<rect x="362.714" y="48.082" fill="#F5F5F5" width="27.981" height="24.654"/>
		<rect x="384.026" y="48.082" fill="#EBEBEB" width="6.669" height="24.654"/>
		<polyline fill="#E0E0E0" points="347.062,72.736 347.062,71.298 435.225,71.298 435.225,72.736 		"/>
		<rect x="369.308" y="83.489" fill="#FAFAFA" width="6.707" height="14.143"/>
		<g>
			<ellipse fill="#E0E0E0" cx="373.476" cy="103.182" rx="19.81" ry="0.27"/>
		</g>
		<g>
			<rect x="409.272" y="83.489" fill="#E0E0E0" width="6.707" height="14.143"/>
			<g>
				<ellipse fill="#E0E0E0" cx="413.44" cy="103.182" rx="19.811" ry="0.27"/>
			</g>
		</g>
		<g>
			<rect x="409.272" y="111.568" fill="#E0E0E0" width="6.707" height="14.143"/>
			<g>
				<ellipse fill="#E0E0E0" cx="413.44" cy="131.261" rx="19.811" ry="0.271"/>
			</g>
		</g>
		<g>
			<rect x="409.272" y="140.495" fill="#E0E0E0" width="6.707" height="14.143"/>
			<g>
				<ellipse fill="#E0E0E0" cx="413.44" cy="160.188" rx="19.811" ry="0.27"/>
			</g>
		</g>
		<g>
			<rect x="409.272" y="169.421" fill="#E0E0E0" width="6.707" height="14.142"/>
			<g>
				<ellipse fill="#E0E0E0" cx="413.44" cy="189.114" rx="19.811" ry="0.271"/>
			</g>
		</g>
		<g>
			<rect x="409.272" y="197.52" fill="#E0E0E0" width="6.707" height="14.143"/>
			<g>
				<ellipse fill="#E0E0E0" cx="413.44" cy="217.213" rx="19.811" ry="0.271"/>
			</g>
		</g>
		<g>
			<rect x="409.272" y="225.733" fill="#E0E0E0" width="6.707" height="14.143"/>
			<rect x="409.272" y="254.314" fill="#E0E0E0" width="6.707" height="14.144"/>
			<g>
				<ellipse fill="#E0E0E0" cx="413.44" cy="245.425" rx="19.811" ry="0.271"/>
			</g>
		</g>
		<rect x="369.308" y="111.997" fill="#FAFAFA" width="6.707" height="14.143"/>
		<g>
			<ellipse fill="#E0E0E0" cx="373.476" cy="131.69" rx="19.81" ry="0.27"/>
		</g>
		<rect x="369.308" y="140.504" fill="#FAFAFA" width="6.707" height="14.143"/>
		<g>
			<ellipse fill="#E0E0E0" cx="373.476" cy="160.198" rx="19.81" ry="0.27"/>
		</g>
		<rect x="369.308" y="169.012" fill="#FAFAFA" width="6.707" height="14.143"/>
		<g>
			<ellipse fill="#E0E0E0" cx="373.476" cy="188.706" rx="19.81" ry="0.27"/>
		</g>
		<rect x="369.308" y="197.52" fill="#FAFAFA" width="6.707" height="14.143"/>
		<g>
			<ellipse fill="#E0E0E0" cx="373.476" cy="217.213" rx="19.81" ry="0.271"/>
		</g>
		<rect x="369.308" y="226.028" fill="#FAFAFA" width="6.707" height="14.143"/>
		<g>
			<ellipse fill="#E0E0E0" cx="373.476" cy="245.721" rx="19.81" ry="0.27"/>
		</g>
		<g>
			<rect x="369.308" y="254.536" fill="#FAFAFA" width="6.707" height="14.143"/>
		</g>
	</g>
	<g>
		<g>
			<rect x="439.098" y="213.978" fill="#E0E0E0" width="58.257" height="110.562"/>
			<rect x="470.039" y="213.978" fill="#EBEBEB" width="27.315" height="110.562"/>
		</g>
		<g>
			<rect x="451.312" y="224.381" fill="#F5F5F5" width="5.238" height="12.727"/>
			<rect x="451.312" y="274.189" fill="#F5F5F5" width="5.238" height="12.727"/>
			<g>
				<ellipse fill="#F5F5F5" cx="454.568" cy="242.102" rx="15.471" ry="0.198"/>
			</g>
		</g>
		<g>
			<rect x="451.312" y="249.474" fill="#F5F5F5" width="5.238" height="12.726"/>
			<g>
				<ellipse fill="#F5F5F5" cx="454.568" cy="267.195" rx="15.471" ry="0.198"/>
			</g>
		</g>
		<rect x="475.84" y="224.381" fill="#E0E0E0" width="5.237" height="12.727"/>
		<rect x="487.203" y="224.381" fill="#E0E0E0" width="5.238" height="12.727"/>
		<rect x="475.84" y="248.53" fill="#E0E0E0" width="5.237" height="12.726"/>
		<rect x="487.203" y="248.53" fill="#E0E0E0" width="5.238" height="12.726"/>
		<rect x="475.84" y="272.677" fill="#E0E0E0" width="5.237" height="12.727"/>
		<rect x="487.203" y="272.677" fill="#E0E0E0" width="5.238" height="12.727"/>
		<rect x="434.719" y="211.304" fill="#E0E0E0" width="67.015" height="2.771"/>
		<g>
			<path fill="#EBEBEB" d="M497.761,214.335c0,0.109-13.021,0.198-29.078,0.198c-16.064,0-29.083-0.089-29.083-0.198
				c0-0.11,13.019-0.198,29.083-0.198C484.74,214.137,497.761,214.225,497.761,214.335z"/>
		</g>
	</g>
</g>
<g id="Background_Simple" display="none">
</g>
<g id="Floor">
	<g>
		<path fill="#263238" d="M496.047,323.909c0,0.104-98.559,0.187-220.109,0.187c-121.593,0-220.131-0.083-220.131-0.187
			s98.538-0.187,220.131-0.187C397.488,323.722,496.047,323.805,496.047,323.909z"/>
	</g>
</g>
<g id="Mailbox">
	<g>
		<rect x="345.317" y="310.667" fill="#263238" width="9.196" height="13.241"/>
		<path fill="#455A64" d="M296.531,310.498c0,0,83.238,0.383,83.238,0s0-129.804,0-129.804h-61.005
			c-13.111,0-23.695,10.715-23.534,23.825L296.531,310.498z"/>
		<path fill="#263238" d="M398.119,310.667h-34.296V196.839c0-8.917,7.229-16.146,16.146-16.146h2.004
			c8.918,0,16.146,7.229,16.146,16.146V310.667z"/>
		<rect x="309.044" y="213.438" fill="#263238" width="43.461" height="15.619"/>
		<rect x="296.521" y="309.035" fill="#455A64" width="9.195" height="14.874"/>
		<rect x="354.174" y="310.667" fill="#455A64" width="9.196" height="13.241"/>
		<rect x="387.53" y="310.667" fill="#263238" width="9.196" height="13.241"/>
		<g>
			<path fill="#263238" d="M326.197,180.694c0,0-0.227,0.02-0.669,0.04c-0.441,0.034-1.104,0.014-1.962,0.134
				c-1.712,0.167-4.28,0.586-7.28,1.979c-1.48,0.724-3.047,1.71-4.549,3.049c-1.508,1.331-2.907,3.043-4.144,5.045
				c-1.22,2.014-2.238,4.348-2.895,6.947c-0.681,2.596-0.935,5.438-0.86,8.429c0.017,23.962,0.038,57.376,0.062,95.222l-0.185-0.185
				c7.301,0,14.965-0.001,22.762-0.002c10.394,0.001,20.552,0.002,30.345,0.004l-0.184,0.183
				c0.025-35.949,0.048-67.471,0.064-90.015c0.022-5.637-0.016-10.703,0.058-15.151c0.286-4.438,1.343-8.215,2.966-10.885
				c0.807-1.334,1.768-2.363,2.723-3.082c0.957-0.723,1.908-1.112,2.686-1.343c0.196-0.055,0.381-0.106,0.553-0.154
				c0.176-0.03,0.34-0.059,0.493-0.085c0.303-0.062,0.56-0.089,0.768-0.095c0.414-0.028,0.626-0.034,0.626-0.034
				s-0.211,0.028-0.623,0.067c-0.207,0.011-0.463,0.045-0.763,0.111c-0.15,0.029-0.313,0.06-0.487,0.093
				c-0.172,0.05-0.354,0.104-0.547,0.161c-0.768,0.239-1.705,0.636-2.646,1.358c-0.938,0.72-1.88,1.743-2.671,3.07
				c-1.59,2.653-2.624,6.415-2.89,10.827c-0.055,4.428,0,9.51-0.006,15.142c0.016,22.544,0.038,54.065,0.064,90.015v0.184h-0.184
				c-9.793,0.001-19.951,0.002-30.345,0.004c-7.797-0.001-15.461-0.002-22.762-0.002h-0.186l0.001-0.186
				c0.024-37.846,0.046-71.26,0.062-95.222c-0.066-2.993,0.198-5.874,0.893-8.483c0.67-2.617,1.706-4.969,2.943-6.992
				c1.253-2.014,2.671-3.732,4.199-5.067c1.521-1.343,3.104-2.328,4.6-3.048c3.029-1.381,5.612-1.78,7.332-1.926
				c0.861-0.109,1.524-0.078,1.968-0.1C325.971,180.69,326.197,180.694,326.197,180.694z"/>
		</g>
		<g>
			<path fill="#263238" d="M355.632,242.923c0,0.104-11.674,0.187-26.07,0.187c-14.402,0-26.074-0.083-26.074-0.187
				s11.672-0.187,26.074-0.187C343.958,242.737,355.632,242.82,355.632,242.923z"/>
		</g>
		<g>
			<path fill="#263238" d="M308.143,252.468c-0.003-0.004,0.064-0.008,0.202-0.011c0.151-0.002,0.354-0.006,0.614-0.01
				c0.562-0.005,1.368-0.012,2.409-0.021c2.131-0.011,5.219-0.026,9.113-0.046c7.856-0.021,18.962-0.05,32.023-0.084l0.172-0.001
				v0.173c0.005,8.844,0.01,18.606,0.016,28.861c0.043-0.034-0.359,0.357-0.195,0.191h-0.013h-0.024h-0.05h-0.098h-0.196h-0.392
				h-0.783c-0.521,0-1.042,0-1.56,0c-1.037,0-2.068-0.001-3.094-0.001c-2.051-0.001-4.076-0.001-6.074-0.002
				c-3.995-0.002-7.878-0.005-11.616-0.007c-7.475-0.011-14.375-0.021-20.455-0.029h-0.148v-0.148
				c0.033-8.82,0.06-16.049,0.079-21.089c0.016-2.486,0.028-4.434,0.037-5.774c0.008-0.646,0.013-1.146,0.017-1.5
				C308.132,252.632,308.143,252.468,308.143,252.468s0.011,0.187,0.017,0.532c0.004,0.36,0.009,0.87,0.017,1.528
				c0.009,1.35,0.021,3.307,0.037,5.809c0.019,5.018,0.046,12.214,0.079,20.996l-0.149-0.147c6.08-0.009,12.98-0.019,20.455-0.029
				c3.738-0.002,7.621-0.005,11.616-0.008c1.998,0,4.023,0,6.074-0.001c1.025-0.001,2.057-0.001,3.094-0.001c0.518,0,1.038,0,1.56,0
				h0.783h0.392h0.196h0.098h0.05h0.024h0.013c0.17-0.168-0.218,0.23-0.179,0.183c0.005-10.255,0.011-20.018,0.015-28.861
				l0.172,0.171c-13.016-0.034-24.082-0.063-31.911-0.084c-3.91-0.02-7.012-0.035-9.152-0.046c-1.055-0.009-1.873-0.017-2.442-0.021
				c-0.27-0.004-0.478-0.007-0.635-0.01C308.222,252.475,308.146,252.471,308.143,252.468z"/>
		</g>
		<g>
			<path fill="#AC1E73" d="M352.342,207.363h-42.535c-1.001,0-1.812-0.679-1.812-1.517v-6.885c0-0.838,0.812-1.517,1.812-1.517
				h42.535c1,0,1.812,0.679,1.812,1.517v6.885C354.153,206.684,353.342,207.363,352.342,207.363z"/>
			<text transform="matrix(1 0 0 1 309.0439 204.4067)" fill="#FFFFFF" font-family="'Montserrat-Regular'" font-size="6.2969">CONTACT US</text>
		</g>
		<g>
			<path fill="#455A64" d="M393.288,305.027c0,0-0.009-0.247-0.014-0.716c-0.003-0.477-0.008-1.17-0.014-2.075
				c-0.006-1.827-0.016-4.506-0.027-7.952c-0.016-6.9-0.036-16.868-0.062-29.184c-0.015-12.307-0.032-26.957-0.053-43.225
				c-0.003-4.065-0.006-8.231-0.008-12.488c-0.002-2.127-0.002-4.278-0.003-6.449c-0.022-2.169,0.15-4.387-0.623-6.452
				c-0.699-2.063-2.022-3.933-3.77-5.296c-1.742-1.369-3.911-2.223-6.155-2.385c-0.56-0.035-1.126-0.053-1.704-0.043
				c-0.578-0.013-1.139,0.029-1.705,0.057c-1.126,0.128-2.24,0.393-3.298,0.825c-1.047,0.454-2.032,1.053-2.921,1.781
				c-0.882,0.739-1.639,1.62-2.273,2.585c-0.771,1.193-1.312,2.526-1.593,3.908c-0.299,1.381-0.207,2.805-0.225,4.23
				c-0.001,2.844-0.001,5.662-0.002,8.455c-0.001,5.586-0.002,11.066-0.004,16.418c-0.006,10.706-0.011,20.903-0.016,30.423
				c-0.023,19.033-0.043,35.35-0.059,47.582l-0.106-0.106c7.771,0.025,13.916,0.046,18.129,0.06c2.104,0.012,3.723,0.02,4.827,0.025
				c0.544,0.005,0.959,0.009,1.248,0.011C393.14,305.02,393.288,305.027,393.288,305.027s-0.135,0.007-0.409,0.012
				c-0.284,0.002-0.693,0.005-1.229,0.01c-1.099,0.007-2.71,0.015-4.804,0.026c-4.228,0.014-10.394,0.034-18.191,0.06h-0.107v-0.107
				c-0.015-12.232-0.035-28.549-0.058-47.582c-0.006-9.52-0.011-19.717-0.017-30.423c-0.001-5.352-0.003-10.832-0.004-16.418
				c0-2.793-0.001-5.611-0.001-8.455c0.019-1.41-0.077-2.867,0.232-4.305c0.29-1.427,0.849-2.805,1.645-4.037
				c0.654-0.996,1.438-1.905,2.347-2.668c0.918-0.753,1.936-1.371,3.017-1.84c1.094-0.447,2.244-0.721,3.406-0.853
				c0.584-0.028,1.172-0.069,1.741-0.057c0.571-0.01,1.149,0.007,1.731,0.045c2.318,0.167,4.559,1.05,6.355,2.464
				c1.804,1.408,3.168,3.338,3.889,5.469c0.352,1.066,0.59,2.174,0.613,3.289c0.052,1.112,0.014,2.196,0.025,3.288
				c-0.001,2.177-0.003,4.333-0.004,6.466c-0.002,4.266-0.005,8.443-0.008,12.519c-0.02,16.293-0.038,30.969-0.054,43.296
				c-0.025,12.303-0.047,22.261-0.062,29.153c-0.012,3.428-0.021,6.093-0.027,7.91c-0.006,0.895-0.01,1.578-0.014,2.05
				C393.298,304.798,393.288,305.027,393.288,305.027z"/>
		</g>
		<g>
			<ellipse fill="#455A64" cx="380.69" cy="242.49" rx="16.81" ry="0.188"/>
		</g>
	</g>
</g>
<g id="Character">
	<g>
		<g>
			<g>
				<g>
					<g>
						<g>
							<g>
								<path fill="#B78876" d="M178.78,144.373L178.78,144.373c3.688,0.286,6.872-2.549,7.017-6.244
									c0.14-3.549,0.262-7.135,0.262-7.135s5.377-0.5,5.771-5.82c0.395-5.321,0.226-17.605,0.226-17.605l0,0
									c-6-3.03-13.171-2.574-18.739,1.19l-0.826,0.559l0.278,28.622C172.8,141.318,175.411,144.111,178.78,144.373z"/>
							</g>
							<g>
								<g>
									<circle fill="#263238" cx="190.071" cy="116.389" r="0.775"/>
								</g>
								<g>
									<g>
										<path fill="#263238" d="M191.592,116.033c-0.089,0.087-0.587-0.348-1.32-0.396c-0.733-0.06-1.289,0.297-1.364,0.198
											c-0.037-0.044,0.057-0.206,0.3-0.368c0.239-0.162,0.64-0.307,1.097-0.273s0.833,0.236,1.046,0.431
											C191.566,115.822,191.635,115.995,191.592,116.033z"/>
									</g>
								</g>
							</g>
							<g>
								<g>
									<circle fill="#263238" cx="182.119" cy="116.556" r="0.775"/>
								</g>
								<g>
									<g>
										<path fill="#263238" d="M183.591,116.197c-0.089,0.087-0.588-0.348-1.32-0.396c-0.732-0.06-1.289,0.297-1.364,0.198
											c-0.037-0.044,0.057-0.206,0.3-0.368c0.238-0.161,0.641-0.307,1.098-0.272c0.456,0.034,0.832,0.236,1.045,0.431
											C183.565,115.985,183.634,116.159,183.591,116.197z"/>
									</g>
								</g>
							</g>
							<g>
								<g>
									<path fill="#263238" d="M186.192,121.895c-0.002-0.058,0.458-0.122,1.201-0.178c0.193-0.009,0.347-0.043,0.367-0.146
										c0.042-0.114-0.021-0.323-0.104-0.558c-0.158-0.497-0.319-1-0.488-1.526c-0.67-2.173-1.124-3.961-1.013-3.995
										c0.109-0.034,0.742,1.699,1.413,3.872c0.156,0.53,0.308,1.036,0.456,1.536c0.057,0.226,0.175,0.494,0.056,0.804
										c-0.062,0.155-0.221,0.261-0.35,0.286c-0.129,0.031-0.237,0.024-0.329,0.022
										C186.656,121.993,186.193,121.952,186.192,121.895z"/>
								</g>
							</g>
							<g>
								<path fill="#FFFFFF" d="M183.76,122.558c0.439,0.196,2.035,1.248,3.532,1.267c0,0-0.94,1.315-2.441,0.659
									C183.293,123.802,183.76,122.558,183.76,122.558z"/>
							</g>
							<g>
								<path fill="#A36957" d="M186.071,130.917c0,0-3.382,0.066-6.82-2.401c0,0,1.405,3.934,6.748,3.782L186.071,130.917z"/>
							</g>
						</g>
					</g>
					<g>
						<g>
							<path fill="#B78876" d="M172.784,115.897c-0.002-0.43-0.339-0.794-0.769-0.806c-0.993-0.028-2.619,0.366-2.771,3.108
								c-0.219,3.917,3.549,2.94,3.562,2.828C172.816,120.94,172.794,117.419,172.784,115.897z"/>
						</g>
						<g>
							<g>
								<path fill="#A36957" d="M171.943,119.488c-0.016-0.013-0.07,0.044-0.188,0.091c-0.115,0.044-0.311,0.07-0.511-0.018
									c-0.405-0.175-0.718-0.852-0.697-1.559c0.01-0.357,0.104-0.692,0.245-0.966c0.137-0.28,0.333-0.47,0.543-0.495
									c0.21-0.037,0.351,0.096,0.393,0.209c0.046,0.112,0.017,0.189,0.038,0.197c0.01,0.01,0.087-0.061,0.064-0.225
									c-0.012-0.079-0.053-0.174-0.141-0.254c-0.09-0.082-0.226-0.129-0.371-0.121c-0.304,0.004-0.591,0.267-0.747,0.568
									c-0.173,0.301-0.286,0.677-0.298,1.079c-0.019,0.791,0.345,1.552,0.901,1.747c0.271,0.087,0.507,0.017,0.63-0.069
									C171.932,119.583,171.957,119.496,171.943,119.488z"/>
							</g>
						</g>
					</g>
				</g>
				<path fill="#263238" d="M190.919,106.159c-2.28-0.834-7.629-2.336-13.648-0.879c0,0-4.546,1.591-4.781,4.037
					c-0.236,2.446,0.059,6.007,0.059,6.007l0.288,0.029l0.044,4.101h1.648l0.23-5.544c0,0,3.135-2.164,3.196-5.531
					c1.53-0.206,9.028-1.088,14.137,0.66v-1.19C192.092,107.095,191.627,106.417,190.919,106.159z"/>
			</g>
			<g>
				<path fill="#263238" d="M182.968,113.631c-0.014,0.106-0.531,0.114-1.133,0.257c-0.605,0.135-1.073,0.355-1.133,0.266
					c-0.06-0.079,0.367-0.475,1.048-0.63C182.43,113.365,182.988,113.533,182.968,113.631z"/>
			</g>
			<g>
				<path fill="#263238" d="M190.885,112.465c-0.061,0.087-0.41-0.052-0.839,0.021c-0.431,0.056-0.724,0.292-0.807,0.227
					c-0.094-0.048,0.165-0.511,0.751-0.597C190.576,112.026,190.96,112.392,190.885,112.465z"/>
			</g>
			<path fill="#263238" d="M172.397,110.927c-0.258-2.769,0.182-4.898,1.348-6.258c1.165-1.36,3.702-2.11,5.407-1.558
				c0.633,0.206,1.229,0.592,1.895,0.603c1.081,0.018,1.895-0.917,2.71-1.626c0.663-0.577,1.49-1.063,2.368-0.996
				s1.722,0.898,1.522,1.755c0.748-0.293,1.518-0.576,2.32-0.607s1.657,0.228,2.161,0.853c0.507,0.625,0.534,1.648-0.065,2.182
				c0.591-0.532,1.579-0.515,2.187-0.001c0.608,0.513,0.802,1.438,0.506,2.175c-0.298,0.738-1.037,1.26-1.827,1.353
				c-0.791,0.093-1.604-0.221-2.175-0.775l-2.282-0.951l-10.983,0.632L172.397,110.927z"/>
			<path fill="#263238" d="M177.777,109.635c-0.008-0.816,0.848-1.438,1.663-1.44c0.814-0.001,1.561,0.455,2.19,0.973
				c0.629,0.519,1.202,1.121,1.92,1.506c0.8,0.43,1.742,0.562,2.642,0.439c0.898-0.123,1.754-0.491,2.505-1.001
				c0.833,0.461,1.772,0.729,2.723,0.775c0.64,0.031,1.319-0.049,1.829-0.436c0.517-0.39,0.781-1.031,0.915-1.665
				c0.11-0.519,0.146-1.076-0.055-1.568c-0.199-0.486-0.613-0.859-1.076-1.11c-0.461-0.25-0.973-0.392-1.479-0.532l-13.072,0.324
				l-1.894,2.698L177.777,109.635z"/>
		</g>
		<g>
			<g>
				<g>
					<g>
						<g>
							<path fill="#AC1E73" d="M212.662,320.87l0.377-6.42l-12.021-0.782l-0.65,9.386l0.741,0.096
								c3.306,0.4,16.833,1.803,19.095,1.274C222.726,323.834,212.662,320.87,212.662,320.87z"/>
						</g>
					</g>
					<g opacity="0.5">
						<g>
							<path fill="#FFFFFF" d="M204.732,323.243c-0.106-1.016-0.604-1.985-1.367-2.663c-0.763-0.678-1.731-1.072-2.753-1.057
								l-0.221,3.359L204.732,323.243z"/>
						</g>
					</g>
				</g>
				<g opacity="0.4">
					<g>
						<path fill="#FFFFFF" d="M217.568,322.497c0,0,3.512,1.266,3.026,1.826c-0.485,0.56-14.208-0.342-20.227-1.27l0.036-0.268
							l15.999,1.188C216.403,323.974,216.865,322.48,217.568,322.497z"/>
					</g>
				</g>
				<g>
					<g>
						<g>
							<path fill="#263238" d="M200.217,322.766c-0.001,0.005,0.07,0.018,0.205,0.036c0.178,0.022,0.371,0.047,0.591,0.074
								c0.592,0.064,1.319,0.145,2.179,0.237c1.841,0.188,4.387,0.414,7.204,0.602c2.818,0.187,5.372,0.301,7.223,0.358
								c0.863,0.021,1.595,0.039,2.19,0.053c0.222,0.002,0.417,0.003,0.596,0.004c0.136-0.001,0.207-0.003,0.208-0.008
								c0-0.005-0.071-0.013-0.207-0.021c-0.18-0.009-0.374-0.02-0.596-0.031c-0.594-0.027-1.324-0.06-2.188-0.099
								c-1.848-0.085-4.399-0.215-7.216-0.401c-2.815-0.188-5.361-0.396-7.204-0.558c-0.86-0.076-1.59-0.14-2.183-0.191
								c-0.22-0.019-0.416-0.034-0.595-0.048C200.288,322.764,200.217,322.761,200.217,322.766z"/>
						</g>
					</g>
				</g>
				<g>
					<g>
						<g>
							<path fill="#263238" d="M216.388,324.162c0.044,0.008,0.113-0.511,0.477-1.017c0.355-0.512,0.823-0.749,0.8-0.787
								c-0.007-0.037-0.536,0.155-0.919,0.703C216.356,323.603,216.352,324.167,216.388,324.162z"/>
						</g>
					</g>
				</g>
				<g>
					<g>
						<g>
							
								<ellipse transform="matrix(-0.5897 0.8076 -0.8076 -0.5897 598.8701 339.0449)" fill="#263238" cx="213.31" cy="321.649" rx="0.594" ry="0.074"/>
						</g>
					</g>
				</g>
				<g>
					<g>
						<g>
							
								<ellipse transform="matrix(-0.7862 0.6179 -0.6179 -0.7862 577.9329 442.5382)" fill="#263238" cx="212.417" cy="321.238" rx="0.505" ry="0.072"/>
						</g>
					</g>
				</g>
				<g>
					<g>
						<g>
							
								<ellipse transform="matrix(-0.997 -0.0768 0.0768 -0.997 398.9738 656.192)" fill="#263238" cx="212.107" cy="320.423" rx="0.629" ry="0.074"/>
						</g>
					</g>
				</g>
				<g>
					<g>
						<g>
							<path fill="#263238" d="M211.321,319.561c-0.017,0.035,0.28,0.193,0.687,0.25c0.404,0.059,0.733-0.011,0.729-0.05
								c-0.004-0.041-0.324-0.039-0.709-0.095C211.643,319.613,211.337,319.522,211.321,319.561z"/>
						</g>
					</g>
				</g>
				<g>
					<g>
						<g>
							<path fill="#263238" d="M213.437,321.107c-0.003,0.016,0.292,0.072,0.772,0.046c0.24-0.014,0.524-0.051,0.834-0.128
								c0.154-0.043,0.314-0.073,0.483-0.162c0.08-0.046,0.17-0.112,0.207-0.228c0.039-0.114-0.014-0.248-0.097-0.316
								c-0.713-0.431-1.479-0.064-1.778,0.299c-0.164,0.186-0.245,0.37-0.286,0.499c-0.04,0.13-0.042,0.206-0.034,0.207
								c0.027,0.012,0.072-0.301,0.396-0.636c0.159-0.164,0.394-0.318,0.688-0.386c0.278-0.062,0.668-0.059,0.917,0.124
								c0.116,0.099,0.059,0.239-0.083,0.312c-0.132,0.073-0.3,0.112-0.445,0.157c-0.3,0.081-0.576,0.128-0.81,0.154
								C213.732,321.102,213.438,321.083,213.437,321.107z"/>
						</g>
					</g>
				</g>
				<g>
					<g>
						<g>
							<path fill="#263238" d="M213.634,321.159c0.011,0.009,0.137-0.181,0.124-0.53c-0.007-0.172-0.057-0.379-0.174-0.579
								c-0.125-0.18-0.285-0.428-0.617-0.436c-0.181,0.011-0.281,0.21-0.261,0.341c0.004,0.137,0.058,0.256,0.108,0.354
								c0.103,0.2,0.222,0.365,0.333,0.491c0.228,0.253,0.412,0.355,0.422,0.343c0.016-0.019-0.144-0.149-0.342-0.407
								c-0.098-0.13-0.202-0.293-0.293-0.485c-0.095-0.171-0.148-0.469,0.048-0.491c0.195-0.005,0.38,0.2,0.488,0.362
								c0.109,0.175,0.165,0.359,0.185,0.517C213.693,320.956,213.608,321.151,213.634,321.159z"/>
						</g>
					</g>
				</g>
				<g>
					<g>
						<g>
							<path fill="#263238" d="M200.678,319.493c0.002,0.027,0.347-0.01,0.887,0.09c0.534,0.096,1.267,0.365,1.884,0.926
								c0.617,0.562,0.954,1.268,1.099,1.791c0.149,0.527,0.145,0.874,0.171,0.873c0.011,0,0.021-0.086,0.018-0.242
								s-0.025-0.383-0.089-0.657c-0.122-0.543-0.457-1.286-1.101-1.872c-0.643-0.585-1.413-0.849-1.966-0.92
								c-0.278-0.038-0.507-0.039-0.662-0.026C200.762,319.466,200.678,319.485,200.678,319.493z"/>
						</g>
					</g>
				</g>
				<g>
					<g>
						<g>
							
								<ellipse transform="matrix(0.0781 -0.9969 0.9969 0.0781 -129.7968 493.7163)" fill="#263238" cx="202.059" cy="317.041" rx="2.475" ry="0.073"/>
						</g>
					</g>
				</g>
				<g>
					<g>
						<g>
							<path fill="#263238" d="M206.322,322.17c-0.008,0.037,0.767,0.217,1.743,0.289c0.977,0.075,1.769,0.014,1.767-0.025
								c-0.001-0.043-0.789-0.046-1.756-0.12C207.109,322.243,206.329,322.128,206.322,322.17z"/>
						</g>
					</g>
				</g>
				<g>
					<g>
						<g>
							<path fill="#263238" d="M203.967,322.011c-0.031,0.027,0.054,0.172,0.121,0.356c0.071,0.185,0.102,0.348,0.144,0.348
								c0.039,0.003,0.074-0.186-0.007-0.398C204.145,322.103,203.994,321.984,203.967,322.011z"/>
						</g>
					</g>
				</g>
				<g>
					<g>
						<g>
							
								<ellipse transform="matrix(-0.6543 -0.7562 0.7562 -0.6543 93.5964 684.9701)" fill="#263238" cx="203.361" cy="321.092" rx="0.321" ry="0.072"/>
						</g>
					</g>
				</g>
				<g>
					<g>
						<g>
							<path fill="#263238" d="M201.914,320.26c0.006,0.041,0.166,0.05,0.338,0.124c0.174,0.07,0.293,0.177,0.327,0.151
								c0.033-0.021-0.057-0.198-0.271-0.286C202.094,320.16,201.904,320.222,201.914,320.26z"/>
						</g>
					</g>
				</g>
				<g>
					<g>
						<g>
							
								<ellipse transform="matrix(-0.9066 -0.4219 0.4219 -0.9066 248.5834 695.0984)" fill="#263238" cx="201.202" cy="320.044" rx="0.194" ry="0.073"/>
						</g>
					</g>
				</g>
			</g>
		</g>
		<g>
			<g>
				<g>
					<g>
						<g>
							<path fill="#AC1E73" d="M121.515,301.558l4.712-4.377l-8.143-8.877l-6.96,6.33l0.47,0.583
								c2.11,2.574,10.913,12.94,12.911,14.123C126.734,310.659,121.515,301.558,121.515,301.558z"/>
						</g>
					</g>
					<g opacity="0.5">
						<g>
							<path fill="#FFFFFF" d="M114.146,297.79c0.626-0.807,0.937-1.852,0.854-2.869s-0.51-1.972-1.258-2.667l-2.483,2.274
								L114.146,297.79z"/>
						</g>
					</g>
				</g>
				<g opacity="0.4">
					<g>
						<path fill="#FFFFFF" d="M123.935,306.125c0,0,1.661,3.343,0.924,3.413c-0.738,0.069-10.028-10.072-13.734-14.904l0.211-0.167
							l10.735,11.921C122.07,306.388,123.438,305.628,123.935,306.125z"/>
					</g>
				</g>
				<g>
					<g>
						<g>
							<path fill="#263238" d="M111.213,294.323c-0.004,0.003,0.038,0.062,0.122,0.168c0.114,0.139,0.237,0.29,0.376,0.462
								c0.383,0.457,0.854,1.017,1.41,1.679c1.199,1.408,2.884,3.332,4.789,5.416c1.906,2.083,3.673,3.932,4.969,5.252
								c0.609,0.612,1.126,1.131,1.546,1.553c0.159,0.154,0.3,0.291,0.428,0.415c0.1,0.094,0.152,0.142,0.156,0.138
								c0.004-0.003-0.043-0.058-0.136-0.158c-0.122-0.13-0.256-0.273-0.407-0.434c-0.411-0.432-0.916-0.961-1.513-1.585
								c-1.276-1.339-3.03-3.197-4.936-5.279c-1.904-2.083-3.6-3.994-4.819-5.385c-0.569-0.65-1.051-1.2-1.443-1.647
								c-0.147-0.165-0.278-0.312-0.397-0.445C111.267,294.371,111.216,294.319,111.213,294.323z"/>
						</g>
					</g>
				</g>
				<g>
					<g>
						<g>
							<path fill="#263238" d="M121.931,306.512c0.025,0.036,0.435-0.292,1.046-0.404c0.611-0.124,1.112,0.028,1.123-0.017
								c0.021-0.03-0.495-0.258-1.15-0.127C122.293,306.087,121.899,306.492,121.931,306.512z"/>
						</g>
					</g>
				</g>
				<g>
					<g>
						<g>
							
								<ellipse transform="matrix(-0.9845 0.1752 -0.1752 -0.9845 294.0174 579.1831)" fill="#263238" cx="121.444" cy="302.569" rx="0.594" ry="0.073"/>
						</g>
					</g>
				</g>
				<g>
					<g>
						<g>
							
								<ellipse transform="matrix(-0.9953 -0.0967 0.0967 -0.9953 212.4214 613.6071)" fill="#263238" cx="121.083" cy="301.655" rx="0.505" ry="0.074"/>
						</g>
					</g>
				</g>
				<g>
					<g>
						<g>
							
								<ellipse transform="matrix(-0.6668 -0.7452 0.7452 -0.6668 -21.8123 591.952)" fill="#263238" cx="121.422" cy="300.852" rx="0.629" ry="0.074"/>
						</g>
					</g>
				</g>
				<g>
					<g>
						<g>
							<path fill="#263238" d="M121.45,299.686c-0.035,0.014,0.07,0.333,0.323,0.654c0.253,0.322,0.539,0.5,0.562,0.469
								c0.025-0.032-0.207-0.252-0.446-0.56C121.647,299.946,121.489,299.668,121.45,299.686z"/>
						</g>
					</g>
				</g>
				<g>
					<g>
						<g>
							<path fill="#263238" d="M121.91,302.264c-0.013,0.011,0.161,0.255,0.526,0.568c0.182,0.156,0.414,0.326,0.69,0.484
								c0.142,0.075,0.277,0.164,0.462,0.217c0.09,0.022,0.199,0.036,0.307-0.021c0.107-0.056,0.161-0.188,0.149-0.296
								c-0.218-0.805-1.024-1.069-1.492-1.015c-0.246,0.021-0.434,0.099-0.552,0.163c-0.118,0.067-0.173,0.119-0.168,0.127
								c0.012,0.026,0.261-0.167,0.726-0.187c0.229-0.009,0.505,0.043,0.763,0.197c0.245,0.147,0.523,0.419,0.578,0.723
								c0.016,0.152-0.124,0.215-0.276,0.169c-0.146-0.038-0.295-0.126-0.431-0.195c-0.271-0.148-0.505-0.305-0.691-0.447
								C122.127,302.465,121.928,302.249,121.91,302.264z"/>
						</g>
					</g>
				</g>
				<g>
					<g>
						<g>
							<path fill="#263238" d="M122.017,302.438c0.001,0.015,0.224-0.034,0.457-0.297c0.113-0.129,0.22-0.312,0.274-0.537
								c0.034-0.217,0.09-0.507-0.145-0.742c-0.139-0.117-0.348-0.043-0.425,0.065c-0.091,0.103-0.135,0.226-0.166,0.331
								c-0.065,0.215-0.093,0.417-0.099,0.586c-0.011,0.339,0.052,0.542,0.068,0.538c0.022-0.003-0.002-0.207,0.034-0.53
								c0.02-0.161,0.056-0.352,0.125-0.553c0.048-0.189,0.216-0.44,0.372-0.321c0.145,0.13,0.137,0.406,0.103,0.598
								c-0.041,0.202-0.129,0.374-0.223,0.501C122.201,302.333,122.004,302.416,122.017,302.438z"/>
						</g>
					</g>
				</g>
				<g>
					<g>
						<g>
							<path fill="#263238" d="M113.809,292.278c-0.018,0.02,0.258,0.231,0.578,0.677c0.32,0.438,0.664,1.141,0.721,1.973
								c0.058,0.832-0.187,1.575-0.444,2.052c-0.256,0.484-0.5,0.732-0.479,0.75c0.007,0.006,0.073-0.049,0.18-0.164
								c0.106-0.114,0.247-0.293,0.39-0.535c0.288-0.478,0.56-1.245,0.501-2.113c-0.061-0.867-0.435-1.591-0.784-2.024
								c-0.175-0.22-0.339-0.378-0.461-0.477C113.888,292.316,113.814,292.27,113.809,292.278z"/>
						</g>
					</g>
				</g>
				<g>
					<g>
						<g>
							
								<ellipse transform="matrix(0.7459 -0.666 0.666 0.7459 -164.5232 151.6503)" fill="#263238" cx="116.502" cy="291.461" rx="2.476" ry="0.073"/>
						</g>
					</g>
				</g>
				<g>
					<g>
						<g>
							<path fill="#263238" d="M116.035,298.114c-0.031,0.021,0.404,0.688,1.06,1.414c0.653,0.729,1.269,1.233,1.294,1.204
								c0.028-0.031-0.539-0.579-1.186-1.302C116.554,298.71,116.069,298.089,116.035,298.114z"/>
						</g>
					</g>
				</g>
				<g>
					<g>
						<g>
							<path fill="#263238" d="M114.443,296.371c-0.042-0.002-0.08,0.16-0.158,0.341c-0.076,0.183-0.167,0.322-0.138,0.351
								c0.026,0.029,0.183-0.083,0.272-0.293C114.509,296.559,114.482,296.371,114.443,296.371z"/>
						</g>
					</g>
				</g>
				<g>
					<g>
						<g>
							
								<ellipse transform="matrix(0.0502 -0.9987 0.9987 0.0502 -186.0243 394.9717)" fill="#263238" cx="114.642" cy="295.287" rx="0.321" ry="0.073"/>
						</g>
					</g>
				</g>
				<g>
					<g>
						<g>
							<path fill="#263238" d="M114.171,293.686c-0.023,0.034,0.086,0.151,0.159,0.323c0.077,0.171,0.09,0.33,0.132,0.335
								c0.037,0.01,0.097-0.182,0.001-0.394C114.37,293.738,114.191,293.652,114.171,293.686z"/>
						</g>
					</g>
				</g>
				<g>
					<g>
						<g>
							
								<ellipse transform="matrix(-0.364 -0.9314 0.9314 -0.364 -117.6981 505.7067)" fill="#263238" cx="113.806" cy="293.037" rx="0.194" ry="0.073"/>
						</g>
					</g>
				</g>
			</g>
		</g>
		<path fill="#B78876" d="M250.123,121.263c-1.06-0.387-3.31,5.316-3.537,3.81s3.562-6.655,2.438-7.014
			c-1.466-0.468-3.712,5.545-3.939,6.04c-0.222,0.48-0.951,0.183-0.722-0.252c0.33-0.627,3.633-7.292,2.197-7.766
			c-0.795-0.263-1.135,1.21-1.135,1.21s-2.63,6.464-3.3,6.218c-0.681-0.25,0.736-4.097,1.306-5.361
			c0.562-1.248,0.197-2.023-0.562-1.813c-0.519,0.143-2.354,3.972-2.888,5.234c-0.534,1.262-1.937,4.751-2.645,2.469
			c-0.708-2.282-2.112-3.771-2.771-3.909c-0.66-0.138-1.094,0.73-0.597,1.282c0.4,0.446,0.838,1.396,1.138,2.124
			c0.247,0.6,0.395,1.237,0.427,1.885c0.122,2.498-0.118,3.897-0.118,3.897l-13.449,23.48l-20.984-8.222l-3.044,12.008
			c0,0,27.537,12.541,29.281,11.62c3.935-2.078,16.644-36.322,16.644-36.322l-0.001,0c1.898-2.45,4.188-5.509,5.168-7.222
			C250.793,121.57,250.519,121.407,250.123,121.263z"/>
		<g>
			
				<ellipse transform="matrix(0.9986 0.0522 -0.0522 0.9986 16.8949 -10.4541)" fill="#455A64" cx="208.434" cy="317.971" rx="9.357" ry="0.187"/>
		</g>
		<g>
			<g>
				<path fill="#263238" d="M197.937,197.733c0,0,18.381,39.746,23.289,50.532c0.515,1.131,0.741,2.365,0.664,3.605l-4.141,66.565
					l-19.126-1.207l2.859-64.202l-31.95-41.072c-2.724-3.502-5.218-7.572-6.165-11.907c-0.316-1.446-0.025-2.893,0.002-4.276
					c0.112-5.532,0,0,0,0L197.937,197.733"/>
			</g>
			<g>
				<path fill="#263238" d="M196.043,203.521c0,0-14.955,41.158-19.07,52.271c-0.431,1.165-1.141,2.202-2.069,3.027l-49.833,44.325
					l-12.724-14.331l47.259-43.55l6.26-51.659c0.534-4.404,1.953-8.679,4.335-12.422c0.795-1.249,1.697-2.443,2.692-3.405
					c3.976-3.848,0,0,0,0L196.043,203.521"/>
			</g>
			<g>
				<path fill="#455A64" d="M201.482,253.027c-0.005,0.004-0.045-0.037-0.119-0.123c-0.087-0.104-0.193-0.229-0.323-0.385
					c-0.296-0.367-0.701-0.868-1.212-1.501c-1.061-1.339-2.559-3.232-4.401-5.562c-1.859-2.361-4.062-5.16-6.507-8.266
					c-2.495-3.078-5.235-6.456-8.112-10.004c-5.756-7.101-10.814-13.683-13.882-18.851c-1.546-2.571-2.575-4.792-3.084-6.395
					c-0.254-0.803-0.39-1.444-0.451-1.882c-0.021-0.201-0.039-0.366-0.054-0.501c-0.009-0.113-0.011-0.17-0.004-0.171
					c0.006-0.001,0.021,0.056,0.043,0.167c0.023,0.133,0.053,0.294,0.089,0.492c0.085,0.43,0.242,1.06,0.515,1.848
					c0.547,1.575,1.604,3.762,3.173,6.305c3.111,5.111,8.192,11.655,13.945,18.752c2.874,3.551,5.632,6.92,8.093,10.024
					c2.455,3.111,4.612,5.947,6.444,8.317c1.804,2.36,3.271,4.278,4.309,5.636c0.487,0.65,0.873,1.166,1.156,1.544
					c0.118,0.164,0.214,0.298,0.293,0.407C201.457,252.973,201.488,253.023,201.482,253.027z"/>
			</g>
			<g>
				
					<ellipse transform="matrix(0.9999 0.0167 -0.0167 0.9999 4.2547 -3.4008)" fill="#455A64" cx="205.672" cy="252.952" rx="4.033" ry="0.187"/>
			</g>
			<g>
				
					<ellipse transform="matrix(0.9071 0.4209 -0.4209 0.9071 126.3418 -62.6515)" fill="#455A64" cx="205.106" cy="254.899" rx="3.485" ry="0.187"/>
			</g>
			<g>
				
					<ellipse transform="matrix(0.9973 0.0732 -0.0732 0.9973 23.5928 -14.3933)" fill="#455A64" cx="208.296" cy="314.896" rx="9.699" ry="0.187"/>
			</g>
			<g>
				
					<ellipse transform="matrix(0.4725 0.8813 -0.8813 0.4725 304.0492 -11.4696)" fill="#455A64" cx="161.606" cy="248.271" rx="3.164" ry="0.188"/>
			</g>
			<g>
				
					<ellipse transform="matrix(0.809 0.5878 -0.5878 0.809 176.7076 -48.8058)" fill="#455A64" cx="163.453" cy="247.502" rx="3.722" ry="0.187"/>
			</g>
		</g>
		<g>
			<g>
				<g>
					<g>
						<path fill="#455A64" d="M213.729,148.885c-5.821-2.994-9.945-4.774-13.124-6.814c-9.884-6.345-12.489-4.939-14.814-5.231
							c-1.956,0.602-4.847,1.738-5.938,1.94c-1.198,0.222-5.101-1.149-7.686-1.949l0,0c-6.017,0.255-9.702,2.812-15.26,6.903
							l-9.087,7.646l11.489,11.568l3.847-1.994c0.651,5.212,0.488,7.246,0.726,13.536l-0.512,25.276l37.4,2.121l-2.062-24.207
							l-0.905-19.044l10.66,5.323L213.729,148.885"/>
					</g>
				</g>
				<path fill="#455A64" d="M171.891,137.542v-3.885c0,0,6.675,0.703,8.032,5.345L171.891,137.542z"/>
				<path fill="#455A64" d="M185.79,136.84l-0.248-3.183c0,0-4.455,0.315-5.619,5.345L185.79,136.84z"/>
				<g>
					<path fill="#263238" d="M186.583,151.188c-0.023-0.023,0.442-0.047,1.296-0.077c0.853-0.029,2.1-0.065,3.614-0.082l0.158-0.001
						l0.001,0.16c0.008,1.472,0.017,3.175,0.027,4.999l0.001,0.098l-0.081,0.056c-0.114,0.078-0.236,0.163-0.359,0.247
						c-0.662,0.454-1.307,0.896-1.925,1.32l-0.1,0.069l-0.102-0.065c-0.937-0.606-1.816-1.175-2.616-1.693l-0.074-0.048v-0.086
						c0.017-1.509,0.053-2.753,0.082-3.604C186.536,151.629,186.56,151.165,186.583,151.188c0.022,0.023,0.047,0.534,0.077,1.394
						c0.029,0.861,0.064,2.065,0.082,3.503l-0.075-0.134c0.81,0.506,1.698,1.062,2.643,1.653l-0.2,0.003
						c0.617-0.426,1.259-0.871,1.919-1.327c0.122-0.085,0.245-0.169,0.359-0.248l-0.081,0.154c0.011-1.824,0.02-3.527,0.027-4.999
						l0.159,0.159c-1.444-0.016-2.651-0.052-3.515-0.082C187.117,151.235,186.606,151.211,186.583,151.188z"/>
				</g>
				<g>
					
						<ellipse transform="matrix(0.9999 0.0137 -0.0137 0.9999 2.1042 -2.5728)" fill="#263238" cx="188.929" cy="152.375" rx="2.443" ry="0.187"/>
				</g>
			</g>
			<g>
				<path fill="#263238" d="M178.731,136.678c0.086,0.067-1.179,1.538-2.249,3.762l-0.1,0.208l-0.182-0.144
					c-0.145-0.114-0.295-0.233-0.449-0.354c-2.155-1.713-3.852-3.167-3.787-3.248c0.064-0.081,1.864,1.242,4.021,2.955
					c0.152,0.122,0.303,0.242,0.446,0.356l-0.282,0.064c0.557-1.128,1.189-2.054,1.69-2.675
					C178.34,136.979,178.698,136.649,178.731,136.678z"/>
			</g>
			<g>
				<path fill="#263238" d="M185.743,136.984c0.073,0.073-0.983,1.249-2.36,2.627c-0.028,0.029-0.058,0.058-0.084,0.084
					l-0.158,0.159l-0.128-0.184c-1.076-1.559-1.87-2.849-1.787-2.907c0.082-0.058,1.012,1.139,2.094,2.694l-0.285-0.025
					c0.027-0.027,0.056-0.056,0.085-0.085C184.496,137.969,185.671,136.911,185.743,136.984z"/>
			</g>
			<g>
				
					<ellipse transform="matrix(0.0265 0.9996 -0.9996 0.0265 324.897 -34.6874)" fill="#263238" cx="180.257" cy="149.462" rx="10.057" ry="0.187"/>
			</g>
			<g>
				<path fill="#263238" d="M166.964,138.767c-0.001-0.013,0.111-0.023,0.326-0.032c0.215-0.011,0.535,0,0.939,0.068
					c0.807,0.121,1.978,0.519,3.125,1.457c1.146,0.917,2.231,2.441,2.613,4.373c0.406,1.915,0.169,4.146-0.744,6.204
					c-0.921,2.061-2.346,3.714-3.784,4.997c-1.446,1.288-2.92,2.226-4.173,2.959c-1.26,0.73-2.31,1.258-3.035,1.619
					c-0.729,0.358-1.138,0.543-1.15,0.521c-0.012-0.023,0.375-0.251,1.081-0.649c0.705-0.4,1.735-0.963,2.968-1.717
					c1.229-0.758,2.671-1.709,4.079-2.989c1.401-1.274,2.781-2.896,3.674-4.892c0.882-1.99,1.12-4.142,0.748-5.984
					c-0.35-1.859-1.36-3.325-2.446-4.24c-1.086-0.93-2.203-1.354-2.982-1.516C167.417,138.78,166.963,138.806,166.964,138.767z"/>
			</g>
			<g>
				<path fill="#263238" d="M197.629,159.8c-0.048,0.01-0.205-0.51-0.377-1.37c-0.174-0.858-0.354-2.058-0.453-3.392
					c-0.098-1.334-0.098-2.547-0.053-3.422s0.122-1.412,0.171-1.41c0.11,0.006,0.053,2.161,0.255,4.805
					C197.362,157.654,197.737,159.778,197.629,159.8z"/>
			</g>
		</g>
		<g>
			<g>
				<g>
					<g>
						
							<rect x="118.945" y="165.589" transform="matrix(0.9867 -0.1626 0.1626 0.9867 -28.5171 27.7218)" fill="#AC1E73" width="72.328" height="44.995"/>
					</g>
					<g opacity="0.6">
						
							<rect x="118.945" y="165.589" transform="matrix(0.9867 -0.1626 0.1626 0.9867 -28.5171 27.7218)" width="72.328" height="44.995"/>
					</g>
				</g>
			</g>
			<g>
				<g>
					<g>
						
							<rect x="121.749" y="166.515" transform="matrix(0.9867 -0.1626 0.1626 0.9867 -28.6267 28.1859)" fill="#AC1E73" width="72.325" height="44.994"/>
					</g>
					<g opacity="0.4">
						
							<rect x="121.749" y="166.515" transform="matrix(0.9867 -0.1626 0.1626 0.9867 -28.6267 28.1859)" width="72.325" height="44.994"/>
					</g>
				</g>
			</g>
			<g>
				<g>
					<g>
						
							<rect x="124.268" y="167.856" transform="matrix(0.9867 -0.1626 0.1626 0.9867 -28.8134 28.6157)" fill="#AC1E73" width="72.326" height="44.994"/>
						<g>
							<path fill="#263238" d="M121.091,174.035c0.003-0.006,0.077,0.022,0.219,0.082c0.158,0.07,0.364,0.16,0.623,0.274
								c0.567,0.259,1.365,0.623,2.382,1.087c2.085,0.97,5.062,2.356,8.732,4.063c7.376,3.473,17.53,8.253,28.745,13.533
								c0.588,0.277,1.173,0.555,1.716,0.811l-0.218,0.043c8.09-8.823,15.354-16.747,20.617-22.486
								c2.623-2.836,4.747-5.131,6.232-6.737c0.728-0.774,1.299-1.382,1.703-1.814c0.187-0.192,0.336-0.346,0.45-0.465
								c0.103-0.103,0.157-0.154,0.162-0.15c0.005,0.005-0.041,0.064-0.135,0.175c-0.108,0.125-0.247,0.287-0.423,0.489
								c-0.394,0.444-0.947,1.066-1.652,1.861c-1.466,1.625-3.56,3.947-6.147,6.816c-5.24,5.759-12.476,13.71-20.532,22.563
								l-0.092,0.102l-0.125-0.059c-0.543-0.256-1.129-0.533-1.716-0.811c-11.197-5.318-21.335-10.134-28.7-13.632
								c-3.647-1.753-6.608-3.175-8.681-4.17c-1.003-0.492-1.791-0.877-2.352-1.151c-0.253-0.128-0.453-0.229-0.607-0.308
								C121.157,174.08,121.088,174.041,121.091,174.035z"/>
						</g>
						<g>
							
								<ellipse transform="matrix(0.5939 -0.8045 0.8045 0.5939 -106.8344 194.849)" fill="#263238" cx="139.608" cy="203.259" rx="18.858" ry="0.187"/>
						</g>
						<g>
							
								<ellipse transform="matrix(0.7777 0.6286 -0.6286 0.7777 164.1834 -74.1801)" fill="#263238" cx="186.985" cy="195.072" rx="18.113" ry="0.187"/>
						</g>
					</g>
				</g>
				<polygon opacity="0.3" points="163.799,197.509 126.567,176.624 163.429,194.055 191.707,163.093 				"/>
			</g>
		</g>
		<path fill="#B78876" d="M147.948,208.527c-0.567-0.192-1.415-0.806-2.032-1.293c-0.51-0.402-0.95-0.885-1.297-1.434
			c-0.672-1.068-1.125-1.937-1.41-2.535c0-0.004,0.48-23.301,1.335-27.149s14.272-13.432,14.272-13.432l-9.04-9.279
			c0,0-9.383,6.538-16.146,16.452c-4.301,6.305,0.376,35.632,0.381,35.658c-0.395,2.784-0.768,5.859-0.779,7.568
			c-0.023,3.557,0.296,3.563,0.711,3.496c1.113-0.183,0.277-6.256,1.214-5.055c0.937,1.2,0.159,7.547,1.315,7.308
			c1.508-0.311,0.516-6.653,0.472-7.196c-0.043-0.527,0.738-0.625,0.752-0.133c0.02,0.707,0.41,8.136,1.894,7.844
			c0.822-0.16,0.396-1.61,0.396-1.61s-0.878-6.923-0.173-7.037c0.716-0.116,1.367,3.931,1.49,5.312
			c0.122,1.365,0.821,1.861,1.38,1.305c0.382-0.379,0.104-4.615-0.051-5.977c-0.153-1.363-0.642-5.091,1.094-3.449
			c1.737,1.643,3.689,2.25,4.333,2.047C148.7,209.733,148.652,208.764,147.948,208.527z"/>
	</g>
</g>
</svg>
