<?xml version="1.0" encoding="utf-8"?>
<!-- Generator: Adobe Illustrator 16.0.0, SVG Export Plug-In . SVG Version: 6.00 Build 0)  -->
<!DOCTYPE svg PUBLIC "-//W3C//DTD SVG 1.1//EN" "http://www.w3.org/Graphics/SVG/1.1/DTD/svg11.dtd">
<svg version="1.1" xmlns="http://www.w3.org/2000/svg" xmlns:xlink="http://www.w3.org/1999/xlink" x="0px" y="0px" width="540px"
	 height="500px" viewBox="0 0 540 500" style="enable-background:new 0 0 540 500;" xml:space="preserve">
<g id="Floor">
	<path id="Floor_1_" style="fill:#FAFAFA;" d="M439.85,249.22c93.81,54.16,93.81,141.97,0,196.13c-93.81,54.16-245.89,54.16-339.7,0
		c-93.8-54.16-93.8-141.97,0-196.13C193.96,195.07,346.04,195.06,439.85,249.22z"/>
</g>
<g id="Shadows">
	<path id="Shadow_8_" style="fill:#E0E0E0;" d="M343.9,406.32l44.87,26.03c1.48,0.86,3.87,0.86,5.35,0.01l65.77-37.92
		c1.48-0.85,1.48-2.24,0-3.09l-44.86-25.95c-1.48-0.85-3.88-0.86-5.35-0.01l-65.77,37.83C342.42,404.08,342.42,405.47,343.9,406.32z
		"/>
	<path id="Shadow_7_" style="fill:#E0E0E0;" d="M117.01,418.18l1.61,0.93c0.79,0.45,2.07,0.45,2.86,0l260.84-150.6
		c0.79-0.46,0.79-1.19,0-1.65l-1.61-0.93c-0.79-0.46-2.07-0.46-2.86,0l-260.84,150.6C116.22,416.98,116.22,417.72,117.01,418.18z"/>
	<polygon id="Shadow_6_" style="fill:#E0E0E0;" points="458.89,281.94 461.05,279.36 395.51,241.52 391.07,244.08 414.35,257.52 
		392,270.43 368.52,256.87 364.08,259.44 431.16,298.16 431.87,297.32 432.22,297.52 457.95,282.7 458.16,282.81 458.53,282.36 
		459.08,282.05 	"/>
	<path id="Shadow_5_" style="fill:#E0E0E0;" d="M443.4,354.19c6.15,3.55,16.11,3.55,22.26,0c6.15-3.55,6.15-9.3,0-12.85
		c-6.15-3.55-16.11-3.55-22.26,0C437.25,344.89,437.25,350.64,443.4,354.19z"/>
</g>
<g id="Gears">
	<g id="XMLID_315_">
		<path id="XMLID_324_" style="fill:#263238;" d="M101.69,148.9v0.01c-0.31-0.19-0.73-0.17-1.15,0.11l-5.57,3.66
			c-0.76,0.5-1.71,0.24-2.23-0.5c-0.34-0.48-0.7-0.92-1.08-1.33c-0.63-0.66-0.97-1.8-0.65-2.65l8.85-5.61l-6.6-3.81l0,0.01
			c-0.13-0.08-0.27-0.14-0.44-0.18l-4.2-0.94c-0.89-0.2-1.95,0.29-2.38,1.1l-3.95,7.52c-0.42,0.81-1.5,1.57-2.38,1.79
			c-0.08,0.02-0.16,0.05-0.24,0.07c0.24-0.71,0.34-1.75,0.34-1.75l-6.62-3.82l0,0.01c-0.35-0.21-0.81-0.17-1.24,0.17l-6.29,4.94
			c-0.72,0.56-1.25,1.76-1.19,2.67l0.38,5.98c0.06,0.91-0.39,2.2-0.98,2.89c-1.03,1.23-2,2.52-2.92,3.86
			c-0.51,0.75-1.65,1.34-2.56,1.3l-4.04-0.2c-0.91-0.05-1.95,0.59-2.32,1.43l-3.8,8.52c-0.34,0.76-0.05,1.63,0.65,2.05l0,0.01
			l4.48,2.58c0.14,0.37,0.19,0.77,0.11,1.16c-0.31,1.37-0.55,2.73-0.7,4.06c-0.1,0.91-0.69,2.14-1.36,2.76l-5.57,5.12
			c-0.67,0.62-1.09,1.85-0.93,2.74l1.05,6.08c0.07,0.4,0.25,0.67,0.5,0.82l-0.01,0.01l6.64,3.83l0.09-7.6
			c0.76-0.5,1.71-0.24,2.23,0.5c0.34,0.48,0.7,0.92,1.08,1.33c0.63,0.66,0.97,1.8,0.65,2.65l-2.84,7.68c-0.25,0.68,0,1.35,0.56,1.7
			l0,0.01l6.63,3.83l1.81-4.94l2.56-6.37c0.42-0.81,1.5-1.57,2.38-1.79c0.84-0.21,1.71-0.5,2.58-0.85c0.84-0.34,1.72,0.03,1.98,0.91
			l1.42,4.71c0.11,0.35,0.3,0.6,0.54,0.73l0,0l6.65,3.84l-1.17-7.36l2.04-1.6c0.72-0.56,1.25-1.76,1.2-2.67l-0.38-5.98
			c-0.06-0.91,0.39-2.2,0.98-2.89c1.03-1.23,2.59-1.89,3.5-3.23c0.51-0.75,1.07-1.98,1.98-1.93l4.04,0.2
			c0.91,0.04,1.95-0.59,2.32-1.43l3.8-8.52c0.37-0.83-0.01-1.8-0.85-2.15l-3.26-1.39c-0.84-0.36-1.32-1.36-1.12-2.25
			c0.31-1.37,0.55-2.73,0.7-4.06c0.1-0.91,0.69-2.14,1.36-2.76l5.57-5.12c0.48-0.44,0.81-1.18,0.92-1.9l5.06-3.95L101.69,148.9z
			 M76.4,188.18c-6.81,5.36-13.34,3.9-14.57-3.26c-1.23-7.16,4.34-16.25,11.16-21.61c6.81-5.36,12.28-4.95,13.52,2.21
			C87.74,172.68,83.21,182.82,76.4,188.18z"/>
		<path id="XMLID_323_" style="fill:#455A64;" d="M51.53,186.83l-5.51,5.06c-0.41,0.37-0.7,0.97-0.85,1.59l8.18,4.72l0-0.44
			c0.76-0.5,1.71-0.24,2.23,0.5c0,0,0.01,0.01,0.01,0.01l7.88-4.55L51.53,186.83z"/>
		<path id="XMLID_322_" style="fill:#455A64;" d="M65.56,171.49c0.62-0.96,1.3-1.9,2.03-2.8l-7.85-4.54
			c-0.39,0.16-0.79,0.26-1.15,0.25l-4.04-0.2c-0.57-0.03-1.2,0.22-1.68,0.61l12.08,6.98L65.56,171.49z"/>
		<path id="XMLID_321_" style="fill:#455A64;" d="M108.29,152.7c-0.31-0.18-0.71-0.14-1.13,0.13l-5.57,3.66
			c-0.76,0.5-1.7,0.24-2.23-0.51c-0.34-0.48-0.69-0.92-1.09-1.33c-0.63-0.66-0.97-1.79-0.65-2.65l0.53-1.42l2.39-1.57
			c0.43-0.28,0.85-0.3,1.16-0.11v-0.01L108.29,152.7z"/>
		<path id="XMLID_320_" style="fill:#455A64;" d="M91.84,151.07c-0.06-0.07-0.12-0.16-0.19-0.23c-0.63-0.66-0.97-1.8-0.65-2.65
			l8.85-5.61l-6.6-3.81l0,0.01c-0.13-0.08-0.27-0.14-0.44-0.18l-4.2-0.94c-0.89-0.2-1.95,0.29-2.38,1.1l-3.95,7.52
			c-0.19,0.36-0.52,0.71-0.9,1.01l8.91,5.15L91.84,151.07z"/>
		<path id="XMLID_319_" style="fill:#455A64;" d="M64.82,149.35l8.18,4.73l6.73-6.16c0.19-0.68,0.27-1.51,0.27-1.51l-6.62-3.82
			l0,0.01c-0.35-0.21-0.81-0.17-1.24,0.17l-6.29,4.94C65.39,148.07,65.02,148.7,64.82,149.35z"/>
		<path id="XMLID_316_" style="fill:#37474F;" d="M109.86,159.62l-1.05-6.08c-0.15-0.9-0.9-1.22-1.66-0.72l-5.57,3.66
			c-0.76,0.5-1.71,0.24-2.23-0.5c-0.34-0.48-0.7-0.92-1.08-1.33c-0.63-0.66-0.97-1.8-0.65-2.65l2.84-7.68
			c0.32-0.85-0.15-1.71-1.04-1.91l-4.2-0.94c-0.89-0.2-1.95,0.29-2.38,1.1l-3.94,7.52c-0.42,0.81-1.5,1.57-2.38,1.79
			c-0.84,0.21-1.71,0.5-2.58,0.85c-0.85,0.34-1.72-0.03-1.98-0.91l-1.42-4.71c-0.26-0.87-1.06-1.12-1.77-0.56l-6.29,4.94
			c-0.72,0.56-1.25,1.76-1.19,2.67l0.38,5.98c0.06,0.91-0.39,2.2-0.98,2.89c-1.03,1.23-2.01,2.52-2.92,3.86
			c-0.51,0.75-1.65,1.34-2.56,1.3l-4.04-0.2c-0.91-0.04-1.95,0.59-2.32,1.43l-3.8,8.52c-0.37,0.83,0.01,1.8,0.85,2.16l3.26,1.39
			c0.84,0.36,1.32,1.36,1.12,2.25c-0.31,1.37-0.55,2.73-0.7,4.06c-0.1,0.91-0.69,2.14-1.36,2.76l-5.57,5.12
			c-0.67,0.62-1.09,1.85-0.94,2.74l1.05,6.08c0.16,0.9,0.9,1.22,1.66,0.72l5.57-3.66c0.76-0.5,1.71-0.24,2.23,0.5
			c0.34,0.48,0.7,0.92,1.08,1.33c0.63,0.66,0.97,1.8,0.65,2.65l-2.84,7.68c-0.32,0.86,0.15,1.71,1.04,1.91l4.19,0.94
			c0.89,0.2,1.95-0.29,2.38-1.1l3.94-7.52c0.42-0.81,1.5-1.57,2.38-1.79c0.85-0.22,1.71-0.5,2.58-0.85
			c0.85-0.34,1.72,0.03,1.98,0.91l1.42,4.71c0.26,0.87,1.06,1.12,1.77,0.56l6.29-4.94c0.72-0.56,1.25-1.76,1.19-2.67l-0.37-5.98
			c-0.06-0.91,0.39-2.2,0.98-2.89c1.03-1.23,2.01-2.53,2.92-3.86c0.51-0.75,1.65-1.34,2.56-1.3l4.04,0.2
			c0.91,0.04,1.95-0.59,2.32-1.43l3.8-8.52c0.37-0.83-0.01-1.8-0.84-2.15l-3.27-1.39c-0.84-0.36-1.32-1.36-1.12-2.25
			c0.31-1.37,0.55-2.73,0.7-4.06c0.1-0.91,0.69-2.14,1.36-2.76l5.57-5.12C109.6,161.75,110.02,160.52,109.86,159.62z M83.02,192
			c-6.81,5.36-13.34,3.9-14.57-3.26c-1.23-7.16,3.29-17.3,10.11-22.66c6.81-5.36,13.34-3.9,14.57,3.26
			C94.35,176.5,89.83,186.64,83.02,192z"/>
	</g>
	<g id="XMLID_303_">
		<path id="XMLID_312_" style="fill:#263238;" d="M161.15,222.25l-6.52-3.76c0,0,0,0,0,0.01c-0.27-0.15-0.63-0.16-1.02,0.01
			l-11.77,5.31c-0.83,0.37-1.69-0.04-1.96-0.91c-0.69-2.16-1.57-4.11-2.62-5.84c-0.48-0.78-0.58-2.04-0.18-2.85l7.85-15.82
			c0.41-0.82,0.09-1.85-0.69-2.3l-8.52-4.92c-0.79-0.46-1.84-0.21-2.34,0.55l-9.78,14.71c-0.5,0.76-1.65,1.3-2.56,1.27
			c-1.11-0.03-2.25,0.03-3.42,0.16v-10.75l-6.53-3.77v0c-0.29-0.15-0.67-0.14-1.07,0.1l-13.23,7.64c-0.79,0.46-1.5,1.56-1.58,2.47
			l-1.33,14.72c-0.08,0.91-0.71,2.13-1.38,2.75c-2.57,2.37-5.03,4.98-7.35,7.78c-0.58,0.7-1.74,1.04-2.6,0.74l-8.49-2.96
			c-0.86-0.3-1.93,0.1-2.38,0.89l-9.72,16.84c-0.46,0.79-0.27,1.91,0.42,2.51l6.81,5.87c0.69,0.59,0.98,1.76,0.66,2.62
			c-1.26,3.4-2.3,6.84-3.06,10.25c-0.2,0.89-0.95,2.04-1.69,2.56l-12.08,8.51c-0.75,0.53-1.35,1.69-1.35,2.6v15.27
			c0,0.47,0.18,0.81,0.47,0.98l0,0l6.51,3.76l9.68-4.58c0.37,0.78,0.77,1.54,1.21,2.25c0.48,0.78,0.58,2.04,0.18,2.85l-7.85,15.82
			c-0.4,0.82-0.09,1.85,0.7,2.3l8.52,4.92c0.79,0.46,1.84,0.21,2.34-0.55l9.78-14.71c0.5-0.76,1.65-1.3,2.56-1.27
			c2.02,0.05,4.15-0.16,6.37-0.65c0.89-0.2,1.67,0.34,1.77,1.24l1.29,12.85c0.04,0.44,0.24,0.75,0.51,0.9l0,0l6.5,3.75l7.81-11.47
			c0.79-0.46,1.5-1.56,1.58-2.47l1.32-14.72c0.08-0.91,0.85-1.88,1.69-2.23c3.78-1.58,7.6-4.32,10.27-7.21
			c0.62-0.67,1.77-1.01,2.63-0.7l5.21,1.84c0.86,0.3,1.93-0.09,2.38-0.88l9.72-16.84c0.46-0.79,0.27-1.91-0.43-2.51l-4.48-3.86
			c-0.69-0.6-0.98-1.77-0.73-2.64c1.07-3.77,1.32-8.7,1.21-12.21c-0.03-0.91,0.52-2.07,1.27-2.6l12.08-8.51
			c0.75-0.52,1.35-1.69,1.35-2.6l5.77-6.92L161.15,222.25z M103.39,282.79c-12.34,7.12-20.01,2.07-20.01-12.18
			c0-14.25,10.2-31.71,22.54-38.83c12.34-7.12,19.82-1.94,19.82,12.31C125.74,258.33,115.73,275.66,103.39,282.79z"/>
		<path id="XMLID_311_" style="fill:#455A64;" d="M142.32,203.64l2.59-5.23c0.41-0.82,0.09-1.85-0.69-2.3l-8.52-4.92
			c-0.79-0.46-1.84-0.21-2.34,0.55l-9.78,14.71c-0.16,0.24-0.39,0.44-0.65,0.63l10.95,6.32L142.32,203.64z"/>
		<path id="XMLID_310_" style="fill:#455A64;" d="M66.04,267.11c-0.28,0.4-0.6,0.76-0.93,0.99l-12.08,8.51
			c-0.3,0.21-0.57,0.55-0.8,0.91l7.37,4.26l16.04-9.12L66.04,267.11z"/>
		<path id="XMLID_309_" style="fill:#455A64;" d="M73.38,226.47c-0.68,0.02-1.36,0.39-1.7,0.98l-9.72,16.84
			c-0.21,0.37-0.27,0.81-0.22,1.23l8.38,4.84l13.31-18.01L73.38,226.47z"/>
		<path id="XMLID_308_" style="fill:#455A64;" d="M95.46,202.68l10.37,5.99l11.78-6.8v-4.75l-6.53-3.77v0
			c-0.29-0.15-0.67-0.14-1.07,0.1l-13.23,7.64C96.24,201.4,95.75,202.02,95.46,202.68z"/>
		<path id="XMLID_305_" style="fill:#37474F;" d="M161.62,238.51v-15.27c0-0.91-0.67-1.35-1.5-0.97l-11.77,5.31
			c-0.83,0.37-1.69-0.04-1.96-0.91c-0.69-2.16-1.57-4.11-2.62-5.84c-0.48-0.78-0.58-2.04-0.18-2.85l7.85-15.82
			c0.41-0.82,0.09-1.85-0.7-2.3l-8.52-4.92c-0.79-0.46-1.84-0.21-2.34,0.55l-9.78,14.71c-0.5,0.76-1.65,1.3-2.56,1.27
			c-2.02-0.05-4.15,0.16-6.37,0.65c-0.89,0.2-1.67-0.34-1.76-1.24l-1.29-12.85c-0.09-0.91-0.81-1.27-1.59-0.82l-13.23,7.64
			c-0.79,0.46-1.5,1.56-1.58,2.47l-1.33,14.72c-0.08,0.91-0.71,2.13-1.38,2.75c-2.57,2.37-5.03,4.98-7.35,7.78
			c-0.58,0.7-1.74,1.04-2.6,0.74l-8.49-2.97c-0.86-0.3-1.93,0.1-2.38,0.89l-9.72,16.84c-0.46,0.79-0.27,1.91,0.42,2.51l6.81,5.87
			c0.69,0.6,0.98,1.76,0.66,2.62c-1.26,3.4-2.29,6.84-3.06,10.25c-0.2,0.89-0.95,2.04-1.69,2.56l-12.08,8.5
			c-0.75,0.53-1.35,1.69-1.35,2.6v15.27c0,0.91,0.67,1.35,1.5,0.97l11.77-5.31c0.83-0.37,1.69,0.04,1.96,0.91
			c0.68,2.17,1.57,4.11,2.62,5.84c0.48,0.78,0.58,2.04,0.18,2.85l-7.85,15.82c-0.4,0.82-0.09,1.85,0.7,2.3l8.52,4.92
			c0.79,0.46,1.84,0.21,2.34-0.55l9.78-14.71c0.5-0.76,1.65-1.3,2.56-1.27c2.02,0.05,4.15-0.16,6.37-0.65
			c0.89-0.2,1.67,0.34,1.77,1.24l1.29,12.85c0.09,0.91,0.8,1.27,1.59,0.82l13.23-7.64c0.79-0.46,1.5-1.56,1.58-2.47l1.33-14.72
			c0.08-0.91,0.7-2.13,1.38-2.75c2.57-2.37,5.03-4.98,7.34-7.78c0.58-0.7,1.74-1.04,2.6-0.74l8.49,2.96c0.86,0.3,1.93-0.1,2.38-0.88
			l9.73-16.84c0.46-0.79,0.27-1.91-0.43-2.51l-6.81-5.87c-0.69-0.59-0.98-1.76-0.66-2.62c1.26-3.4,2.3-6.84,3.06-10.25
			c0.2-0.89,0.95-2.04,1.69-2.56l12.08-8.51C161.01,240.59,161.62,239.42,161.62,238.51z M109.9,286.54
			c-12.34,7.12-22.35,1.35-22.35-12.9c0-14.25,10.01-31.58,22.35-38.7c12.34-7.12,22.34-1.35,22.34,12.9
			C132.24,262.08,122.24,279.41,109.9,286.54z"/>
		<path id="XMLID_304_" style="fill:#455A64;" d="M161.15,222.25v0.01c-0.26-0.18-0.64-0.19-1.04,0l-11.77,5.3
			c-0.82,0.37-1.68-0.03-1.96-0.9c-0.46-1.49-1.02-2.86-1.68-4.14l8.91-4.02c0.4-0.18,0.76-0.17,1.02-0.01v-0.01L161.15,222.25z"/>
	</g>
</g>
<g id="Ladder">
	<g id="XMLID_276_">
		<path id="XMLID_302_" style="fill:#37474F;" d="M432.07,143.37l-36.79,100.13l-0.01,0.02c-0.08,0.26-0.3,0.5-0.64,0.69
			c-0.93,0.54-2.43,0.54-3.35,0c-0.4-0.23-0.63-0.52-0.69-0.83c-0.02-0.09-0.02-0.18,0-0.27c0.01-0.22,0.05-0.45,0.13-0.69
			l36.89-100.7c0.46-1.23,1.82-1.87,3.05-1.41C431.89,140.78,432.53,142.14,432.07,143.37z"/>
		
			<line id="XMLID_301_" style="fill:none;stroke:#37474F;stroke-width:6;stroke-miterlimit:10;" x1="382.89" y1="212.27" x2="419.79" y2="233.57"/>
		
			<line id="XMLID_300_" style="fill:none;stroke:#37474F;stroke-width:6;stroke-miterlimit:10;" x1="409.72" y1="196.78" x2="446.62" y2="218.08"/>
		<path id="XMLID_299_" style="fill:#455A64;" d="M402.05,136.49l19.68-11.36c1.61-0.92,3.41-1.07,4.94-0.39
			c1.53,0.68,2.63,2.11,3.01,3.92l32.67,152.82c0.02,0.11,0.04,0.21,0.04,0.31c0.02,0.11,0.02,0.22,0.01,0.33
			c-0.06,0.3-0.28,0.59-0.68,0.82c-0.93,0.54-2.43,0.54-3.35,0c-0.35-0.21-0.56-0.45-0.65-0.71c-0.02-0.05-0.02-0.1-0.03-0.14
			l-32.63-152.44c-0.08-0.33-0.21-0.54-0.31-0.58c-0.09-0.04-0.33-0.01-0.63,0.17l-19.69,11.36"/>
		<g id="XMLID_295_">
			<path id="XMLID_298_" style="fill:#AC1E73;" d="M434.17,282.54l-11.99-6.92c-0.39-0.23-0.71-0.78-0.71-1.24v-0.29
				c0-0.46,0.32-1.01,0.71-1.24l28.76-16.6c0.39-0.23,1.04-0.23,1.43,0l11.99,6.92c0.39,0.23,0.71,0.78,0.71,1.24v0.29
				c0,0.46-0.32,1.01-0.71,1.24l-28.76,16.6C435.2,282.77,434.56,282.77,434.17,282.54z"/>
			<path id="XMLID_297_" style="opacity:0.1;" d="M421.67,273.39c-0.13,0.22-0.21,0.48-0.21,0.71v0.29c0,0.46,0.32,1.01,0.71,1.24
				l11.99,6.92c0.2,0.11,0.46,0.17,0.71,0.17v-1.69L421.67,273.39z"/>
			<path id="XMLID_296_" style="opacity:0.15;" d="M434.88,281.01v1.69c0.26,0,0.52-0.06,0.72-0.17l14.38-8.3l14.38-8.3
				c0.39-0.23,0.71-0.78,0.71-1.24v-0.29c0-0.23-0.08-0.48-0.21-0.7L434.88,281.01z"/>
		</g>
		<g id="XMLID_291_">
			<path id="XMLID_294_" style="fill:#AC1E73;" d="M428.97,258.24l-11.99-6.92c-0.4-0.23-0.71-0.78-0.71-1.24v-0.29
				c0-0.46,0.32-1.01,0.71-1.24l28.76-16.6c0.4-0.23,1.04-0.23,1.43,0l11.99,6.92c0.39,0.23,0.71,0.78,0.71,1.24v0.29
				c0,0.46-0.32,1.01-0.71,1.24l-28.76,16.6C430,258.46,429.36,258.46,428.97,258.24z"/>
			<path id="XMLID_293_" style="opacity:0.1;" d="M416.48,249.09c-0.13,0.22-0.21,0.48-0.21,0.71v0.29c0,0.46,0.32,1.01,0.71,1.24
				l11.99,6.92c0.2,0.11,0.46,0.17,0.71,0.17v-1.7L416.48,249.09z"/>
			<path id="XMLID_292_" style="opacity:0.15;" d="M429.68,256.71v1.7c0.26,0,0.52-0.06,0.72-0.17l14.38-8.3l14.38-8.3
				c0.39-0.23,0.71-0.78,0.71-1.24v-0.29c0-0.23-0.08-0.48-0.21-0.71L429.68,256.71z"/>
		</g>
		<g id="XMLID_287_">
			<path id="XMLID_290_" style="fill:#AC1E73;" d="M423.77,233.93l-11.99-6.92c-0.4-0.23-0.71-0.78-0.71-1.24v-0.29
				c0-0.46,0.32-1.01,0.71-1.24l28.76-16.6c0.4-0.23,1.04-0.23,1.43,0l11.99,6.92c0.4,0.23,0.72,0.78,0.72,1.24v0.29
				c0,0.46-0.32,1.01-0.72,1.24l-28.76,16.6C424.81,234.16,424.17,234.16,423.77,233.93z"/>
			<path id="XMLID_289_" style="opacity:0.1;" d="M411.28,224.78c-0.13,0.22-0.21,0.48-0.21,0.71v0.29c0,0.46,0.32,1.01,0.71,1.24
				l5.99,3.46l5.99,3.46c0.2,0.11,0.46,0.17,0.71,0.17v-1.7L411.28,224.78z"/>
			<path id="XMLID_288_" style="opacity:0.15;" d="M424.49,232.41v1.7c0.26,0,0.52-0.06,0.71-0.17l14.38-8.3l14.38-8.3
				c0.4-0.23,0.72-0.78,0.72-1.24v-0.29c0-0.23-0.08-0.48-0.21-0.71L424.49,232.41z"/>
		</g>
		<g id="XMLID_283_">
			<path id="XMLID_286_" style="fill:#AC1E73;" d="M418.57,209.63l-11.99-6.92c-0.39-0.23-0.71-0.78-0.71-1.24v-0.29
				c0-0.46,0.32-1.01,0.71-1.24l28.76-16.6c0.39-0.23,1.04-0.23,1.43,0l11.99,6.92c0.4,0.23,0.72,0.78,0.72,1.24v0.29
				c0,0.46-0.32,1.01-0.72,1.24L420,209.63C419.61,209.86,418.97,209.86,418.57,209.63z"/>
			<path id="XMLID_285_" style="opacity:0.15;" d="M419.29,208.11v1.69c0.26,0,0.52-0.06,0.71-0.17l14.38-8.3l14.38-8.3
				c0.4-0.23,0.72-0.78,0.72-1.24v-0.29c0-0.23-0.08-0.48-0.21-0.71L419.29,208.11z"/>
			<path id="XMLID_284_" style="opacity:0.1;" d="M406.08,200.48c-0.13,0.22-0.21,0.48-0.21,0.7v0.29c0,0.46,0.32,1.01,0.71,1.24
				l11.99,6.92c0.2,0.11,0.46,0.17,0.71,0.17v-1.69L406.08,200.48z"/>
		</g>
		<g id="XMLID_279_">
			<path id="XMLID_282_" style="fill:#AC1E73;" d="M413.38,185.33l-19.92-11.5c-0.39-0.23-0.71-0.78-0.71-1.24v-0.29
				c0-0.46,0.32-1.01,0.71-1.24l28.76-16.6c0.39-0.23,1.04-0.23,1.43,0l19.92,11.5c0.39,0.23,0.72,0.78,0.72,1.24v0.29
				c0,0.46-0.32,1.01-0.72,1.24l-28.76,16.6C414.41,185.56,413.77,185.56,413.38,185.33z"/>
			<path id="XMLID_281_" style="opacity:0.15;" d="M414.09,183.81v1.69c0.26,0,0.52-0.06,0.71-0.17l14.38-8.3l14.38-8.3
				c0.39-0.23,0.72-0.78,0.72-1.24v-0.29c0-0.23-0.08-0.48-0.21-0.7L414.09,183.81z"/>
			<path id="XMLID_280_" style="opacity:0.1;" d="M392.95,171.6c-0.13,0.22-0.21,0.48-0.21,0.7v0.29c0,0.46,0.32,1.01,0.71,1.24
				l19.92,11.5c0.2,0.11,0.46,0.17,0.71,0.17v-1.69L392.95,171.6z"/>
		</g>
		<path id="XMLID_278_" style="fill:#37474F;" d="M405.25,158.86l-36.76,100.02l-0.01,0.03l-0.08,0.22
			c-0.11,0.21-0.31,0.4-0.59,0.58c-0.92,0.53-2.43,0.53-3.36,0c-0.4-0.24-0.63-0.53-0.68-0.82c-0.01-0.09-0.01-0.18,0-0.27
			c0.01-0.24,0.06-0.46,0.14-0.69l36.89-100.7c0.45-1.23,1.81-1.86,3.05-1.41C405.07,156.27,405.69,157.63,405.25,158.86z"/>
		<path id="XMLID_277_" style="fill:#455A64;" d="M404.42,140.61c-1.09,0.64-1.84,2.32-1.58,3.55l32.67,152.81
			c0.03,0.12,0.05,0.25,0.05,0.37c0.01,0.08,0.01,0.17,0,0.26c-0.05,0.3-0.28,0.59-0.69,0.83c-0.92,0.54-2.43,0.54-3.35,0
			c-0.34-0.2-0.55-0.44-0.65-0.69c0-0.01,0-0.02-0.01-0.03l-0.04-0.2L398.2,145.16c-0.69-3.21,1-7.02,3.85-8.66"/>
	</g>
</g>
<g id="Window">
	<g id="XMLID_268_">
		<path id="XMLID_275_" style="fill:#E0E0E0;" d="M383.75,20.02c0-1.52-0.53-2.58-1.4-3.08c-0.8-0.46-3.67-2.14-4.48-2.61
			c-0.86-0.49-2.05-0.42-3.36,0.34L120.35,161.45c-2.63,1.52-4.76,5.21-4.76,8.25l0,226.4c0,1.52,0.54,2.59,1.4,3.08
			c0.8,0.46,3.66,2.12,4.46,2.59c0.86,0.51,2.05,0.44,3.38-0.32l254.17-146.78c2.63-1.52,4.76-5.21,4.76-8.25V20.02z"/>
		<path id="XMLID_274_" style="fill:#AC1E73;" d="M382.36,16.94c-0.86-0.51-2.05-0.43-3.37,0.33L124.82,164.05
			c-1.32,0.76-2.51,2.07-3.37,3.55l-4.48-2.59c0.87-1.5,2.06-2.81,3.38-3.56L374.52,14.67c1.31-0.76,2.5-0.83,3.36-0.34
			C378.68,14.8,381.55,16.47,382.36,16.94z"/>
		<path id="XMLID_273_" style="opacity:0.7;fill:#FFFFFF;" d="M382.36,16.94c-0.86-0.51-2.05-0.43-3.37,0.33L124.82,164.05
			c-1.32,0.76-2.51,2.07-3.37,3.55l-4.48-2.59c0.87-1.5,2.06-2.81,3.38-3.56L374.52,14.67c1.31-0.76,2.5-0.83,3.36-0.34
			C378.68,14.8,381.55,16.47,382.36,16.94z"/>
		<path id="XMLID_272_" style="fill:#F0F0F0;" d="M124.82,164.05L378.99,17.27c2.63-1.52,4.77-0.29,4.77,2.75v226.4
			c0,3.04-2.13,6.73-4.76,8.25L124.82,401.45c-2.63,1.52-4.76,0.29-4.76-2.75V172.3C120.05,169.26,122.19,165.57,124.82,164.05z"/>
		<path id="XMLID_271_" style="fill:#AC1E73;" d="M121.45,167.6c-0.86,1.5-1.4,3.18-1.4,4.7v15.14l-4.47-2.59V169.7
			c0-1.52,0.53-3.2,1.39-4.69L121.45,167.6z"/>
		<path id="XMLID_270_" style="opacity:0.1;" d="M121.45,167.6c-0.86,1.5-1.4,3.18-1.4,4.7v15.14l-4.47-2.59V169.7
			c0-1.52,0.53-3.2,1.39-4.69L121.45,167.6z"/>
		<path id="XMLID_269_" style="fill:#AC1E73;" d="M383.75,20.02c0-3.04-2.13-4.27-4.77-2.75L124.82,164.05
			c-2.63,1.52-4.76,5.21-4.76,8.25v15.14l263.7-152.28V20.02z"/>
	</g>
	<g id="XMLID_257_">
		<polygon id="XMLID_267_" style="fill:#AC1E73;" points="128.99,192.85 128.99,337.36 227.32,280.59 227.32,172.35 164.75,172.21 
					"/>
		<g id="XMLID_262_">
			
				<path id="XMLID_266_" style="fill:none;stroke:#FAFAFA;stroke-width:1.5;stroke-linecap:round;stroke-linejoin:round;stroke-miterlimit:10;" d="
				M187.93,212.21c0,4.28,3,6.01,6.71,3.87c3.7-2.14,6.7-7.34,6.7-11.61c0-4.28-3-6.01-6.7-3.87
				C190.93,202.73,187.93,207.93,187.93,212.21z"/>
			
				<polygon id="XMLID_265_" style="fill:none;stroke:#FAFAFA;stroke-width:1.5;stroke-linecap:round;stroke-linejoin:round;stroke-miterlimit:10;" points="
				137.93,198.01 137.93,321.88 218.38,275.43 218.38,177.37 178.16,174.79 			"/>
			
				<polyline id="XMLID_264_" style="fill:none;stroke:#FAFAFA;stroke-width:1.5;stroke-linecap:round;stroke-linejoin:round;stroke-miterlimit:10;" points="
				184.3,248.65 200.5,226.4 218.38,239.3 			"/>
			
				<polyline id="XMLID_263_" style="fill:none;stroke:#FAFAFA;stroke-width:1.5;stroke-linecap:round;stroke-linejoin:round;stroke-miterlimit:10;" points="
				137.93,285.75 164.75,234.14 196.04,257.36 			"/>
		</g>
		<g id="XMLID_258_">
			<path id="XMLID_261_" style="opacity:0.1;" d="M164.75,172.21c0,0,15.45,4.69,20.16,12.9c4.1,7.14,4.26,10.32,4.26,10.32
				s26.44-5.58,38.15-23.08L164.75,172.21z"/>
			<path id="XMLID_260_" style="fill:#AC1E73;" d="M164.75,172.21c0,0,24.17,2.58,31.29,24.41c13.41-4.54,24.2-12.2,31.29-24.26
				L164.75,172.21z"/>
			<path id="XMLID_259_" style="opacity:0.7;fill:#FFFFFF;" d="M164.75,172.21c0,0,24.17,2.58,31.29,24.41
				c13.41-4.54,24.2-12.2,31.29-24.26L164.75,172.21z"/>
		</g>
	</g>
	<g id="XMLID_226_">
		<g id="XMLID_250_">
			<path id="XMLID_256_" style="fill:#AC1E73;" d="M328.47,172.66c-0.76,0.57-1.98,2.5-3.33,5.94c1.58-0.69,2.89-2,3.67-3.37
				c0.23-0.4,0.93-1.77,0.44-2.46C328.96,172.37,328.7,172.49,328.47,172.66z"/>
			<path id="XMLID_255_" style="fill:#AC1E73;" d="M315.47,168.94c-0.57,0.29-0.77,0.69-0.9,1.21c-0.29,1.19-0.12,2.79,0.6,4.32
				c0.93-2.36,1.29-4.23,1.11-5.19C316.21,168.87,316.04,168.65,315.47,168.94z"/>
			<path id="XMLID_254_" style="fill:#AC1E73;" d="M301.33,186.46c-0.05,0.01-0.1,0.03-0.16,0.06c-0.19,0.1-0.41,0.31-0.67,0.87
				c-0.6,1.25,0,1.95,0.19,2.14c0.67,0.64,1.9,0.66,3.5-0.28C303.15,187.02,302.06,186.27,301.33,186.46z"/>
			<path id="XMLID_251_" style="fill:#AC1E73;" d="M317.11,138.35c-15,7.62-28.01,29.54-29.05,48.94
				c-1.49,27.9,16.05,23.48,15.45,34.73c-0.1,1.79,0.72,3.12,2.48,3.55c3.51,0.87,9.45-2.14,13.25-6.74c1.9-2.3,2.91-4.55,3.01-6.34
				l0,0c0.6-11.24,18.65-24.92,20.14-52.81C343.43,140.28,332.11,130.73,317.11,138.35z M330.35,176.37
				c-1.39,2.46-3.67,4.66-6.38,5.55c-0.69,2.15-1.38,4.68-2.03,7.62c-3.07,13.84-3.51,24.71-3.52,24.82
				c-0.03,0.79-0.56,1.71-1.18,2.04c-0.01,0-0.02,0.01-0.02,0.01c-0.61,0.31-1.07-0.07-1.04-0.85c0.02-0.46,0.46-11.36,3.62-25.6
				c0.61-2.76,1.29-5.32,2.01-7.63c-0.9,0.04-1.83-0.06-2.77-0.36c-1.69-0.51-3.06-1.42-4.13-2.54c-1.25,2.3-2.8,4.69-4.64,7
				c-1.03,1.29-2.02,2.38-2.97,3.27c0.51,1.69,0.94,3.68,1.28,5.96c1.78,11.73,1.04,22.78,1.01,23.25c-0.06,0.81-0.57,1.62-1.22,2
				c-0.62,0.3-1.07-0.12-1.02-0.92c0.01-0.11,0.74-11.15-0.99-22.53c-0.37-2.42-0.82-4.37-1.31-5.92c-2.77,1.9-4.93,1.95-6.12,0.8
				c-1.2-1.15-1.26-3.45-0.16-5.74c0.83-1.74,1.97-2.91,3.14-3.2c1.75-0.45,3.34,1.03,4.61,4.11c0.84-0.77,1.74-1.75,2.69-2.94
				c1.84-2.31,3.31-4.64,4.43-6.78c-1.37-2.27-1.77-4.99-1.2-7.32c0.5-2.01,1.68-3.66,3.17-4.42c1.49-0.76,2.56-0.25,2.86,1.35
				c0.35,1.86-0.38,5.16-2.07,8.98c0.95,1.09,2.25,2.01,3.93,2.53c0.87,0.27,1.72,0.35,2.52,0.29c1.68-4.58,3.53-7.8,5.32-9.16
				c1.2-0.89,2.27-0.86,2.96,0.1C332.06,171.41,331.74,173.91,330.35,176.37z"/>
		</g>
		<g id="XMLID_240_">
			<path id="XMLID_249_" style="fill:#AC1E73;" d="M317.46,131.79c-1.02,0.52-1.79-0.13-1.72-1.45l0.74-13.74
				c0.07-1.32,0.95-2.8,1.97-3.32c1.02-0.52,1.79,0.13,1.72,1.45l-0.74,13.74C319.36,129.79,318.47,131.28,317.46,131.79z"/>
			<path id="XMLID_248_" style="fill:#AC1E73;" d="M300.39,146.12c-0.92,1.11-2.02,1.29-2.47,0.41l-4.67-9.2
				c-0.45-0.88-0.07-2.49,0.85-3.6c0.92-1.11,2.02-1.29,2.47-0.41l4.67,9.2C301.68,143.4,301.3,145.01,300.39,146.12z"/>
			<path id="XMLID_247_" style="fill:#AC1E73;" d="M287.27,168.22c-0.57,1.4-1.72,2.36-2.56,2.15l-8.83-2.19
				c-0.85-0.21-1.07-1.51-0.5-2.91c0.57-1.4,1.72-2.36,2.57-2.15l8.83,2.19C287.61,165.52,287.84,166.82,287.27,168.22z"/>
			<path id="XMLID_246_" style="fill:#AC1E73;" d="M281.62,192.18c-0.07,1.32-0.95,2.8-1.97,3.32l-10.62,5.4
				c-1.02,0.52-1.79-0.13-1.72-1.45c0.07-1.32,0.95-2.8,1.97-3.32l10.62-5.4C280.92,190.21,281.69,190.86,281.62,192.18z"/>
			<path id="XMLID_245_" style="fill:#AC1E73;" d="M284.95,211.58c0.45,0.88,0.07,2.49-0.85,3.6l-9.57,11.54
				c-0.92,1.11-2.02,1.29-2.47,0.41c-0.45-0.88-0.07-2.49,0.85-3.6l9.57-11.54C283.39,210.88,284.5,210.69,284.95,211.58z"/>
			<path id="XMLID_244_" style="fill:#AC1E73;" d="M343.01,182.07c0.57-1.4,1.72-2.36,2.56-2.15l8.83,2.19
				c0.85,0.21,1.07,1.52,0.5,2.91c-0.57,1.4-1.72,2.36-2.56,2.15l-8.83-2.19C342.66,184.78,342.44,183.47,343.01,182.07z"/>
			<path id="XMLID_243_" style="fill:#AC1E73;" d="M348.66,158.11c0.07-1.32,0.95-2.8,1.97-3.32l10.62-5.4
				c1.02-0.52,1.79,0.13,1.72,1.45s-0.95,2.8-1.97,3.32l-10.62,5.4C349.35,160.08,348.59,159.43,348.66,158.11z"/>
			<path id="XMLID_242_" style="fill:#AC1E73;" d="M345.33,138.72c-0.45-0.88-0.07-2.49,0.85-3.6l9.57-11.54
				c0.92-1.11,2.02-1.29,2.47-0.41c0.45,0.88,0.07,2.49-0.85,3.6l-9.57,11.54C346.88,139.42,345.77,139.6,345.33,138.72z"/>
			<path id="XMLID_241_" style="fill:#AC1E73;" d="M333.91,129.08c-0.85-0.21-1.07-1.51-0.5-2.91l5.95-14.59
				c0.57-1.4,1.72-2.36,2.57-2.15c0.85,0.21,1.07,1.51,0.5,2.91l-5.95,14.6C335.9,128.33,334.75,129.29,333.91,129.08z"/>
		</g>
		<g id="XMLID_230_">
			<path id="XMLID_239_" style="fill:#6A103F;" d="M317.46,131.79c-1.02,0.52-1.79-0.13-1.72-1.45l0.74-13.74
				c0.07-1.32,0.95-2.8,1.97-3.32c1.02-0.52,1.79,0.13,1.72,1.45l-0.74,13.74C319.36,129.79,318.47,131.28,317.46,131.79z"/>
			<path id="XMLID_238_" style="fill:#6A103F;" d="M300.39,146.12c-0.92,1.11-2.02,1.29-2.47,0.41l-4.67-9.2
				c-0.45-0.88-0.07-2.49,0.85-3.6c0.92-1.11,2.02-1.29,2.47-0.41l4.67,9.2C301.68,143.4,301.3,145.01,300.39,146.12z"/>
			<path id="XMLID_237_" style="fill:#6A103F;" d="M287.27,168.22c-0.57,1.4-1.72,2.36-2.56,2.15l-8.83-2.19
				c-0.85-0.21-1.07-1.51-0.5-2.91c0.57-1.4,1.72-2.36,2.57-2.15l8.83,2.19C287.61,165.52,287.84,166.82,287.27,168.22z"/>
			<path id="XMLID_236_" style="fill:#6A103F;" d="M281.62,192.18c-0.07,1.32-0.95,2.8-1.97,3.32l-10.62,5.4
				c-1.02,0.52-1.79-0.13-1.72-1.45c0.07-1.32,0.95-2.8,1.97-3.32l10.62-5.4C280.92,190.21,281.69,190.86,281.62,192.18z"/>
			<path id="XMLID_235_" style="fill:#6A103F;" d="M284.95,211.58c0.45,0.88,0.07,2.49-0.85,3.6l-9.57,11.54
				c-0.92,1.11-2.02,1.29-2.47,0.41c-0.45-0.88-0.07-2.49,0.85-3.6l9.57-11.54C283.39,210.88,284.5,210.69,284.95,211.58z"/>
			<path id="XMLID_234_" style="fill:#6A103F;" d="M343.01,182.07c0.57-1.4,1.72-2.36,2.56-2.15l8.83,2.19
				c0.85,0.21,1.07,1.52,0.5,2.91c-0.57,1.4-1.72,2.36-2.56,2.15l-8.83-2.19C342.66,184.78,342.44,183.47,343.01,182.07z"/>
			<path id="XMLID_233_" style="fill:#6A103F;" d="M348.66,158.11c0.07-1.32,0.95-2.8,1.97-3.32l10.62-5.4
				c1.02-0.52,1.79,0.13,1.72,1.45s-0.95,2.8-1.97,3.32l-10.62,5.4C349.35,160.08,348.59,159.43,348.66,158.11z"/>
			<path id="XMLID_232_" style="fill:#6A103F;" d="M345.33,138.72c-0.45-0.88-0.07-2.49,0.85-3.6l9.57-11.54
				c0.92-1.11,2.02-1.29,2.47-0.41c0.45,0.88,0.07,2.49-0.85,3.6l-9.57,11.54C346.88,139.42,345.77,139.6,345.33,138.72z"/>
			<path id="XMLID_231_" style="fill:#6A103F;" d="M333.91,129.08c-0.85-0.21-1.07-1.51-0.5-2.91l5.95-14.59
				c0.57-1.4,1.72-2.36,2.57-2.15c0.85,0.21,1.07,1.51,0.5,2.91l-5.95,14.6C335.9,128.33,334.75,129.29,333.91,129.08z"/>
		</g>
		<g id="XMLID_227_">
			<path id="XMLID_229_" style="fill:#AC1E73;" d="M322.35,216.04l-0.48,8.94c-0.1,1.84-1.14,4.17-3.11,6.55
				c-3.91,4.72-10.05,7.84-13.66,6.94c-1.89-0.45-2.71-1.94-2.52-3.92l0.43-8.03c0.13,1.51,0.99,2.6,2.57,3.01
				c3.61,0.9,9.75-2.22,13.66-6.94C321.22,220.21,322.25,217.9,322.35,216.04z"/>
			<path id="XMLID_228_" style="opacity:0.35;" d="M322.35,216.04l-0.48,8.94c-0.1,1.84-1.14,4.17-3.11,6.55
				c-3.91,4.72-10.05,7.84-13.66,6.94c-1.89-0.45-2.71-1.94-2.52-3.92l0.43-8.03c0.13,1.51,0.99,2.6,2.57,3.01
				c3.61,0.9,9.75-2.22,13.66-6.94C321.22,220.21,322.25,217.9,322.35,216.04z"/>
		</g>
	</g>
</g>
<g id="Paint_Pot">
	<g id="Paint_Pot_2_">
		<path id="XMLID_225_" style="fill:#37474F;" d="M467.97,325.18l-26.3-0.36l-0.23,21.48h0c-0.02,1.94,1.24,3.9,3.79,5.41
			c5.1,3.02,13.43,3.11,18.6,0.2c2.61-1.47,3.91-3.42,3.91-5.38L467.97,325.18z"/>
		<path id="XMLID_224_" style="fill:#455A64;" d="M445.59,319.5c-5.17,2.91-5.22,7.72-0.12,10.74c5.1,3.02,13.43,3.11,18.6,0.2
			c5.17-2.91,5.22-7.72,0.12-10.74C459.08,316.68,450.75,316.59,445.59,319.5z"/>
		<path id="XMLID_223_" style="fill:#263238;" d="M466.84,325.09c0,0.34-0.07,0.69-0.19,1.03c-0.4,1.23-1.47,2.38-3.15,3.32
			c-2.33,1.3-5.44,2-8.76,1.97c-3.3-0.04-6.4-0.8-8.7-2.16c-1.62-0.96-2.68-2.12-3.05-3.32c-0.13-0.36-0.19-0.73-0.19-1.1
			c0.03-1.6,1.2-3.15,3.33-4.33c2.32-1.32,5.44-2.02,8.74-1.97c3.32,0.03,6.41,0.8,8.71,2.16
			C465.71,321.93,466.86,323.49,466.84,325.09z"/>
		<path id="XMLID_222_" style="fill:#AC1E73;" d="M466.65,326.13c-0.4,1.23-1.47,2.38-3.15,3.32c-2.33,1.3-5.44,2-8.76,1.97
			c-3.3-0.04-6.4-0.8-8.7-2.16c-1.62-0.96-2.68-2.12-3.05-3.32c0.4-1.23,1.47-2.38,3.15-3.3c2.32-1.32,5.44-2.02,8.74-1.99
			c3.32,0.04,6.41,0.82,8.71,2.18C465.22,323.78,466.27,324.92,466.65,326.13z"/>
		<path id="XMLID_221_" style="fill:#263238;" d="M460.43,333.23c0.58-0.33,1.04-0.05,1.03,0.61c-0.01,0.66-0.48,1.46-1.06,1.79
			c-0.58,0.33-1.04,0.05-1.03-0.61C459.38,334.35,459.85,333.55,460.43,333.23z"/>
		<g id="XMLID_218_">
			<path id="XMLID_220_" style="fill:#E0E0E0;" d="M441.63,328.6c-1.45,2.85-4.32,9.63-0.59,12.39c0.16,0.12,0.3,0.21,0.46,0.32
				l-0.01,1.37c-0.37-0.23-0.76-0.49-1.13-0.76c-5.58-4.13,0.71-14.75,0.99-15.2c0.07-0.13,0.19-0.2,0.31-0.24L441.63,328.6z"/>
			<path id="XMLID_219_" style="fill:#E0E0E0;" d="M460.92,334.7c-0.16,0.33-4.22,8.1-10.9,9.66c-0.77,0.19-1.53,0.27-2.3,0.27
				c-2.08,0-4.15-0.64-6.22-1.95l0.01-1.37c2.76,1.92,5.54,2.58,8.26,1.95c6.17-1.45,10.12-9.01,10.15-9.09
				c0.14-0.29,0.5-0.39,0.77-0.24C460.96,334.07,461.07,334.41,460.92,334.7z"/>
		</g>
	</g>
</g>
<g id="Canvas">
	<g id="XMLID_180_">
		<path id="XMLID_217_" style="fill:#F0F0F0;" d="M456.81,388.01c0-0.56-0.37-1.12-1.11-1.55l-40.67-23.48
			c-1.48-0.85-3.88-0.85-5.35,0l-61.59,35.56c-0.74,0.43-1.11,0.99-1.11,1.54s0,4.27,0,4.83s0.37,1.12,1.11,1.54l40.67,23.48
			c1.48,0.85,3.87,0.85,5.35,0l61.59-35.56c0.74-0.43,1.11-0.99,1.11-1.54C456.81,392.28,456.81,388.57,456.81,388.01z"/>
		<path id="XMLID_216_" style="fill:#E6E6E6;" d="M391.44,425.75v4.83c-0.97,0-1.94-0.22-2.68-0.64l-40.67-23.48
			c-0.74-0.42-1.1-0.98-1.1-1.54v-4.83c0,0.56,0.36,1.12,1.1,1.54l40.67,23.49C389.5,425.55,390.47,425.75,391.44,425.75z"/>
		<path id="XMLID_215_" style="fill:#FFFFFF;" d="M348.08,398.54l61.59-35.56c1.48-0.85,3.88-0.85,5.35,0l40.67,23.48
			c1.48,0.85,1.48,2.24,0,3.09l-61.59,35.56c-1.48,0.85-3.87,0.85-5.35,0l-40.67-23.48C346.61,400.78,346.61,399.4,348.08,398.54z"
			/>
		<path id="XMLID_214_" style="fill:#27DEBF;" d="M415.03,362.99c-1.48-0.85-3.88-0.85-5.35,0l-61.59,35.56
			c-1.48,0.85-1.48,2.24,0,3.09l14.57,8.41h0c0,0,15.34,3.69,21.86-0.58c6.52-4.28,3.79-14.7,12.11-17.52
			c8.32-2.83,20.96,0.83,32.46-3.16s11.7-10.92,11.7-10.92l0,0L415.03,362.99z"/>
		<path id="XMLID_183_" style="fill:#AC1E73;" d="M415.03,362.99c-1.48-0.85-3.88-0.85-5.35,0l-61.59,35.56
			c-1.48,0.85-1.48,2.24,0,3.09l14.57,8.41h0c0,0,15.34,3.69,21.86-0.58c6.52-4.28,3.79-14.7,12.11-17.52
			c8.32-2.83,20.96,0.83,32.46-3.16s11.7-10.92,11.7-10.92l0,0L415.03,362.99z"/>
		<path id="XMLID_182_" style="fill:#AC1E73;" d="M346.98,400.09v4.83c0,0.57,0.36,1.12,1.1,1.54l14.57,8.41v-4.83l0,0l-14.57-8.41
			C347.34,401.21,346.98,400.64,346.98,400.09z"/>
		<path id="XMLID_181_" style="opacity:0.1;" d="M346.98,400.09v4.83c0,0.57,0.36,1.12,1.1,1.54l14.57,8.41v-4.83l0,0l-14.57-8.41
			C347.34,401.21,346.98,400.64,346.98,400.09z"/>
	</g>
</g>
<g id="Character_2">
	<g id="XMLID_114_">
		<g id="XMLID_177_">
			<path id="XMLID_179_" style="fill:#455A64;" d="M315.32,358.32c-0.72-1.61,2.99-3.05,5.64-2.78c1.21,0.12,2.79,1.11,3.99,1.17
				c1.82,0.09,4.02-0.5,6-0.44c2.9,0.08,3.3,2.16,2.79,3.75c-0.51,1.59-4.12,2.94-4.12,2.94l-7.11-1.77
				C319.02,360.83,316.41,360,315.32,358.32z"/>
			<path id="XMLID_178_" style="fill:#263238;" d="M331.73,359.21c-0.94,0.01-0.36,3.38-1.49,4.16c-0.59,0.41-4.27-2.26-6.29-2.86
				s-6.84,0.17-8.63-2.18c0,0,0.13,0.61,1.19,1.64c0.65,0.63,4.99,3.68,7.81,5.06c2.83,1.38,9.29,3.76,9.29,3.76L331.73,359.21z"/>
		</g>
		<g id="XMLID_173_">
			<path id="XMLID_176_" style="fill:#AC1E73;" d="M363.59,374.4c0.24,6.04-9.65,7.22-18.34,3.08c-6.56-3.13-9.49-5.38-15.45-9.83
				c-7.39-5.53-9.8-16.04-4.33-23.85l25.15-1.29c4.38,5.06,20.13,11.8,25.39,23.8C378.54,372.64,369.82,375.97,363.59,374.4
				L363.59,374.4z"/>
			<path id="XMLID_175_" style="opacity:0.35;" d="M363.59,374.4c0.24,6.04-9.65,7.22-18.34,3.08c-6.56-3.13-9.49-5.38-15.45-9.83
				c-7.39-5.53-9.61-13.9-4.33-23.85l25.15-1.29c4.38,5.06,20.13,11.8,25.39,23.8C378.54,372.64,369.82,375.97,363.59,374.4
				L363.59,374.4z"/>
			<path id="XMLID_174_" style="opacity:0.22;" d="M363.59,374.4c-0.66-5.69-4.99-8.5-8.7-11.25c-3.72-2.75-11.53-7.54-11.53-7.54
				s3.88,0.91,7.45-2.76c0,0-0.14,2.29-2.51,3.85c0,0,10.81,6.19,14.05,11.43C364.35,371.37,363.59,374.4,363.59,374.4z"/>
		</g>
		<path id="XMLID_172_" style="fill:#A66868;" d="M385.56,311.88c-2.4-3.45-3.64-2.49-4.57,0.66c-0.69,2.33-1.93,4.08-1.93,4.08
			c-0.03-1.03-2.62,0.51-2.79,2.68c-0.05,0.66-0.21,1.3-0.62,1.82c-2.08,2.63-8.05,7.14-12.27,10.39
			c-2.63-3.37-8.51-10.92-11.32-14.53c-3.86-4.94-5.11-6.86-9.61-7.34c0,0,1.71,0.62,3.46,2.72c1.75,2.1-0.49,11.98-0.49,11.98
			s13.35,13.64,14.73,14.96c0.2,0.19,0.42,0.37,0.63,0.54c1.39,1.09,3.36,1.03,4.73-0.07c3.92-3.15,9.99-9.84,13.12-13.44
			c2.12-2.43,3.23-3.39,4.59-4.74C386.17,318.67,387.06,314.04,385.56,311.88z"/>
		<g id="XMLID_169_">
			<path id="XMLID_171_" style="fill:#AC1E73;" d="M333.27,309.92L333.27,309.92c-5.91,0.41-6.33,3.26-7.8,6.38
				c-1.12,2.38-1.14,5.13-0.28,7.62l4.12,11.92c0,0-1.59,3.55-3.83,7.96c10.34,5.77,22.91,3.84,26.02-0.37
				c0.13-0.89-0.67-7.87-1.16-12.43c1.82-4.57,2.3-7.46,1.53-10.48c-1.43-5.6-6.96-11.06-9.41-10.86L333.27,309.92z"/>
			<path id="XMLID_170_" style="opacity:0.1;" d="M328.47,337.65c-0.35,0.76-0.81,1.72-1.34,2.82c-0.09,0.19-0.19,0.39-0.29,0.58
				c-0.12,0.25-0.25,0.5-0.37,0.76c-0.31,0.64-0.64,1.3-0.99,1.98c0.38,0.21,0.77,0.41,1.15,0.6c6.92,3.44,14.62,3.61,19.75,2.07
				c-3.98,0.51-7.66,0.21-10.46-0.45c-3.39-0.8-5.55-4.24-4.65-7.61c0.03-0.13,0.07-0.24,0.1-0.32c0.67-1.6,2.09-1.39,2.09-1.39
				c-1.34-0.89-2.27-2.27-2.58-3.85l-0.54-1.66c-1.24-3.76-1.31-7.83-0.18-11.63c0.01-0.04,0.02-0.07,0.03-0.11l-4.4-2.5
				c0,0-0.3,0.21-0.77,0.53c0,0,0,0,0,0.01c-0.24,0.78-0.38,1.58-0.42,2.38c0,0,0,0.01,0,0.01c-0.01,0.21-0.01,0.42,0,0.62
				c0,0.1,0,0.2,0,0.29c0.01,0.17,0.02,0.35,0.04,0.52c0.01,0.14,0.03,0.28,0.05,0.42c0.02,0.15,0.04,0.29,0.06,0.44
				c0.03,0.18,0.07,0.36,0.11,0.53c0.03,0.11,0.05,0.23,0.08,0.34c0.08,0.29,0.16,0.58,0.26,0.87l4.12,11.92
				C329.31,335.83,329,336.51,328.47,337.65z"/>
		</g>
		<g id="XMLID_145_">
			<g id="XMLID_166_">
				<path id="XMLID_168_" style="fill:#263238;" d="M351.62,308.01h-12.97c-6.92,0-12.52-5.61-12.52-12.52v-2.62
					c0-7.3,5.92-13.23,13.23-13.23l0,0c6.78,0,12.27,5.49,12.27,12.27V308.01z"/>
			</g>
			<g id="XMLID_146_">
				<g id="XMLID_164_">
					<path id="XMLID_165_" style="fill:#A66868;" d="M347.39,286.77c0.66,0.34,2.42,3.71,2.25,11.08c-0.14,6.24-2.17,7.79-3.18,8.23
						c-1.02,0.44-2.98,0.17-4.88-0.14v3.75c0,0,2.63,3.06,2.47,4.78c-0.16,1.72-3.8,2.12-6.27,0.45c-2.46-1.68-4.04-4.23-4.04-4.23
						v-9.06c0,0-1.29,1.72-3.39,0.32c-2.1-1.4-2.18-4.86-0.96-6.1s3.86-0.85,4.35,0.87c0,0,3.09,0.54,7.23-2.12
						C345.43,291.71,346.8,289.42,347.39,286.77z"/>
				</g>
				<path id="XMLID_163_" style="fill:#263238;" d="M348.41,293.75l-1.74-0.83c0.21-0.49,0.78-0.71,1.26-0.48
					C348.4,292.67,348.62,293.26,348.41,293.75z"/>
				<path id="XMLID_162_" style="fill:#263238;" d="M341.19,293.2l-1.63,1.03c-0.3-0.44-0.18-1.04,0.27-1.32
					C340.27,292.63,340.88,292.76,341.19,293.2z"/>
				<path id="XMLID_161_" style="fill:#263238;" d="M333.66,294.99l0.11,3.82c1.08,0,1.93-0.85,1.9-1.9
					C335.64,295.85,334.74,294.99,333.66,294.99z"/>
				<path id="XMLID_160_" style="fill:#263238;" d="M331.85,282.73l-1.65-3.45c-0.99,0.43-1.42,1.55-0.96,2.51
					C329.69,282.74,330.86,283.16,331.85,282.73z"/>
				<path id="XMLID_158_" style="fill:#263238;" d="M330.97,282.51l-3.81-0.33c-0.13,1.07,0.62,2.01,1.67,2.1
					C329.88,284.38,330.84,283.58,330.97,282.51z"/>
				<g id="XMLID_156_">
					
						<ellipse id="XMLID_157_" transform="matrix(0.9989 -0.0473 0.0473 0.9989 -13.6142 16.4587)" style="fill:#263238;" cx="341.19" cy="296.08" rx="0.79" ry="0.82"/>
				</g>
				<g id="XMLID_154_">
					<path id="XMLID_155_" style="fill:#854848;" d="M342.88,301.58l1.82,0.58c-0.15,0.52-0.68,0.81-1.19,0.65
						S342.73,302.1,342.88,301.58z"/>
				</g>
				<g id="XMLID_152_">
					
						<ellipse id="XMLID_153_" transform="matrix(0.9989 -0.0479 0.0479 0.9989 -13.7652 16.9695)" style="fill:#263238;" cx="347.26" cy="295.75" rx="0.79" ry="0.81"/>
				</g>
				<g id="XMLID_150_">
					<polygon id="XMLID_151_" style="fill:#854848;" points="344.21,295.27 344.33,299.99 346.82,299.22 					"/>
				</g>
				<g id="XMLID_147_">
					<path id="XMLID_149_" style="fill:#854848;" d="M341.57,305.94c-2.01-0.26-6.14-1.45-6.78-3.08c0,0,0.21,1.03,1.45,2.08
						c1.23,1.06,5.33,2.25,5.33,2.25V305.94z"/>
				</g>
			</g>
		</g>
		<path id="XMLID_144_" style="fill:#A66868;" d="M338.7,358.56c3.5-2.32,2.57-3.59-0.57-4.59c-2.31-0.74-3.73-1.74-3.73-1.74
			c1.03-0.01,1.5-0.01,2.04-0.16c1.08-0.31,1.27-1.16,1.19-1.55c-0.06-0.31-0.81-0.09-2.04-0.38c-1.58-0.37-2.36-1.06-4.12-1.02
			c-0.66,0.01-1.3-0.23-1.81-0.65c-2.59-2.14-6.83-8.57-9.99-12.85c3.06-3.46,10-14.02,10-14.02c4.28-5.61,0.78-11.18,0.78-11.18
			c-2.97,0.3-5.85,3.28-9.49,8.9c-8.16,12.59-11.38,15.16-9.09,18.45c2.87,4.13,8.79,10.34,12.05,13.83
			c1.53,1.63,3.72,3.36,5.11,4.45C333.86,359.81,336.51,360.02,338.7,358.56z"/>
		<g id="XMLID_116_">
			<g id="XMLID_141_">
				<path id="XMLID_143_" style="fill:#455A64;" d="M381.78,308.93v10.36c0,0.2-0.13,0.4-0.4,0.55c-0.53,0.31-1.39,0.31-1.93,0
					c-0.27-0.15-0.4-0.35-0.4-0.55v-10.36H381.78z"/>
				<polygon id="XMLID_142_" style="fill:#37474F;" points="379.06,311.6 381.78,313.17 381.78,308.93 379.06,308.93 				"/>
			</g>
			<g id="XMLID_118_">
				<g id="XMLID_132_">
					<g id="XMLID_136_">
						<path id="XMLID_140_" style="fill:#37474F;" d="M377.69,300.62l0,2.11l-1.82-1.05l-0.01,4.33c0,1.31,0.91,2.89,2.04,3.55
							l3.21,1.85c0.53,0.31,1.02,0.35,1.39,0.18c0.04-0.02,1.61-0.91,1.94-1.13c0.34-0.22,0.55-0.67,0.55-1.29l0-4.33L377.69,300.62
							z"/>
						<path id="XMLID_139_" style="fill:#455A64;" d="M381.1,311.41l-3.21-1.85c-1.13-0.65-2.05-2.24-2.04-3.55l0.01-4.33l7.3,4.21
							l-0.01,4.34C383.15,311.53,382.23,312.06,381.1,311.41z"/>
						<polygon id="XMLID_138_" style="fill:#F0F0F0;" points="383.16,305.89 375.86,301.68 375.86,295.36 383.16,299.57 						"/>
						<polygon id="XMLID_137_" style="fill:#E0E0E0;" points="383.16,305.89 383.16,299.57 384.99,298.52 384.99,304.84 						"/>
					</g>
					<polygon id="XMLID_135_" style="fill:#AC1E73;" points="383.16,307.77 375.86,303.56 375.86,304.42 383.16,308.68 					"/>
					<polygon id="XMLID_134_" style="fill:#AC1E73;" points="383.16,307.77 384.98,306.72 384.98,307.63 383.16,308.68 					"/>
					<polygon id="XMLID_133_" style="opacity:0.1;" points="383.16,307.77 384.98,306.72 384.98,307.63 383.16,308.68 					"/>
				</g>
				<path id="XMLID_131_" style="fill:#AC1E73;" d="M384.99,300.45c0,0-0.61,1.51-1.83,1.59l0-2.46l1.82-1.05V300.45z"/>
				<path id="XMLID_122_" style="opacity:0.1;" d="M384.99,300.45c0,0-0.61,1.51-1.83,1.59l0-2.46l1.82-1.05V300.45z"/>
				<path id="XMLID_121_" style="fill:#AC1E73;" d="M383.16,302.04c0,0-1.3,0.58-2.48-0.29c-0.87-0.65-1.17-2.92-2.84-2.96
					c-1.18-0.03-1.98,1.21-1.98,1.21v-4.63l7.3,4.22L383.16,302.04z"/>
				<polygon id="XMLID_120_" style="fill:#AC1E73;" points="375.86,295.36 377.69,294.3 384.99,298.52 383.16,299.57 				"/>
				<polygon id="XMLID_119_" style="opacity:0.7;fill:#FFFFFF;" points="375.86,295.36 377.69,294.3 384.99,298.52 383.16,299.57 
									"/>
			</g>
		</g>
		<path id="XMLID_115_" style="fill:#A66868;" d="M376.22,319.7c-0.01-1-0.22-2.98,0.25-4.21c0.47-1.24,2.68-2.92,3.43-3.4
			c0.75-0.49,1.49,0.04,1.11,1.46c-0.38,1.42-1.05,1.83-1.5,2.8c-0.45,0.97-0.45,1.59-0.45,1.59L376.22,319.7z"/>
	</g>
</g>
<g id="Character_1">
	<g id="XMLID_1_">
		<path id="XMLID_56_" style="opacity:0.1;" d="M217.49,205.09c-1.25-0.72-2.37-0.78-3.18-0.3l-22.3,12.88
			c-0.82,0.46-1.33,1.46-1.33,2.9c0,2.85,2,6.32,4.47,7.74c1.25,0.72,2.38,0.78,3.2,0.29l22.27-12.86c0.83-0.46,1.35-1.46,1.35-2.91
			C221.96,209.98,219.96,206.51,217.49,205.09z"/>
		<path id="XMLID_55_" style="fill:#FFA8A7;" d="M248.78,295.77c0,0-7.12,0.29-9.13,0.26c-5.16-5.31-12.66-12.96-14.27-15.14
			c-2.2-4.06-4.07-7.82-5.95-8.13c-1.92-0.32-5.95,0.71-6.93,2.48c-0.68,1.23,0.85,4.75,2.18,3.88c0.64,1.14,1.34,4.14,4.75,5.21
			c5.31,6.35,11.36,14.57,14.67,18.46c1.16,1.36,4.04,2.02,6.4,0.35L248.78,295.77z"/>
		<g id="XMLID_42_">
			<g id="XMLID_53_">
				<path id="XMLID_54_" style="fill:#263238;" d="M270.03,412.65c0.44,0.18,0.53,1.02,0.56,2.7c0.02,1.27,0.24,3.49-1.25,3.9
					c-1.5,0.41-3.67,0.13-4.6-1.08c-1.15-1.52-1.93-2.85-3.59-4.71c-1.44-1.61-3-3.12-3.54-5.36c-0.49-2.02-0.02-2.88,1.36-3.43
					c1.9-0.76,4.79,1.92,6.26,2.37C266.49,407.43,269.59,412.47,270.03,412.65z"/>
			</g>
			<g id="XMLID_51_">
				<path id="XMLID_52_" style="fill:#FFA8A7;" d="M270.07,411.1l-0.05,2.06c0,0-2.18,1.6-5.21,0.02c-0.09-0.2-0.47-2.96-0.47-2.96
					L270.07,411.1z"/>
			</g>
			<g id="XMLID_49_">
				<path id="XMLID_50_" style="fill:#263238;" d="M253.08,424.15c0,0,0.55,1.8,0.83,3.38c0.22,1.25,0.54,3.34,0.08,4.27
					c-0.46,0.93-2.17,1.49-4.81,1.41c-1.71-0.05-4.4,1.05-6.24,2.02c-1.91,1.01-5.83,1.34-7.82,1.06c-2.34-0.33-4.74-1.74-5.1-2.72
					c-0.36-0.98,0.17-1.98,5.75-4.21c0.05-0.02,7.75-2.33,10.49-5.22L253.08,424.15z"/>
			</g>
			<g id="XMLID_47_">
				<path id="XMLID_48_" style="fill:#FFA8A7;" d="M253.13,421.92c0,0-0.04,1.53-0.05,2.4c-0.01,0.87-1.07,2.15-3.74,2
					c-1.88-0.11-3.17-0.64-3.06-2.19l0.05-2.23L253.13,421.92z"/>
			</g>
			<g id="XMLID_45_">
				<path id="XMLID_46_" style="fill:#37474F;" d="M272.02,383.79c-0.79-6.75-2.19-10.78-2.19-10.78s0.94-9.24,1.5-18.01
					c0.59-9.47,0.46-21.4,0.69-23.76c0,0-30.45-6.88-31.24,4.07c-0.79,10.95,0.33,38.88,0.59,43.7c0.25,4.82,0.99,9.1,1.81,16.92
					c0.81,7.72,3.15,25.97,3.15,25.97c3.45,1.97,6.81,0.01,6.81,0.01s2.65-21.86,2.54-27.42c-0.12-6.79-1.83-12.17-1.83-12.17
					s0.78-9.02,1.47-16.87c0.69-7.85,1.32-11.61,1.51-15.03l0.67-0.31c0,0,0.36,13.58,0.62,18.4c0.25,4.82,0.92,9.46,2.11,18.43
					c1.03,7.78,4.26,24.28,4.26,24.28c3.45,1.97,5.58-0.12,5.58-0.12S272.82,390.54,272.02,383.79z"/>
			</g>
			<g id="XMLID_43_">
				<path id="XMLID_44_" style="fill:#263238;" d="M256.83,350.42c0,0,7.5-3.49,11.29-6.7c0,0-3.56,4.78-8.13,6.83
					c0,0-1.99,16.81-1.97,16.47l-0.56-16.61L256.83,350.42z"/>
			</g>
		</g>
		<g id="XMLID_24_">
			<polygon id="XMLID_41_" style="fill:#FFA8A7;" points="251.52,287.6 253.23,297.63 262.68,296.8 260.72,285.82 			"/>
			<g id="XMLID_39_">
				<path id="XMLID_40_" style="fill:#AC1E73;" d="M271.75,296.98c-0.83-2.73-4.2-5.76-7.65-5.19c-0.8,0.13-1.48,0.25-2.24,0.38
					c0.01,1.75-4.83,3.01-9.25,1.97c-1.33,0.35-2.55,0.71-3.66,1.08c-3.17,1.05-6.1,3.71-6.6,14.06c0,0-1.6,24.12-1.72,28.79
					c7.83,3.31,16.06,3.39,20.63,2.5c9.51-1.86,10.74-5.75,10.74-5.75s0.51-17.36,0.4-24.86
					C272.3,303.57,272.32,298.86,271.75,296.98z"/>
			</g>
			<g id="XMLID_37_">
				<path id="XMLID_38_" style="fill:#F28F8F;" d="M245.21,274.55c0,0-2.78,3.28-2.55,3.66c0.23,0.38,1.91,0.91,1.91,0.91
					L245.21,274.55z"/>
			</g>
			<g id="XMLID_35_">
				<path id="XMLID_36_" style="fill:#FFA8A7;" d="M252.91,265.48c-4.87,0.43-7.22,2.16-8.09,9.88c-0.89,7.9-0.23,10.69,0.68,11.87
					c0.61,0.8,4.05,1.08,6.08,0.77c2.54-0.38,8.31-1.68,11.39-5.33c3.61-4.3,5.18-10.53,2.22-13.51
					C261.01,264.95,254.89,265.3,252.91,265.48z"/>
			</g>
			<g id="XMLID_25_">
				<g id="XMLID_32_">
					<g id="XMLID_33_">
						<path id="XMLID_34_" style="fill:#263238;" d="M244.38,268.23c0.05,0.05,0.1,0.09,0.14,0.14c0.92,0.87,2.1,1.43,3.06,2.25
							c1.06,0.91,1.79,2.12,2.17,3.46c0.32,1.1,0.44,2.4,1.64,2.92c0,0,0.76-2.94,3.23-2.57c2.49,0.37,2.83,3.55,1.26,5.47
							c-1.57,1.93-3.03,1.19-3.03,1.19s0.08,4.2,1.94,6.57c0,0,2.12,0.68,6-0.14c2.39-0.51,5.77-3.5,7.2-6.67
							c3.01-6.7,3.22-12.72-1.06-14.53c-0.46-3.09-2.89-4.47-5.66-5.1c-4.14-0.95-8.01,1.51-12.11,0.59
							c-0.86-0.19-1.69-0.5-2.57-0.61c-0.1-0.01-0.21-0.02-0.29,0.02c-0.21,0.1-0.2,0.4-0.13,0.63c0.22,0.82,0.63,1.58,1.2,2.21
							c-1.6,0.11-3.11-0.12-4.64-0.59C242.54,265.21,243.17,267,244.38,268.23z"/>
					</g>
				</g>
				<g id="XMLID_29_">
					<g id="XMLID_30_">
						<path id="XMLID_31_" style="fill:#263238;" d="M267,267.37l2.86-1.69c-0.47-0.79-1.48-1.05-2.28-0.59
							C266.8,265.56,266.54,266.58,267,267.37z"/>
					</g>
				</g>
				<g id="XMLID_26_">
					<g id="XMLID_27_">
						<path id="XMLID_28_" style="fill:#263238;" d="M251.34,278.68l0.09-3.32c-0.92-0.02-1.68,0.7-1.71,1.62
							C249.7,277.89,250.43,278.65,251.34,278.68z"/>
					</g>
				</g>
			</g>
		</g>
		<g id="XMLID_9_">
			<g id="XMLID_21_">
				<path id="XMLID_23_" style="fill:#37474F;" d="M225.12,306.67L225.12,306.67l-3.39-21.79l-4.57,0.73l3.4,21.83l0,0
					c0.03,0.2,0.15,0.38,0.36,0.53c0.69,0.5,2.11,0.5,3.17,0C224.83,307.62,225.2,307.12,225.12,306.67z"/>
				<path id="XMLID_22_" style="fill:#455A64;" d="M217.52,286.17c0.69,0.51,2.11,0.51,3.17,0c1.06-0.51,1.36-1.33,0.67-1.83
					c-0.69-0.51-2.11-0.51-3.17,0C217.12,284.84,216.83,285.66,217.52,286.17z"/>
			</g>
			
				<polyline id="XMLID_20_" style="fill:none;stroke:#37474F;stroke-linecap:round;stroke-linejoin:round;stroke-miterlimit:10;" points="
				218.33,203.79 219.78,202.95 221.24,212.44 			"/>
			<path id="XMLID_19_" style="fill:#AC1E73;" d="M222.8,206.38c0-2.85-2-6.32-4.47-7.74c-1.25-0.72-2.37-0.78-3.18-0.3
				l-22.33,12.89l6.31,10.94l22.31-12.88C222.28,208.83,222.8,207.82,222.8,206.38z"/>
			<path id="XMLID_18_" style="fill:#AC1E73;" d="M222.8,206.38c0-2.85-2-6.32-4.47-7.74c-1.25-0.72-2.37-0.78-3.18-0.3
				l-22.33,12.89l6.31,10.94l22.31-12.88C222.28,208.83,222.8,207.82,222.8,206.38z"/>
			<path id="XMLID_17_" style="opacity:0.8;fill:#FFFFFF;" d="M222.8,206.38c0-2.85-2-6.32-4.47-7.74c-1.25-0.72-2.37-0.78-3.18-0.3
				l-22.33,12.89l6.31,10.94l22.31-12.88C222.28,208.83,222.8,207.82,222.8,206.38z"/>
			<path id="XMLID_16_" style="opacity:0.6;fill:#FFFFFF;" d="M220.16,200.16l-22.34,12.9c-0.56-0.62-1.18-1.14-1.84-1.52
				c-1.13-0.66-2.17-0.77-2.96-0.43l22.12-12.77c0.81-0.47,1.94-0.42,3.19,0.3C218.98,199.02,219.6,199.55,220.16,200.16z"/>
			<path id="XMLID_15_" style="fill:#AC1E73;" d="M195.98,211.54c2.47,1.43,4.47,4.89,4.47,7.74c0,2.85-2,4.01-4.47,2.58
				s-4.47-4.89-4.47-7.74C191.51,211.27,193.51,210.11,195.98,211.54z"/>
			<path id="XMLID_14_" style="opacity:0.6;fill:#FFFFFF;" d="M195.98,211.54c2.47,1.43,4.47,4.89,4.47,7.74
				c0,2.85-2,4.01-4.47,2.58s-4.47-4.89-4.47-7.74C191.51,211.27,193.51,210.11,195.98,211.54z"/>
			<path id="XMLID_13_" style="opacity:0.5;fill:#FFFFFF;" d="M193.03,211.11c-0.07,0.03-0.13,0.09-0.2,0.13l-0.01-0.01
				L193.03,211.11z"/>
			
				<polyline id="XMLID_12_" style="fill:none;stroke:#37474F;stroke-linecap:round;stroke-linejoin:round;stroke-miterlimit:10;" points="
				221.24,212.44 195.98,227.02 194.53,217.54 195.98,216.7 			"/>
			
				<line id="XMLID_11_" style="fill:none;stroke:#37474F;stroke-linecap:round;stroke-linejoin:round;stroke-miterlimit:10;" x1="219.42" y1="284.85" x2="209.39" y2="219.28"/>
			<path id="XMLID_10_" style="fill:none;stroke:#37474F;stroke-linecap:round;stroke-linejoin:round;stroke-miterlimit:10;" d="
				M212.51,239.33"/>
		</g>
		<g id="XMLID_6_">
			<path id="XMLID_8_" style="fill:#FFA8A7;" d="M247.74,295.71c-3.81,0.56-6.42,3.52-10.69,8.74c-3.8,4.66-7.29,10.04-7.29,10.04
				s-6.48-11.54-7.07-14.04c-0.6-2.5,0.51-3.21,1.15-6.72c0.64-3.51-1.51-4.93-1.51-4.93l0.25,1.58c-0.18,1.29-1.36,2.33-2.5,2.64
				c0,0-1.77-0.03-2.16-2.54l-0.58-3.74c0,0-2.43,0.17-2.62,5.94c-0.15,4.46,0.9,6.56,1.64,9.54c0.65,2.6,3.92,14.96,7.62,21.01
				c1.43,2.33,3.32,5.08,7.9,1.29c4.57-3.8,14.43-14.42,14.43-14.42S251.35,305.28,247.74,295.71z"/>
			<path id="XMLID_7_" style="fill:#37474F;" d="M248.95,295.21c-2.75,0.36-5.48,1.33-8.32,4.43c-2.84,3.1-8.77,10.95-8.77,10.95
				s0.24,5.57,6.52,8.5l9.26-9.13c0,0,3.03-3.13,3.37-7.74C251.45,296.26,248.95,295.21,248.95,295.21z"/>
		</g>
		<g id="XMLID_2_">
			<path id="XMLID_5_" style="fill:#F28F8F;" d="M215.83,274.51c0.49,0.7,0.93,1.42,1.31,2.73c0.24,0.85,0.31,3.32,3.33,3.65
				c0,0-0.24-3.86-1.55-5.17C217.61,274.4,215.83,274.51,215.83,274.51z"/>
			<path id="XMLID_4_" style="fill:#FFA8A7;" d="M220.85,281.1c-3.04-1.59-2.26-3.19-3.87-5.08c-1.45-1.7-1.59-2.23-1.42-2.87
				c0.11-0.41,0.51-0.48,1.28-0.3c1.98,0.45,3.27,2.51,4.26,4.08L220.85,281.1z"/>
			<path id="XMLID_3_" style="fill:#F28F8F;" d="M214.69,279.11c0,0,0.22-0.22,0.22-0.49c0,0,0.42,0.44,0.93,0.25
				c0.51-0.2,0.7-0.59,0.73-0.93c0,0,0.08,0.93-0.73,1.17C215.03,279.35,215,279,215,279s-0.04,0.23-0.19,0.36"/>
		</g>
	</g>
</g>
</svg>
