<?xml version="1.0" encoding="utf-8"?>
<!-- Generator: Adobe Illustrator 19.0.0, SVG Export Plug-In . SVG Version: 6.00 Build 0)  -->
<svg version="1.1" id="Layer_1" focusable="false" xmlns="http://www.w3.org/2000/svg" xmlns:xlink="http://www.w3.org/1999/xlink"
	 x="0px" y="0px" viewBox="-145 141 320 512" style="enable-background:new -145 141 320 512;" xml:space="preserve">
<style type="text/css">
	.st0{fill:#6E6E6E;}
	.st1{fill:none;}
	.st2{enable-background:new    ;}
</style>
<path class="st0" d="M127,141H-97c-26.5,0-48,21.5-48,48v416c0,26.5,21.5,48,48,48h224c26.5,0,48-21.5,48-48V189
	C175,162.5,153.5,141,127,141z M15,621c-17.7,0-32-14.3-32-32s14.3-32,32-32s32,14.3,32,32S32.7,621,15,621z M127,513
	c0,6.6-5.4,12-12,12H-85c-6.6,0-12-5.4-12-12V201c0-6.6,5.4-12,12-12h200c6.6,0,12,5.4,12,12V513z"/>
<rect x="-77.7" y="280" class="st1" width="185.3" height="253.3"/>
<g class="st2">
	<path class="st0" d="M17.6,380.5v-32.8h75.2v67.1c-14.4,9.8-27.1,16.5-38.2,20s-24.2,5.3-39.4,5.3c-18.7,0-33.9-3.2-45.7-9.6
		c-11.8-6.4-20.9-15.9-27.4-28.5c-6.5-12.6-9.7-27.1-9.7-43.4c0-17.2,3.5-32.1,10.6-44.8c7.1-12.7,17.5-22.4,31.2-29
		c10.7-5.1,25-7.6,43.1-7.6c17.4,0,30.4,1.6,39,4.7c8.6,3.2,15.8,8,21.5,14.7c5.7,6.6,10,15,12.8,25.2l-46.9,8.4
		c-1.9-5.9-5.2-10.5-9.8-13.6c-4.6-3.2-10.5-4.7-17.7-4.7c-10.7,0-19.2,3.7-25.5,11.1s-9.5,19.1-9.5,35.2c0,17,3.2,29.2,9.6,36.5
		c6.4,7.3,15.3,11,26.8,11c5.4,0,10.6-0.8,15.6-2.4c4.9-1.6,10.6-4.3,17-8.1v-14.8H17.6z"/>
</g>
</svg>
