<?xml version="1.0" encoding="utf-8"?>
<!-- Generator: Adobe Illustrator 16.0.0, SVG Export Plug-In . SVG Version: 6.00 Build 0)  -->
<!DOCTYPE svg PUBLIC "-//W3C//DTD SVG 1.1//EN" "http://www.w3.org/Graphics/SVG/1.1/DTD/svg11.dtd">
<svg version="1.1" xmlns="http://www.w3.org/2000/svg" xmlns:xlink="http://www.w3.org/1999/xlink" x="0px" y="0px" width="540px"
	 height="500px" viewBox="0 0 540 500" enable-background="new 0 0 540 500" xml:space="preserve">
<g id="Floor">
	<path id="Floor_1_" fill="#F5F5F5" d="M445.143,249.026c88.337,50.242,88.336,131.702-0.001,181.945
		c-88.337,50.242-231.56,50.242-319.896,0c-88.336-50.243-88.336-131.702,0-181.945
		C213.584,198.784,356.806,198.783,445.143,249.026z"/>
</g>
<g id="Shadow_3_">
	<path id="Shadow_1_" fill="#E6E6E6" d="M466.936,341.978c21.123,13.243,21.123,34.715,0,47.959
		c-21.125,13.244-55.375,13.244-76.5,0s-21.125-34.716,0-47.959S445.811,328.734,466.936,341.978z"/>
</g>
<g id="Plants">
	<g id="XMLID_433_">
		<g id="XMLID_441_">
			<path id="XMLID_442_" fill="#27DEBF" d="M71.525,267.474c0,0-0.598-11.03-5.346-22.746
				c-4.748-11.717-13.873-23.521-24.387-25.747c-10.514-2.226-14.965,4.842-12.747,11.792c1.91,5.982,9.725,10.949,15.655,16.17
				c5.933,5.222,17.008,17.839,20.088,30.032l5.931,0.648L71.525,267.474z"/>
		</g>
		<g id="XMLID_439_" opacity="0.15">
			<path id="XMLID_440_" d="M71.525,267.474c0,0-0.598-11.03-5.346-22.746c-4.748-11.717-13.873-23.521-24.387-25.747
				c-10.514-2.226-14.965,4.842-12.747,11.792c1.91,5.982,9.725,10.949,15.655,16.17c5.933,5.222,17.008,17.839,20.088,30.032
				l5.931,0.648L71.525,267.474z"/>
		</g>
		<g id="XMLID_437_">
			<path id="XMLID_438_" fill="#FFFFFF" d="M67.475,272.966c-0.354,0-0.646-0.28-0.658-0.636
				c-1.104-30.649-31.084-47.788-31.387-47.957c-0.318-0.179-0.432-0.581-0.253-0.899c0.177-0.32,0.579-0.433,0.898-0.253
				c0.31,0.173,30.931,17.68,32.062,49.061c0.013,0.364-0.271,0.67-0.637,0.685C67.492,272.966,67.483,272.966,67.475,272.966z"/>
		</g>
		<g id="XMLID_435_">
			<path id="XMLID_436_" fill="#27DEBF" d="M76.274,321.465c0,0-6.13,3.874-15.707,2.226c-3.051-0.524-6.052-1.699-8.241-3.958
				c-2.471-2.55-2.865-5.115-3.562-8.527c-0.287-1.406-0.596-2.861-1.439-4.022c-2.049-2.819-6.146-2.77-9.553-3.505
				c-4.843-1.046-9.298-4.522-10.699-9.273c-1.402-4.752,0.871-10.543,5.461-12.404c-1.875-1.202-3.752-2.406-5.629-3.608
				c-1.707-1.094-3.432-2.204-4.817-3.685s-2.418-3.395-2.433-5.421c-0.021-2.991,2.223-5.66,4.951-6.886
				c2.729-1.225,5.847-1.242,8.818-0.896c2.998,0.348,5.957,1.045,8.796,2.069c0.798,0.288,1.618,0.606,2.464,0.555
				c1.115-0.07,2.076-0.766,3.008-1.382c6.444-4.254,16.936-3.933,20.392,4.088c0.509,1.18,0.812,2.441,1.353,3.607
				c2.006,4.317,7.641,3.018,11.275,5.039c2.363,1.313,3.783,3.935,4.236,6.6c0.722,4.271-0.468,9.143-1.256,13.367
				c-0.766,4.097-1.793,8.143-2.934,12.149c-0.941,3.3-1.969,6.575-3.066,9.825C77.453,318.125,76.944,321.04,76.274,321.465z"/>
		</g>
		<path id="XMLID_434_" fill="#FFFFFF" d="M80.128,311.588c-3.289-9.394-8.96-17.036-15.386-23.168
			c-0.068-0.15-0.191-0.27-0.354-0.335c-2.027-1.908-4.127-3.668-6.246-5.286c-1.484-8.896,2.094-16.703,2.13-16.781
			c0.154-0.332,0.013-0.725-0.317-0.879c-0.332-0.156-0.723-0.012-0.878,0.318c-0.149,0.317-3.448,7.507-2.425,16.229
			c-14.154-10.322-28.745-14.454-28.988-14.522c-0.35-0.09-0.716,0.111-0.812,0.463s0.109,0.715,0.461,0.812
			c0.275,0.075,18.98,5.371,34.399,18.978c-9.457-1.653-20.761,2.917-21.282,3.132c-0.338,0.138-0.498,0.524-0.36,0.861
			c0.104,0.255,0.352,0.409,0.612,0.409c0.083,0,0.168-0.016,0.25-0.05c0.134-0.056,13.406-5.423,22.784-2.517
			c6.34,6.025,11.933,13.537,15.167,22.773c0.094,0.271,0.35,0.441,0.622,0.441c0.072,0,0.146-0.012,0.22-0.036
			C80.068,312.309,80.25,311.933,80.128,311.588z"/>
	</g>
</g>
<g id="Device">
	<g id="Laptop_1_">
		<g>
			<path id="XMLID_371_" fill="#37474F" d="M76.485,320.553c0.001,2.739,2.052,6.146,4.581,7.605l128.344,74.099
				c2.529,1.462,6.631,1.462,9.161,0L394.18,300.87c2.53-1.462,4.582-4.866,4.582-7.606s-2.051-6.146-4.58-7.607l-128.344-74.099
				c-2.53-1.46-6.632-1.46-9.162,0L81.065,312.946C78.535,314.406,76.485,317.812,76.485,320.553z"/>
			<path id="XMLID_370_" fill="#263238" d="M213.992,393.438v9.913c-1.66,0-3.32-0.359-4.58-1.089L81.064,328.158
				c-2.527-1.459-4.58-4.866-4.58-7.605c0-2.569,1.808-5.724,4.114-7.31c-2.052,1.472-1.894,3.628,0.466,4.993l128.348,74.102
				C210.672,393.067,212.332,393.438,213.992,393.438z"/>
			<path id="XMLID_369_" fill="#455A64" d="M72.188,313.109c-2.372-1.37-4.297-4.849-4.297-7.77V152.18
				c0-2.921,2.051-6.473,4.581-7.934L248.081,42.858c2.53-1.46,6.505-1.534,8.878-0.164c2.374,1.371,4.297,4.85,4.297,7.771v153.159
				c0,2.921-2.05,6.474-4.58,7.934L81.065,312.946C78.535,314.406,74.562,314.48,72.188,313.109z"/>
			<path id="XMLID_368_" fill="#263238" d="M80.525,313.222c-2.529,1.186-6.125,1.164-8.336-0.116
				c-2.369-1.364-4.296-4.845-4.296-7.764V152.176c0-1.46,0.508-3.079,1.345-4.506l8.59,4.951v0.01
				c-0.826,1.439-1.344,3.047-1.344,4.506v153.166C76.484,313.01,78.251,314.227,80.525,313.222z"/>
			<path id="XMLID_367_" fill="#37474F" d="M76.485,157.142v153.16c0,2.92,2.05,4.104,4.58,2.645l175.61-101.389
				c2.53-1.46,4.58-5.013,4.58-7.934V50.465c0-2.921-2.05-4.105-4.58-2.645L81.065,149.208
				C78.535,150.668,76.485,154.221,76.485,157.142z"/>
			<path id="XMLID_366_" fill="#455A64" d="M81.065,318.235l128.345,74.099c2.529,1.461,6.631,1.461,9.161,0l175.61-101.388
				c2.529-1.462,2.529-3.829,0-5.29l-128.344-74.099c-2.53-1.46-6.632-1.46-9.162,0L81.065,312.946
				C78.535,314.406,78.535,316.774,81.065,318.235z"/>
			<path id="XMLID_365_" fill="#FAFAFA" d="M83.529,157.708L252.84,59.982c1.519-0.876,2.748-0.166,2.748,1.586v132.583
				c0,1.752-1.229,3.884-2.748,4.76L83.529,296.637c-1.518,0.876-2.748,0.166-2.748-1.587V162.468
				C80.781,160.716,82.012,158.585,83.529,157.708z"/>
			<path id="XMLID_364_" fill="#37474F" d="M95.963,314.27l163.005-94.109c1.265-0.73,3.315-0.73,4.581,0l8.336,4.813
				c1.266,0.73,1.266,1.914,0,2.645l-163.027,94.095c-1.266,0.729-3.316,0.729-4.581,0l-8.313-4.8
				C94.698,316.184,94.698,314.999,95.963,314.27z"/>
			<path id="XMLID_363_" fill="#263238" d="M117.45,326.674l163.003-94.111c1.264-0.73,3.314-0.73,4.58,0l51.28,29.608
				c1.265,0.729,1.265,1.913,0,2.645l-162.816,93.98c-1.265,0.73-3.317,0.733-4.585,0.007l-51.458-29.492
				C116.188,328.584,116.186,327.403,117.45,326.674z"/>
			<path id="XMLID_180_" fill="#455A64" d="M263.566,274.904l5.104-2.947c0.217-0.125,0.204-0.336-0.028-0.47l-5.901-3.407
				c-0.233-0.135-0.598-0.142-0.814-0.018l-5.104,2.948c-0.217,0.124-0.204,0.335,0.029,0.469l5.901,3.407
				C262.984,275.021,263.35,275.029,263.566,274.904z M253.495,263.196l-5.104,2.946c-0.217,0.125-0.204,0.335,0.03,0.471
				l5.899,3.406c0.233,0.135,0.599,0.143,0.814,0.017l5.104-2.946c0.216-0.125,0.203-0.336-0.029-0.47l-5.902-3.407
				C254.077,263.078,253.712,263.071,253.495,263.196z M237.007,272.716l-8.637,4.986c-0.217,0.125-0.203,0.336,0.029,0.469
				l5.901,3.409c0.232,0.134,0.597,0.141,0.814,0.017l8.637-4.987c0.217-0.125,0.204-0.336-0.029-0.469l-5.901-3.409
				C237.588,272.598,237.225,272.591,237.007,272.716z M246.036,267.501l-5.104,2.948c-0.216,0.125-0.203,0.335,0.029,0.469
				l5.902,3.409c0.232,0.134,0.598,0.141,0.813,0.017l5.104-2.946c0.217-0.127,0.204-0.337-0.029-0.471l-5.901-3.407
				C246.618,267.384,246.252,267.377,246.036,267.501z M226.015,279.062l-5.104,2.947c-0.217,0.125-0.203,0.336,0.029,0.47
				l5.901,3.407c0.233,0.135,0.599,0.142,0.813,0.018l5.105-2.948c0.216-0.124,0.203-0.335-0.029-0.469l-5.902-3.407
				C226.596,278.944,226.231,278.938,226.015,279.062z M218.556,283.368l-5.104,2.946c-0.217,0.125-0.204,0.336,0.027,0.471
				l5.902,3.406c0.232,0.137,0.598,0.143,0.814,0.017l5.104-2.945c0.217-0.126,0.204-0.335-0.03-0.47l-5.9-3.408
				C219.137,283.251,218.771,283.243,218.556,283.368z M241.769,297.224l5.104-2.946c0.217-0.125,0.204-0.336-0.03-0.469l-5.9-3.408
				c-0.232-0.135-0.598-0.142-0.813-0.018l-5.104,2.947c-0.218,0.126-0.205,0.335,0.028,0.47l5.901,3.408
				C241.187,297.342,241.553,297.35,241.769,297.224z M234.31,301.53l5.103-2.946c0.219-0.125,0.205-0.335-0.028-0.471l-5.9-3.406
				c-0.233-0.134-0.599-0.143-0.815-0.017l-5.104,2.946c-0.217,0.125-0.203,0.336,0.029,0.471l5.902,3.406
				C233.729,301.648,234.092,301.655,234.31,301.53z M226.85,305.837l5.104-2.946c0.218-0.125,0.204-0.335-0.028-0.471l-5.901-3.406
				c-0.233-0.135-0.598-0.142-0.814-0.017l-5.104,2.946c-0.217,0.125-0.203,0.335,0.029,0.47l5.901,3.407
				C226.27,305.954,226.633,305.963,226.85,305.837z M219.391,310.145l5.104-2.947c0.216-0.125,0.204-0.336-0.03-0.47l-5.9-3.407
				c-0.232-0.135-0.597-0.143-0.814-0.018l-5.104,2.947c-0.217,0.125-0.204,0.336,0.029,0.47l5.9,3.407
				C218.81,310.262,219.174,310.27,219.391,310.145z M256.108,279.211l5.103-2.947c0.218-0.125,0.204-0.335-0.029-0.47l-5.9-3.408
				c-0.232-0.134-0.598-0.141-0.813-0.017l-5.104,2.946c-0.217,0.126-0.204,0.337,0.028,0.471l5.902,3.408
				C255.526,279.329,255.891,279.335,256.108,279.211z M249.227,292.918l11.386-6.573c0.217-0.126,0.204-0.337-0.028-0.47
				l-14.332-8.275c-0.232-0.135-0.598-0.142-0.814-0.017l-5.889,3.399c-0.217,0.126-0.204,0.336,0.028,0.47l7.588,4.382
				c0.233,0.134,0.245,0.345,0.028,0.471l-4.711,2.72c-0.217,0.124-0.203,0.335,0.03,0.469l5.9,3.407
				C248.646,293.035,249.012,293.042,249.227,292.918z M211.096,287.676l-5.104,2.945c-0.217,0.126-0.203,0.337,0.029,0.471
				l5.902,3.407c0.232,0.135,0.596,0.142,0.813,0.017l5.103-2.946c0.217-0.125,0.204-0.335-0.028-0.471l-5.901-3.406
				C211.677,287.558,211.312,287.55,211.096,287.676z M203.637,291.981l-5.104,2.947c-0.218,0.125-0.204,0.335,0.029,0.47
				l5.901,3.407c0.233,0.134,0.597,0.143,0.813,0.017l5.104-2.947c0.217-0.124,0.203-0.336-0.029-0.47l-5.902-3.406
				C204.218,291.864,203.854,291.857,203.637,291.981z M166.363,340.272c0.232,0.135,0.596,0.143,0.814,0.017l5.103-2.945
				c0.217-0.126,0.204-0.337-0.028-0.472l-5.902-3.406c-0.232-0.135-0.597-0.142-0.813-0.017l-5.104,2.946
				c-0.217,0.125-0.203,0.335,0.029,0.471L166.363,340.272z M143.964,326.435l-5.104,2.946c-0.218,0.125-0.204,0.335,0.028,0.47
				l5.901,3.407c0.233,0.134,0.598,0.143,0.814,0.017l5.104-2.946c0.217-0.125,0.204-0.336-0.028-0.471l-5.902-3.406
				C144.545,326.316,144.181,326.31,143.964,326.435z M155.969,336.539c0.232,0.134,0.598,0.143,0.814,0.017l5.104-2.947
				c0.217-0.124,0.203-0.336-0.029-0.47l-5.9-3.406c-0.232-0.136-0.598-0.142-0.814-0.018l-5.104,2.947
				c-0.217,0.125-0.205,0.335,0.028,0.47L155.969,336.539z M179.533,342.89l5.104-2.946c0.217-0.125,0.203-0.335-0.028-0.471
				l-5.901-3.406c-0.233-0.134-0.599-0.142-0.814-0.017l-5.104,2.946c-0.216,0.125-0.204,0.336,0.03,0.471l5.9,3.406
				C178.951,343.008,179.317,343.016,179.533,342.89z M171.261,347.181c0.231,0.134,0.597,0.142,0.813,0.017l5.104-2.947
				c0.217-0.125,0.203-0.335-0.029-0.47l-5.901-3.407c-0.233-0.134-0.597-0.142-0.813-0.017l-5.104,2.946
				c-0.216,0.126-0.203,0.336,0.029,0.471L171.261,347.181z M151.424,322.128l-5.105,2.946c-0.215,0.125-0.203,0.336,0.03,0.471
				l5.901,3.406c0.232,0.135,0.596,0.142,0.814,0.017l5.102-2.946c0.219-0.125,0.205-0.335-0.028-0.47l-5.9-3.407
				C152.004,322.01,151.639,322.002,151.424,322.128z M188.719,300.595l-5.104,2.946c-0.216,0.125-0.204,0.336,0.03,0.471l5.9,3.406
				c0.232,0.136,0.597,0.142,0.814,0.018l5.104-2.947c0.217-0.125,0.204-0.335-0.028-0.47l-5.901-3.407
				C189.3,300.478,188.935,300.469,188.719,300.595z M158.882,317.82l-5.104,2.947c-0.217,0.125-0.203,0.336,0.028,0.47l5.902,3.407
				c0.232,0.135,0.597,0.143,0.813,0.018l5.104-2.947c0.217-0.126,0.204-0.336-0.029-0.47l-5.901-3.408
				C159.464,317.703,159.1,317.695,158.882,317.82z M196.178,296.287l-5.104,2.948c-0.217,0.125-0.204,0.335,0.029,0.469l5.9,3.408
				c0.233,0.135,0.598,0.143,0.814,0.017l5.104-2.946c0.217-0.126,0.205-0.336-0.027-0.47l-5.902-3.408
				C196.76,296.17,196.395,296.163,196.178,296.287z M181.26,304.901l-5.104,2.946c-0.216,0.125-0.203,0.336,0.029,0.471
				l5.902,3.406c0.231,0.135,0.597,0.143,0.813,0.017l5.104-2.945c0.217-0.126,0.204-0.337-0.029-0.472l-5.901-3.406
				C181.841,304.784,181.477,304.776,181.26,304.901z M173.801,309.208l-5.104,2.946c-0.217,0.126-0.204,0.336,0.028,0.471
				l5.901,3.407c0.233,0.134,0.598,0.142,0.814,0.017l5.104-2.946c0.217-0.126,0.203-0.336-0.029-0.471l-5.9-3.407
				C174.381,309.09,174.018,309.083,173.801,309.208z M166.341,313.515l-5.103,2.946c-0.218,0.125-0.205,0.336,0.029,0.47
				l5.899,3.408c0.233,0.134,0.599,0.142,0.814,0.017l5.104-2.947c0.216-0.125,0.203-0.336-0.029-0.471l-5.902-3.406
				C166.923,313.396,166.559,313.39,166.341,313.515z M204.473,318.757l5.104-2.946c0.217-0.126,0.204-0.336-0.029-0.471
				l-5.901-3.407c-0.232-0.134-0.597-0.142-0.813-0.017l-5.104,2.946c-0.217,0.126-0.203,0.336,0.03,0.471l5.9,3.407
				C203.891,318.875,204.255,318.882,204.473,318.757z M269.984,253.677l-5.104,2.946c-0.217,0.125-0.204,0.335,0.028,0.47
				l5.901,3.407c0.233,0.135,0.598,0.142,0.814,0.017l5.104-2.946c0.217-0.125,0.203-0.335-0.029-0.471l-5.9-3.406
				C270.566,253.559,270.201,253.551,269.984,253.677z M260.955,258.89l-5.104,2.946c-0.217,0.125-0.204,0.336,0.028,0.471
				l5.901,3.406c0.233,0.135,0.598,0.142,0.814,0.017l5.104-2.946c0.217-0.125,0.203-0.335-0.029-0.47l-5.9-3.407
				C261.535,258.772,261.172,258.764,260.955,258.89z M277.443,249.369l-5.104,2.946c-0.217,0.126-0.204,0.337,0.028,0.471
				l5.902,3.407c0.232,0.135,0.597,0.142,0.813,0.016l5.104-2.945c0.217-0.126,0.204-0.335-0.029-0.471l-5.9-3.407
				C278.024,249.252,277.66,249.244,277.443,249.369z M238.835,289.184l5.103-2.947c0.218-0.125,0.203-0.335-0.029-0.47l-5.9-3.407
				c-0.232-0.134-0.598-0.143-0.814-0.017l-5.104,2.947c-0.217,0.124-0.204,0.335,0.028,0.47l5.901,3.406
				C238.253,289.302,238.617,289.308,238.835,289.184z M285.717,245.08c-0.232-0.135-0.598-0.142-0.814-0.018l-5.104,2.947
				c-0.217,0.125-0.205,0.336,0.029,0.47l5.9,3.407c0.234,0.135,0.598,0.143,0.814,0.017l5.104-2.947
				c0.217-0.125,0.205-0.335-0.028-0.469L285.717,245.08z M211.932,314.45l5.104-2.946c0.217-0.126,0.203-0.336-0.029-0.47
				l-5.9-3.407c-0.233-0.135-0.598-0.143-0.814-0.018l-5.104,2.947c-0.217,0.125-0.205,0.336,0.029,0.47l5.9,3.406
				C211.35,314.568,211.715,314.575,211.932,314.45z M303.404,261.638l5.104-2.945c0.217-0.126,0.203-0.337-0.028-0.472
				l-5.901-3.406c-0.233-0.135-0.598-0.142-0.814-0.017l-5.104,2.946c-0.217,0.125-0.203,0.336,0.029,0.471l5.9,3.406
				C302.823,261.755,303.188,261.764,303.404,261.638z M287.516,261.078l5.103-2.947c0.217-0.125,0.204-0.335-0.028-0.47
				l-5.902-3.407c-0.231-0.134-0.597-0.142-0.813-0.017l-5.104,2.946c-0.218,0.126-0.205,0.336,0.028,0.471l5.901,3.406
				C286.934,261.196,287.298,261.202,287.516,261.078z M294.146,249.947c-0.232-0.135-0.597-0.142-0.814-0.017l-5.104,2.946
				c-0.215,0.125-0.203,0.336,0.03,0.47l5.901,3.407c0.232,0.134,0.598,0.143,0.812,0.017l5.104-2.946
				c0.217-0.125,0.204-0.335-0.028-0.471L294.146,249.947z M295.717,249.041l14.333,8.274c0.232,0.134,0.597,0.142,0.814,0.017
				l5.103-2.946c0.218-0.125,0.205-0.336-0.027-0.471l-14.333-8.274c-0.233-0.134-0.597-0.143-0.813-0.017l-5.104,2.946
				C295.472,248.695,295.485,248.906,295.717,249.041z M278.414,258.544l-5.103,2.946c-0.217,0.125-0.204,0.335,0.028,0.471
				l5.902,3.406c0.232,0.134,0.597,0.143,0.813,0.017l5.104-2.946c0.215-0.125,0.203-0.336-0.029-0.471l-5.901-3.406
				C278.996,258.426,278.631,258.419,278.414,258.544z M222.275,290.956l-5.104,2.946c-0.217,0.126-0.203,0.336,0.03,0.471
				l5.9,3.407c0.232,0.134,0.598,0.142,0.813,0.017l5.104-2.946c0.217-0.126,0.204-0.336-0.029-0.471l-5.901-3.407
				C222.856,290.838,222.492,290.831,222.275,290.956z M295.131,265.929c0.232,0.134,0.598,0.142,0.814,0.017l5.104-2.946
				c0.217-0.125,0.204-0.336-0.028-0.471l-5.902-3.406c-0.232-0.136-0.597-0.143-0.813-0.018l-5.104,2.946
				c-0.217,0.126-0.204,0.336,0.029,0.471L295.131,265.929z M229.733,286.649l-5.103,2.946c-0.218,0.125-0.203,0.336,0.029,0.471
				l5.9,3.406c0.233,0.135,0.598,0.143,0.814,0.017l5.104-2.946c0.217-0.125,0.203-0.336-0.028-0.469l-5.903-3.408
				C230.315,286.531,229.951,286.524,229.733,286.649z M173.822,335.966c0.232,0.136,0.598,0.142,0.814,0.017l5.104-2.946
				c0.216-0.125,0.203-0.335-0.03-0.47l-5.901-3.407c-0.232-0.134-0.598-0.143-0.812-0.017l-5.104,2.947
				c-0.218,0.124-0.205,0.336,0.027,0.47L173.822,335.966z M162.602,325.409l-5.104,2.946c-0.217,0.125-0.204,0.336,0.029,0.469
				l5.9,3.408c0.234,0.134,0.598,0.142,0.814,0.017l5.104-2.946c0.216-0.125,0.203-0.335-0.028-0.471l-5.903-3.406
				C163.184,325.29,162.818,325.283,162.602,325.409z M182.095,331.676l5.104-2.946c0.217-0.125,0.204-0.335-0.029-0.469
				l-5.901-3.408c-0.232-0.135-0.599-0.143-0.814-0.018l-5.104,2.947c-0.217,0.125-0.204,0.336,0.028,0.47l5.902,3.408
				C181.514,331.795,181.878,331.802,182.095,331.676z M189.554,327.37l5.104-2.946c0.216-0.125,0.203-0.336-0.029-0.471
				l-5.902-3.406c-0.232-0.136-0.597-0.142-0.813-0.018l-5.104,2.947c-0.218,0.125-0.204,0.335,0.029,0.47l5.901,3.407
				C188.973,327.487,189.338,327.494,189.554,327.37z M197.014,323.063l5.104-2.946c0.217-0.125,0.203-0.336-0.029-0.471
				l-5.902-3.406c-0.232-0.135-0.596-0.143-0.812-0.017l-5.104,2.946c-0.217,0.125-0.204,0.336,0.028,0.469l5.901,3.408
				C196.433,323.181,196.797,323.188,197.014,323.063z M170.061,321.102l-5.104,2.946c-0.217,0.126-0.203,0.336,0.029,0.471
				l5.9,3.407c0.234,0.134,0.598,0.142,0.814,0.016l5.104-2.945c0.217-0.126,0.204-0.336-0.028-0.471l-5.901-3.407
				C170.642,320.984,170.277,320.977,170.061,321.102z M177.521,316.795l-5.104,2.946c-0.216,0.126-0.203,0.336,0.029,0.471
				l5.902,3.407c0.231,0.135,0.597,0.142,0.813,0.017l5.103-2.947c0.217-0.125,0.205-0.335-0.028-0.469l-5.9-3.408
				C178.102,316.678,177.736,316.671,177.521,316.795z M207.356,299.568l-5.104,2.947c-0.218,0.126-0.204,0.336,0.028,0.47
				l5.901,3.407c0.233,0.135,0.598,0.143,0.814,0.016l5.104-2.945c0.217-0.125,0.204-0.336-0.028-0.47l-5.902-3.407
				C207.938,299.451,207.573,299.443,207.356,299.568z M199.896,303.876l-5.103,2.946c-0.217,0.125-0.204,0.336,0.028,0.471
				l5.902,3.406c0.232,0.135,0.597,0.142,0.812,0.017l5.105-2.946c0.215-0.125,0.203-0.335-0.029-0.471l-5.902-3.406
				C200.479,303.758,200.114,303.75,199.896,303.876z M214.816,295.262l-5.105,2.947c-0.215,0.125-0.203,0.336,0.03,0.47
				l5.901,3.408c0.232,0.134,0.598,0.142,0.814,0.017l5.104-2.948c0.217-0.124,0.203-0.335-0.03-0.469l-5.9-3.407
				C215.396,295.145,215.031,295.139,214.816,295.262z M184.979,312.488l-5.104,2.947c-0.217,0.125-0.204,0.336,0.029,0.469
				l5.901,3.408c0.232,0.135,0.597,0.143,0.814,0.018l5.104-2.947c0.217-0.126,0.204-0.336-0.028-0.47l-5.902-3.407
				C185.561,312.371,185.195,312.363,184.979,312.488z M192.438,308.183l-5.104,2.946c-0.217,0.125-0.204,0.335,0.03,0.47
				l5.901,3.407c0.232,0.134,0.598,0.143,0.812,0.017l5.104-2.946c0.218-0.125,0.205-0.336-0.027-0.471l-5.902-3.406
				C193.02,308.064,192.654,308.058,192.438,308.183z M186.992,338.584l5.104-2.947c0.217-0.125,0.205-0.335-0.027-0.47
				l-5.902-3.407c-0.232-0.134-0.598-0.143-0.814-0.017l-5.104,2.946c-0.217,0.125-0.204,0.337,0.029,0.471l5.9,3.407
				C186.411,338.701,186.776,338.708,186.992,338.584z M143.221,334.165l-5.902-3.408c-0.232-0.134-0.597-0.142-0.814-0.016
				l-5.103,2.946c-0.218,0.125-0.204,0.336,0.028,0.469l5.9,3.409c0.234,0.134,0.599,0.141,0.815,0.017l5.104-2.947
				C143.467,334.509,143.453,334.299,143.221,334.165z M154.398,337.446l-5.901-3.408c-0.232-0.134-0.598-0.143-0.814-0.017
				l-7.851,4.532c-0.218,0.126-0.204,0.337,0.028,0.472l5.901,3.406c0.233,0.135,0.598,0.142,0.814,0.017l7.851-4.533
				C154.645,337.789,154.631,337.58,154.398,337.446z M134.166,327.577l-5.902-3.407c-0.232-0.135-0.596-0.143-0.813-0.018
				l-6.28,3.627c-0.218,0.125-0.205,0.337,0.028,0.471l5.901,3.406c0.232,0.135,0.598,0.143,0.812,0.017l6.283-3.626
				C134.412,327.922,134.398,327.712,134.166,327.577z M138.981,324.796c0.232,0.136,0.599,0.143,0.813,0.018l5.104-2.946
				c0.217-0.126,0.204-0.336-0.029-0.471l-5.901-3.407c-0.232-0.134-0.597-0.142-0.814-0.017l-5.104,2.946
				c-0.217,0.125-0.204,0.336,0.029,0.471L138.981,324.796z M164.793,341.18l-5.901-3.408c-0.233-0.133-0.598-0.141-0.815-0.015
				l-9.814,5.665c-0.216,0.126-0.203,0.336,0.029,0.471l5.902,3.407c0.231,0.134,0.596,0.142,0.813,0.017l9.814-5.666
				C165.039,341.525,165.025,341.314,164.793,341.18z M169.689,348.087l-5.902-3.407c-0.232-0.135-0.596-0.142-0.812-0.017
				l-6.282,3.627c-0.217,0.124-0.203,0.336,0.029,0.47l5.901,3.406c0.232,0.136,0.597,0.142,0.814,0.018l6.281-3.627
				C169.936,348.432,169.922,348.221,169.689,348.087z M194.441,292.777c0.232,0.135,0.598,0.142,0.812,0.018l5.104-2.948
				c0.217-0.124,0.204-0.335-0.028-0.469l-5.9-3.407c-0.234-0.135-0.599-0.143-0.816-0.018l-5.102,2.947
				c-0.219,0.125-0.205,0.336,0.028,0.469L194.441,292.777z M179.523,301.391c0.232,0.135,0.597,0.142,0.813,0.016l5.104-2.945
				c0.217-0.126,0.203-0.336-0.03-0.471l-5.9-3.407c-0.233-0.135-0.599-0.142-0.814-0.017l-5.104,2.946
				c-0.216,0.126-0.203,0.335,0.029,0.471L179.523,301.391z M146.439,320.49c0.234,0.135,0.599,0.143,0.814,0.017l5.105-2.946
				c0.215-0.125,0.203-0.336-0.029-0.47l-5.902-3.407c-0.232-0.135-0.596-0.143-0.814-0.017l-5.103,2.946
				c-0.217,0.125-0.204,0.336,0.028,0.47L146.439,320.49z M186.981,297.083c0.233,0.136,0.599,0.144,0.814,0.018l5.104-2.947
				c0.216-0.124,0.203-0.335-0.029-0.47l-5.902-3.407c-0.231-0.134-0.597-0.142-0.813-0.017l-5.104,2.947
				c-0.218,0.124-0.204,0.336,0.028,0.47L186.981,297.083z M172.063,305.697c0.233,0.134,0.597,0.142,0.815,0.017l5.102-2.946
				c0.218-0.125,0.204-0.337-0.028-0.471l-5.901-3.406c-0.233-0.135-0.598-0.143-0.814-0.017l-5.104,2.946
				c-0.217,0.125-0.203,0.335,0.029,0.47L172.063,305.697z M173.789,348.641c-0.233-0.134-0.598-0.143-0.814-0.017l-7.851,4.533
				c-0.218,0.125-0.204,0.335,0.028,0.47l5.901,3.407c0.233,0.134,0.598,0.142,0.814,0.017l7.851-4.533
				c0.218-0.125,0.205-0.335-0.028-0.471L173.789,348.641z M161.359,311.877c0.232,0.134,0.596,0.143,0.814,0.017l5.103-2.946
				c0.218-0.125,0.203-0.335-0.028-0.471l-5.9-3.406c-0.234-0.135-0.599-0.142-0.815-0.017L155.428,308
				c-0.215,0.125-0.203,0.335,0.029,0.471L161.359,311.877z M153.9,316.185c0.232,0.134,0.597,0.142,0.813,0.017l5.104-2.947
				c0.217-0.125,0.204-0.336-0.028-0.47l-5.901-3.407c-0.233-0.136-0.598-0.142-0.814-0.018l-5.104,2.947
				c-0.217,0.126-0.204,0.335,0.028,0.47L153.9,316.185z M311.979,268.856c-0.232-0.135-0.598-0.142-0.814-0.017l-12.562,7.253
				c-0.217,0.124-0.203,0.335,0.029,0.47l5.902,3.408c0.232,0.133,0.597,0.142,0.813,0.016l12.562-7.253
				c0.217-0.125,0.204-0.335-0.028-0.471L311.979,268.856z M295.491,278.376c-0.233-0.135-0.597-0.143-0.813-0.017l-5.104,2.946
				c-0.217,0.125-0.203,0.336,0.029,0.47l5.901,3.407c0.232,0.135,0.597,0.142,0.814,0.017l5.104-2.947
				c0.217-0.124,0.203-0.335-0.029-0.47L295.491,278.376z M194.451,334.278l5.104-2.947c0.217-0.126,0.203-0.336-0.029-0.47
				l-5.902-3.408c-0.232-0.135-0.597-0.142-0.813-0.018l-5.104,2.948c-0.217,0.125-0.203,0.335,0.029,0.469l5.901,3.408
				C193.871,334.396,194.234,334.402,194.451,334.278z M280.572,286.989c-0.232-0.135-0.597-0.143-0.813-0.017l-5.104,2.946
				c-0.217,0.125-0.204,0.335,0.028,0.471l5.901,3.406c0.233,0.135,0.598,0.142,0.814,0.017l5.104-2.946
				c0.217-0.125,0.204-0.336-0.028-0.47L280.572,286.989z M319.439,264.549c-0.234-0.135-0.598-0.142-0.814-0.016l-5.104,2.945
				c-0.217,0.126-0.203,0.336,0.028,0.471l5.901,3.407c0.233,0.134,0.599,0.142,0.814,0.017l5.104-2.946
				c0.217-0.126,0.203-0.335-0.029-0.47L319.439,264.549z M332.8,263.65l-14.332-8.275c-0.233-0.134-0.598-0.142-0.814-0.017
				l-5.104,2.947c-0.217,0.125-0.204,0.335,0.028,0.47l14.333,8.274c0.232,0.135,0.597,0.143,0.813,0.018l5.104-2.948
				C333.046,263.995,333.032,263.784,332.8,263.65z M252.699,303.082c-0.232-0.136-0.598-0.142-0.814-0.017l-6.281,3.626
				c-0.217,0.125-0.205,0.336,0.029,0.47l5.9,3.407c0.234,0.135,0.598,0.143,0.814,0.017l6.282-3.625
				c0.217-0.126,0.204-0.338-0.029-0.472L252.699,303.082z M271.543,292.203c-0.231-0.137-0.597-0.143-0.813-0.018l-7.852,4.534
				c-0.218,0.124-0.203,0.335,0.028,0.469l5.902,3.407c0.232,0.135,0.597,0.142,0.813,0.017l7.852-4.533
				c0.217-0.124,0.204-0.335-0.028-0.47L271.543,292.203z M235.426,313.055c-0.232-0.135-0.598-0.142-0.814-0.017l-42.007,24.253
				c-0.216,0.124-0.204,0.336,0.028,0.47l5.902,3.406c0.232,0.136,0.597,0.144,0.813,0.018l42.007-24.252
				c0.218-0.126,0.204-0.336-0.029-0.471L235.426,313.055z M191.062,338.667c-0.232-0.134-0.598-0.142-0.814-0.017l-6.28,3.627
				c-0.218,0.125-0.204,0.335,0.028,0.471l5.9,3.406c0.234,0.134,0.599,0.143,0.815,0.017l6.282-3.626
				c0.215-0.126,0.203-0.336-0.029-0.47L191.062,338.667z M244.062,308.067c-0.232-0.134-0.598-0.142-0.814-0.017l-6.281,3.627
				c-0.217,0.125-0.204,0.336,0.029,0.471l5.9,3.406c0.232,0.135,0.598,0.143,0.814,0.017l6.281-3.626
				c0.218-0.126,0.204-0.335-0.029-0.47L244.062,308.067z M182.426,343.653c-0.232-0.134-0.598-0.142-0.814-0.017l-6.28,3.627
				c-0.218,0.125-0.204,0.336,0.028,0.47l5.9,3.407c0.234,0.135,0.599,0.143,0.814,0.017l6.281-3.626
				c0.217-0.126,0.205-0.336-0.027-0.47L182.426,343.653z M261.336,298.096c-0.233-0.135-0.598-0.143-0.814-0.018l-6.281,3.627
				c-0.217,0.125-0.203,0.336,0.029,0.47l5.902,3.407c0.232,0.135,0.597,0.142,0.812,0.017l6.282-3.627
				c0.217-0.125,0.204-0.335-0.029-0.47L261.336,298.096z M288.031,282.682c-0.232-0.134-0.597-0.142-0.814-0.017l-5.104,2.946
				c-0.217,0.126-0.203,0.336,0.03,0.471l5.901,3.407c0.232,0.134,0.598,0.142,0.814,0.016l5.104-2.945
				c0.217-0.126,0.203-0.335-0.029-0.47L288.031,282.682z M304.376,270.812l5.104-2.947c0.217-0.125,0.204-0.335-0.028-0.47
				l-5.902-3.406c-0.232-0.135-0.597-0.144-0.813-0.018l-5.104,2.947c-0.217,0.124-0.204,0.336,0.029,0.47l5.901,3.406
				C303.795,270.931,304.16,270.938,304.376,270.812z M271.025,270.598l5.104-2.947c0.219-0.124,0.205-0.336-0.027-0.47
				l-5.902-3.406c-0.232-0.135-0.598-0.144-0.814-0.018l-5.104,2.947c-0.217,0.125-0.203,0.335,0.029,0.47l5.9,3.406
				C270.445,270.715,270.81,270.723,271.025,270.598z M254.124,299.824l14.919-8.612c0.218-0.126,0.204-0.335-0.029-0.47
				l-5.901-3.408c-0.232-0.133-0.597-0.142-0.813-0.016l-14.918,8.612c-0.218,0.125-0.205,0.337,0.029,0.47l5.9,3.407
				C253.545,299.943,253.908,299.95,254.124,299.824z M296.104,275.102c0.231,0.135,0.597,0.143,0.812,0.017l5.104-2.946
				c0.218-0.125,0.205-0.335-0.029-0.471l-5.9-3.406c-0.232-0.135-0.598-0.142-0.813-0.017l-5.104,2.946
				c-0.216,0.125-0.203,0.336,0.029,0.471L296.104,275.102z M288.486,270.252l5.104-2.948c0.216-0.124,0.203-0.335-0.03-0.469
				l-5.901-3.407c-0.231-0.135-0.597-0.142-0.813-0.017l-5.104,2.946c-0.217,0.125-0.205,0.336,0.028,0.47l5.901,3.407
				C287.904,270.369,288.27,270.377,288.486,270.252z M246.666,304.132l5.104-2.947c0.217-0.125,0.204-0.335-0.029-0.47
				l-5.901-3.407c-0.233-0.134-0.597-0.143-0.813-0.017l-5.104,2.947c-0.218,0.124-0.205,0.335,0.028,0.47l5.901,3.406
				C246.084,304.249,246.449,304.256,246.666,304.132z M279.613,284.623c0.234,0.133,0.598,0.142,0.814,0.016l5.104-2.946
				c0.217-0.125,0.204-0.337-0.028-0.47l-5.901-3.407c-0.233-0.136-0.598-0.142-0.814-0.018l-5.104,2.947
				c-0.217,0.126-0.203,0.335,0.029,0.47L279.613,284.623z M209.37,325.664l5.104-2.946c0.217-0.125,0.204-0.335-0.03-0.471
				l-5.9-3.406c-0.231-0.135-0.597-0.143-0.813-0.017l-5.104,2.945c-0.216,0.126-0.203,0.336,0.028,0.472l5.902,3.406
				C208.788,325.782,209.153,325.789,209.37,325.664z M216.828,321.357l5.105-2.946c0.216-0.126,0.203-0.335-0.029-0.47
				l-5.902-3.408c-0.232-0.134-0.597-0.142-0.814-0.017l-5.104,2.947c-0.217,0.124-0.203,0.336,0.029,0.47l5.901,3.406
				C216.248,321.475,216.613,321.483,216.828,321.357z M201.911,329.971l5.103-2.947c0.219-0.124,0.205-0.336-0.028-0.47
				l-5.901-3.406c-0.233-0.135-0.598-0.143-0.814-0.018l-5.104,2.947c-0.217,0.125-0.203,0.335,0.029,0.47l5.902,3.407
				C201.33,330.088,201.693,330.097,201.911,329.971z M231.747,312.745l5.104-2.946c0.218-0.125,0.204-0.336-0.028-0.471
				l-5.901-3.408c-0.232-0.135-0.598-0.141-0.814-0.016l-5.104,2.946c-0.217,0.126-0.204,0.335,0.028,0.469l5.902,3.409
				C231.166,312.862,231.53,312.87,231.747,312.745z M224.287,317.051l5.105-2.947c0.215-0.124,0.203-0.335-0.029-0.469
				l-5.902-3.407c-0.232-0.135-0.598-0.144-0.814-0.017l-5.104,2.946c-0.217,0.125-0.203,0.336,0.03,0.47l5.901,3.407
				C223.707,317.169,224.071,317.176,224.287,317.051z M239.207,308.438l5.103-2.945c0.218-0.126,0.204-0.337-0.028-0.472
				l-5.902-3.406c-0.232-0.135-0.597-0.142-0.812-0.017l-5.105,2.946c-0.215,0.125-0.203,0.335,0.03,0.471l5.901,3.406
				C238.625,308.555,238.988,308.563,239.207,308.438z M273.332,244.729c0.232,0.134,0.598,0.142,0.814,0.017l5.104-2.946
				c0.217-0.125,0.203-0.336-0.029-0.471l-1.571-0.907c-0.232-0.134-0.597-0.142-0.813-0.016l-5.104,2.946
				c-0.216,0.125-0.203,0.335,0.03,0.471L273.332,244.729z M236.631,268.418c0.232,0.135,0.598,0.144,0.814,0.017l5.104-2.946
				c0.216-0.125,0.203-0.335-0.03-0.47l-5.9-3.407c-0.232-0.135-0.598-0.142-0.814-0.017l-5.104,2.946
				c-0.217,0.125-0.205,0.336,0.028,0.471L236.631,268.418z M251.551,259.807c0.232,0.133,0.596,0.141,0.812,0.016l5.104-2.946
				c0.217-0.126,0.203-0.335-0.028-0.47l-5.901-3.408c-0.233-0.134-0.598-0.142-0.814-0.017l-5.104,2.946
				c-0.216,0.126-0.203,0.337,0.029,0.471L251.551,259.807z M227.523,273.678c0.232,0.134,0.596,0.142,0.814,0.016l5.104-2.945
				c0.217-0.126,0.203-0.336-0.03-0.472l-5.9-3.406c-0.233-0.134-0.599-0.142-0.813-0.017l-5.105,2.946
				c-0.215,0.126-0.203,0.336,0.03,0.471L227.523,273.678z M244.091,264.112c0.231,0.135,0.597,0.142,0.813,0.018l5.104-2.948
				c0.217-0.124,0.204-0.335-0.028-0.469l-5.902-3.407c-0.232-0.135-0.597-0.143-0.813-0.017l-5.104,2.945
				c-0.217,0.126-0.204,0.337,0.029,0.471L244.091,264.112z M212.605,282.291c0.232,0.134,0.597,0.143,0.812,0.016l5.105-2.946
				c0.215-0.124,0.203-0.336-0.029-0.47l-5.902-3.407c-0.232-0.135-0.597-0.142-0.814-0.017l-5.103,2.947
				c-0.218,0.125-0.204,0.335,0.028,0.47L212.605,282.291z M220.063,277.984c0.233,0.134,0.598,0.142,0.814,0.017l5.104-2.946
				c0.217-0.125,0.204-0.336-0.028-0.471l-5.902-3.406c-0.232-0.135-0.597-0.143-0.813-0.017l-5.104,2.945
				c-0.218,0.126-0.204,0.336,0.028,0.47L220.063,277.984z M258.414,253.343c0.232,0.135,0.597,0.142,0.814,0.017l5.104-2.947
				c0.217-0.125,0.203-0.335-0.029-0.469l-1.572-0.908c-0.231-0.135-0.597-0.142-0.812-0.018l-5.104,2.948
				c-0.217,0.125-0.205,0.336,0.027,0.469L258.414,253.343z M280.791,240.422c0.233,0.135,0.598,0.142,0.814,0.017l5.104-2.946
				c0.217-0.125,0.204-0.335-0.029-0.47l-1.57-0.908c-0.233-0.133-0.598-0.142-0.814-0.016l-5.104,2.946
				c-0.217,0.125-0.203,0.337,0.029,0.471L280.791,240.422z M293.188,247.58c0.233,0.135,0.599,0.142,0.814,0.018l5.104-2.947
				c0.217-0.125,0.205-0.336-0.027-0.47l-5.902-3.407c-0.232-0.135-0.598-0.143-0.814-0.018l-5.104,2.948
				c-0.217,0.124-0.204,0.335,0.029,0.469L293.188,247.58z M311.834,266.506l5.105-2.947c0.217-0.124,0.203-0.336-0.029-0.469
				l-5.902-3.408c-0.232-0.135-0.598-0.141-0.814-0.017l-5.104,2.946c-0.216,0.126-0.203,0.336,0.03,0.47l5.9,3.409
				C311.254,266.623,311.619,266.631,311.834,266.506z M265.873,249.035c0.232,0.135,0.597,0.144,0.813,0.018l5.104-2.947
				c0.217-0.124,0.204-0.336-0.028-0.469l-1.57-0.907c-0.234-0.136-0.598-0.143-0.814-0.017l-5.104,2.946
				c-0.217,0.125-0.205,0.335,0.028,0.47L265.873,249.035z M205.146,286.596c0.233,0.137,0.599,0.143,0.813,0.018l5.104-2.946
				c0.217-0.126,0.205-0.335-0.028-0.469l-5.901-3.409c-0.232-0.134-0.598-0.142-0.814-0.017l-5.104,2.947
				c-0.217,0.126-0.204,0.335,0.029,0.47L205.146,286.596z"/>
			<path id="XMLID_179_" fill="#263238" d="M238.225,331.37l50.363-29.077c1.518-0.877,3.979-0.877,5.497,0l28.88,16.673
				c1.518,0.876,1.518,2.298,0,3.175L272.6,351.217c-1.518,0.877-3.979,0.877-5.496,0l-28.879-16.674
				C236.707,333.667,236.707,332.247,238.225,331.37z"/>
		</g>
		<g id="Window_1_">
			<path id="XMLID_178_" fill="#AC1E73" d="M249.239,75.119v7.69l-114.639,66.184c-0.792,0.458-1.437,0.086-1.437-0.831l0.086-2.754
				c0,0-2.057-0.759-2.111-0.65l-34.327,19.82c-0.798,0.458-1.442,1.575-1.442,2.492v2.911c0,0.917-0.645,2.034-1.436,2.492
				l-3.961,2.286v-7.689c0-0.917,0.645-2.034,1.436-2.492l156.396-90.289C248.594,73.83,249.239,74.202,249.239,75.119z"/>
			<g id="XMLID_176_">
				<path id="XMLID_177_" fill="#EBEBEB" d="M249.246,190.33c0,0.917-0.645,2.034-1.442,2.492L91.408,283.111
					c-0.791,0.459-1.436,0.087-1.436-0.831V174.759l3.961-2.286c0.791-0.458,2.08-7.437,2.878-7.896l34.327-19.82
					c0.797-0.458,2.67,4.694,3.462,4.236l114.639-66.184v9.357L249.246,190.33z"/>
			</g>
			<g id="XMLID_174_">
				<path id="XMLID_175_" fill="#FAFAFA" d="M96.81,204.228l68.688-39.696c0.794-0.459,1.438-0.087,1.438,0.831v67.515
					c0,0.917-0.645,2.033-1.438,2.492L96.81,275.064c-0.795,0.459-1.439,0.087-1.439-0.831l0.001-67.514
					C95.371,205.802,96.016,204.687,96.81,204.228z"/>
			</g>
			<g id="XMLID_166_">
				<path id="XMLID_173_" fill="#455A64" d="M96.81,186.398l145.601-84.064c0.795-0.458,1.439-0.087,1.439,0.831v10.114
					c0,0.918-0.645,2.034-1.439,2.493L96.81,199.834c-0.795,0.459-1.439,0.087-1.439-0.831v-10.113
					C95.37,187.973,96.015,186.857,96.81,186.398z"/>
				<g id="XMLID_167_">
					<path id="XMLID_172_" fill="#FAFAFA" d="M189.857,140.688v2.682c0,0.549,0.388,0.772,0.863,0.499l42.33-24.439l-0.001-4.676
						l-42.331,24.439C190.244,139.467,189.855,140.14,189.857,140.688z"/>
					<path id="XMLID_171_" fill="#27DEBF" d="M237.587,112.135c0.477-0.276,0.863-0.052,0.863,0.498v2.683
						c0,0.55-0.387,1.22-0.863,1.495l-4.536,2.619l-0.001-4.676L237.587,112.135z"/>
					<path id="XMLID_168_" fill="#FAFAFA" d="M237.251,115.812l-0.506-0.158c0.052-0.215,0.081-0.436,0.081-0.652
						c0-0.518-0.168-0.911-0.461-1.081c-0.219-0.126-0.48-0.113-0.738,0.036c-0.566,0.327-1.011,1.251-1.011,2.104
						c0,0.518,0.169,0.912,0.462,1.081c0.1,0.057,0.207,0.085,0.32,0.085c0.135,0,0.276-0.041,0.416-0.122
						c0.342-0.197,0.636-0.611,0.818-1.094l0.506,0.158c0.019,0.005,0.038,0.008,0.057,0.008c0.08,0,0.154-0.051,0.179-0.131
						C237.404,115.948,237.351,115.843,237.251,115.812z M235.627,116.782c-0.141,0.081-0.262,0.094-0.361,0.036
						c-0.168-0.098-0.273-0.387-0.273-0.756c0-0.707,0.377-1.521,0.822-1.779c0.082-0.047,0.158-0.071,0.229-0.071
						c0.049,0,0.092,0.012,0.134,0.036c0.169,0.098,0.273,0.387,0.273,0.755C236.45,115.709,236.074,116.524,235.627,116.782z"/>
				</g>
			</g>
			<path id="XMLID_165_" fill="#E6E6E6" d="M249.239,82.809v9.357L89.973,184.117v-9.358l2.957-1.713
				c0.792-0.458,1.057-1.156,1.437-2.492l1.003-3.484c0.315-1.209,0.645-2.034,1.442-2.492l34.327-19.82
				c0.797-0.458,1.42-0.509,2.025,0.494l1.231,2.233c0.452,0.78,0.678,1.239,1.468,0.78L249.239,82.809z"/>
			<g id="XMLID_161_">
				<path id="XMLID_164_" fill="#455A64" d="M242.493,79.941c1-0.577,1.81-0.11,1.81,1.045c0,1.155-0.81,2.559-1.81,3.137
					c-1,0.577-1.812,0.109-1.812-1.046S241.493,80.519,242.493,79.941z"/>
				<path id="XMLID_163_" fill="#455A64" d="M235.975,83.699c1-0.577,1.81-0.109,1.81,1.046c0,1.154-0.81,2.559-1.81,3.136
					c-1.001,0.577-1.811,0.109-1.811-1.045S234.974,84.277,235.975,83.699z"/>
				<path id="XMLID_162_" fill="#455A64" d="M229.456,87.458c0.999-0.577,1.81-0.109,1.81,1.045c0,1.154-0.811,2.559-1.81,3.136
					c-1.001,0.577-1.812,0.109-1.812-1.045C227.645,89.439,228.455,88.035,229.456,87.458z"/>
			</g>
			<path id="XMLID_160_" opacity="0.5" fill="#455A64" d="M96.573,175.434l-2.26,1.304l0.861-1.656
				c0.076-0.145,0.085-0.327,0.018-0.404c-0.067-0.079-0.181-0.023-0.256,0.121l-1.227,2.357c-0.001,0.002-0.001,0.006-0.003,0.009
				c-0.014,0.027-0.023,0.057-0.033,0.087c-0.003,0.01-0.008,0.019-0.01,0.029c-0.01,0.041-0.016,0.082-0.016,0.122
				c0,0.041,0.006,0.075,0.016,0.104c0.002,0.007,0.007,0.011,0.01,0.018c0.01,0.02,0.02,0.037,0.033,0.049
				c0.002,0.001,0.002,0.003,0.003,0.004l1.227,0.942c0.034,0.026,0.076,0.024,0.119,0c0.05-0.029,0.101-0.091,0.137-0.174
				c0.067-0.155,0.059-0.327-0.018-0.385l-0.861-0.662l2.26-1.305c0.101-0.058,0.181-0.229,0.181-0.384
				S96.674,175.375,96.573,175.434z"/>
			<path id="XMLID_159_" opacity="0.5" fill="#455A64" d="M98.46,174.344l2.259-1.304l-0.861-0.662
				c-0.075-0.058-0.084-0.23-0.018-0.385c0.066-0.155,0.181-0.232,0.257-0.175l1.226,0.942c0.002,0.001,0.002,0.004,0.003,0.005
				c0.013,0.012,0.023,0.03,0.032,0.049c0.004,0.006,0.008,0.01,0.011,0.017c0.009,0.029,0.016,0.063,0.016,0.104
				c0,0.04-0.007,0.082-0.016,0.122c-0.003,0.01-0.007,0.019-0.011,0.029c-0.009,0.03-0.02,0.06-0.032,0.087
				c-0.001,0.002-0.001,0.006-0.003,0.008l-1.226,2.357c-0.035,0.066-0.077,0.113-0.119,0.138c-0.052,0.029-0.101,0.026-0.138-0.017
				c-0.066-0.078-0.058-0.259,0.018-0.405l0.861-1.656l-2.259,1.304c-0.101,0.058-0.183-0.02-0.183-0.175
				S98.359,174.402,98.46,174.344z"/>
			<path id="XMLID_158_" opacity="0.5" fill="#455A64" d="M105.869,167.839c-0.014-0.136-0.133-0.119-0.193,0.029l-0.308,0.756
				c-0.528-0.058-1.168,0.458-1.6,1.373c-0.56,1.184-0.56,2.585,0,3.124c0.279,0.27,0.647,0.272,1.016,0.06
				c0.366-0.212,0.733-0.639,1.014-1.231c0.071-0.15,0.071-0.327,0-0.396s-0.186-0.002-0.257,0.148
				c-0.418,0.883-1.098,1.277-1.516,0.875c-0.417-0.402-0.417-1.449,0-2.333c0.299-0.629,0.726-1.002,1.099-1.024l-0.233,0.57
				c-0.061,0.148-0.006,0.286,0.09,0.224l0.921-0.601c0.065-0.042,0.113-0.16,0.104-0.253L105.869,167.839z"/>
			<path id="XMLID_157_" opacity="0.5" fill="#455A64" d="M130.147,149.028l0.824-1.743c0.097-0.206,0.097-0.449,0-0.543
				c-0.098-0.093-0.255-0.002-0.353,0.204l-0.823,1.744l-0.823-0.792c-0.098-0.094-0.256-0.003-0.354,0.204
				c-0.098,0.206-0.098,0.448,0,0.542l0.824,0.792l-0.824,1.744c-0.098,0.206-0.098,0.448,0,0.542
				c0.049,0.047,0.113,0.047,0.176,0.01c0.065-0.037,0.129-0.111,0.178-0.214l0.823-1.743l0.823,0.792
				c0.049,0.047,0.112,0.047,0.176,0.011c0.063-0.037,0.127-0.111,0.177-0.214c0.097-0.206,0.097-0.449,0-0.543L130.147,149.028z"/>
			<path id="XMLID_156_" fill="#FAFAFA" d="M108.867,169.982v-2.912c0-0.917,0.645-2.033,1.439-2.492l129.397-74.669
				c0.795-0.459,1.439-0.087,1.439,0.831v2.911c0,0.918-0.646,2.034-1.439,2.492l-129.397,74.669
				C109.512,171.272,108.867,170.9,108.867,169.982z"/>
			<path id="XMLID_155_" fill="none" stroke="#E0E0E0" stroke-width="0.75" stroke-miterlimit="10" d="M238.865,91.448l0.377,0.802
				c0.024,0.051,0.07,0.069,0.124,0.048l0.845-0.324c0.135-0.051,0.188,0.137,0.092,0.32l-0.613,1.147
				c-0.037,0.073-0.055,0.155-0.046,0.221l0.144,1.039c0.024,0.165-0.117,0.382-0.236,0.367l-0.756-0.094
				c-0.049-0.005-0.105,0.027-0.152,0.088l-0.756,0.966c-0.12,0.154-0.261,0.099-0.238-0.093l0.145-1.205
				c0.01-0.076-0.009-0.138-0.047-0.166l-0.611-0.441c-0.097-0.07-0.043-0.321,0.092-0.424l0.844-0.652
				c0.053-0.041,0.1-0.113,0.123-0.191l0.378-1.239C238.631,91.42,238.805,91.32,238.865,91.448z"/>
			<g id="XMLID_148_" opacity="0.5">
				<g id="XMLID_153_">
					<path id="XMLID_154_" fill="#455A64" d="M242.84,89.554c-0.173,0-0.34-0.089-0.432-0.249c-0.139-0.238-0.056-0.543,0.182-0.681
						l4.049-2.338c0.24-0.138,0.544-0.056,0.682,0.182c0.137,0.239,0.056,0.543-0.184,0.681l-4.049,2.338
						C243.01,89.532,242.924,89.554,242.84,89.554z"/>
				</g>
				<g id="XMLID_151_">
					<path id="XMLID_152_" fill="#455A64" d="M242.84,91.893c-0.173,0-0.34-0.089-0.432-0.249c-0.139-0.238-0.056-0.543,0.182-0.681
						l4.049-2.338c0.24-0.139,0.544-0.056,0.682,0.182c0.137,0.239,0.056,0.544-0.184,0.681l-4.049,2.338
						C243.01,91.872,242.924,91.893,242.84,91.893z"/>
				</g>
				<g id="XMLID_149_">
					<path id="XMLID_150_" fill="#455A64" d="M242.84,94.231c-0.173,0-0.34-0.089-0.432-0.249c-0.139-0.239-0.056-0.543,0.182-0.681
						l4.049-2.338c0.24-0.139,0.544-0.056,0.682,0.182c0.137,0.239,0.056,0.543-0.184,0.681l-4.049,2.338
						C243.01,94.21,242.924,94.231,242.84,94.231z"/>
				</g>
			</g>
		</g>
		<g id="Question_Mark_1_">
			<path id="XMLID_147_" fill="#455A64" d="M128.268,220.119c5.775-5.883,7.268-8.553,7.268-10.916c0-2.208-0.993-3.843-4.07-2.067
				c-2.398,1.384-3.689,3.184-4.547,5.579c-0.33,0.924-1.293,1.872-2.252,2.086l-4.009,0.894c-0.958,0.213-1.597-0.398-1.364-1.352
				c1.751-7.169,6.188-13.786,12.408-17.377c7.479-4.317,11.833-1.089,11.833,6.231c0,6.996-3.69,12.842-7.33,17.041
				c-0.643,0.741-1.189,2.115-1.189,3.097v2.378c0,0.981-0.688,2.175-1.539,2.666l-4.919,2.84c-0.852,0.492-1.541,0.093-1.541-0.888
				v-7.174C127.016,222.175,127.582,220.819,128.268,220.119z"/>
			<path id="XMLID_146_" fill="#455A64" d="M126.922,241.055c0-2.776,1.372-5.714,4.07-7.272c2.65-1.53,4.022-0.177,4.022,2.6
				s-1.325,5.751-4.022,7.308C128.294,245.248,126.922,243.831,126.922,241.055z"/>
		</g>
	</g>
</g>
<g id="Support_character">
	<g id="XMLID_75_">
		<g id="XMLID_276_">
			<path id="XMLID_280_" fill="#AC1E73" d="M290.14,50.552l-3.905-2.256v0.003c-0.598-0.359-1.43-0.318-2.352,0.214l-96.172,55.52
				c-1.82,1.052-3.303,3.608-3.303,5.712l0.002,138.325c0,1.023,0.357,1.744,0.927,2.102l-0.002,0.008l0.041,0.022
				c0.003,0.002,0.007,0.004,0.009,0.007l3.891,2.248l94.607-58.001c1.821-1.052,3.299-3.61,3.299-5.713L290.14,50.552z"/>
			<path id="XMLID_279_" opacity="0.15" d="M189.213,252.426l-3.837-2.222h-0.009l-0.039-0.028v-0.01
				c-0.566-0.355-0.918-1.066-0.918-2.096l-0.002-138.325c0-1.106,0.42-2.349,1.074-3.425l3.903,2.25
				c-0.663,1.077-1.071,2.317-1.071,3.433v138.326C188.314,251.338,188.655,252.07,189.213,252.426z"/>
			<path id="XMLID_278_" fill="#AC1E73" d="M191.617,106.29l96.171-55.519c1.822-1.052,3.298-0.199,3.298,1.904v138.324
				c0,2.104-1.476,4.662-3.298,5.713l-96.171,55.52c-1.821,1.053-3.303,0.2-3.303-1.902V112.003
				C188.314,109.899,189.795,107.342,191.617,106.29z"/>
			<path id="XMLID_277_" opacity="0.4" fill="#FFFFFF" d="M286.222,48.292l3.769,2.183c-0.586-0.27-1.355-0.202-2.211,0.298
				l-96.172,55.519c-0.856,0.491-1.635,1.317-2.222,2.279l-3.903-2.25c0.576-0.961,1.365-1.789,2.221-2.289l96.172-55.519
				c0.924-0.528,1.75-0.577,2.347-0.211V48.292z"/>
		</g>
		<path id="XMLID_275_" fill="#FFFFFF" d="M202.526,111.743l77.024-44.47c1.38-0.796,2.498-0.15,2.498,1.443v118.3
			c0,1.593-1.118,3.53-2.499,4.325l-77.021,44.39c-1.382,0.795-2.5,0.149-2.5-1.444V116.069
			C200.028,114.476,201.146,112.54,202.526,111.743z"/>
		<g id="XMLID_272_">
			<path id="XMLID_274_" fill="#37474F" d="M263.562,137.775l0.776-0.639c-0.068-0.083-1.695-2.032-4.797-2.826l-0.25,0.974
				C262.06,135.993,263.547,137.757,263.562,137.775z"/>
			<path id="XMLID_273_" fill="#AC1E73" d="M265.273,141.703l-1.582-1.556c-0.812-0.797-0.821-2.102-0.023-2.913l0,0
				c0.797-0.811,2.102-0.822,2.912-0.024l1.582,1.556c0.812,0.798,0.822,2.102,0.024,2.913l0,0
				C267.389,142.49,266.084,142.5,265.273,141.703z"/>
		</g>
		<g id="XMLID_83_">
			<defs>
				<path id="XMLID_84_" d="M202.526,111.743l77.024-44.47c1.38-0.796,2.498-0.15,2.498,1.443v118.3c0,1.593-1.118,3.53-2.499,4.325
					l-77.021,44.39c-1.382,0.795-2.5,0.149-2.5-1.444V116.069C200.028,114.476,201.146,112.54,202.526,111.743z"/>
			</defs>
			<clipPath id="XMLID_39_">
				<use xlink:href="#XMLID_84_"  overflow="visible"/>
			</clipPath>
			<g id="XMLID_85_" clip-path="url(#XMLID_39_)">
				<g id="XMLID_90_">
					<g id="XMLID_246_">
						<g id="Character_boy_1_">
							<path id="XMLID_271_" fill="#FFA8A7" d="M279.291,177.682c2.073,3.535,3.558,6.08,3.558,6.08s23.304-12.356,24.616-13.972
								c1.312-1.614,1.232-4.9,1.428-6.663c0.324-2.95-0.754-5.485-0.906-6.55c-0.27-1.857,2.395-1.955,3.715,0.616
								c0.964,1.878,1.038,4.025,1.866,4.052c0.282,0.009,2.894-2.375,3.272-2.79c1.443-1.579,4.053-4.226,6.03-3.858
								c0.651,0.122,1.161,0.671,1.315,1.419c0.244,1.181,0.149,2.166,0.742,3.151c0.251,0.418,0.638,0.747,0.779,1.266
								c0.187,0.68-0.084,1.333-0.023,2.043c0.082,0.975,1.025,1.384,1.164,2.337c0.1,0.689-0.251,1.486-0.247,2.209
								c0.003,0.467,0.153,0.881,0.15,1.349c-0.005,0.918-0.587,1.847-1.2,2.593c-2.158,2.627-4.362,4.126-6.918,5.793
								c-2.123,1.387-4.928,2.621-7.329,3.927s-29.869,22.378-33.523,19.888c-1.493-1.017-5.43-6.068-9.568-11.691"/>
							<path id="XMLID_270_" fill="#FFA8A7" d="M267.309,189.605c-5.999-8.151-11.516-18.228-11.516-18.228
								c-4.199-11.788,0.556-19.641,0.556-19.641s6.053-1.872,11.096,6.082c2.222,3.503,8.031,13.358,11.847,19.863"/>
							<g id="XMLID_268_">
								<path id="XMLID_269_" fill="#455A64" d="M245.717,151.917c0,0,6.672-2.706,11-2.43c4.327,0.277,7.533,1.512,10.708,6.615
									c4.239,6.814,11.251,18.581,11.251,18.581s-4.042,9.311-13.628,14.581l-12.924-19.501L245.717,151.917z"/>
							</g>
							<g id="Character_boy_2_">
								<g id="XMLID_247_">
									<path id="XMLID_267_" fill="#F0F0F0" d="M224.545,163.703c-2.154,1.689-3.855,4.171-4.721,6.938
										c-0.77,2.465-1.434,5.844-1.434,10.162v22.164l-0.281,41.927c14.062,4.791,31.938,0.573,46.938-16.097
										c0,0-0.838-53.646-0.838-62.458c0-0.398-0.008-0.8-0.026-1.203c-0.545-12.44-11.276-18.202-21.846-12.23l-8.878,5.016
										L224.545,163.703L224.545,163.703z"/>
									<g id="XMLID_248_">
										<g id="XMLID_256_">
											<path id="XMLID_266_" fill="#263238" d="M229.414,112.688c0,0-6.895-0.529-8.465,5.866
												c-1.4,5.703,8.998,28.234,8.77,27.858C229.49,146.035,229.414,112.688,229.414,112.688z"/>
											<path id="XMLID_265_" fill="#AC1E73" d="M253.779,99.807c0,0-2.559-6.878-14.971-1.984
												c-6.332,2.496-8.691,10.311-8.691,10.311L253.779,99.807z"/>
											<path id="XMLID_264_" opacity="0.4" d="M253.779,99.807c0,0-2.559-6.878-14.971-1.984
												c-6.332,2.496-8.691,10.311-8.691,10.311L253.779,99.807z"/>
											<path id="XMLID_263_" fill="#263238" d="M234.17,118.098c0,9.454,6.638,15.339,14.824,13.145
												c8.188-2.193,14.823-11.636,14.823-21.089c0-9.454-7.067-9.457-15.255-7.264
												C240.377,105.084,234.17,108.644,234.17,118.098z"/>
											<path id="XMLID_262_" fill="#263238" d="M226.432,133.06c0,0,2.184,11.264,3.059,12.976
												c0.877,1.712,2.688,1.78,2.688,1.78l-0.153-8.294L226.432,133.06z"/>
											<path id="XMLID_261_" fill="#263238" d="M229.172,115.351c0,0-2.352,0.165-4.186,2.821
												c-1.797,2.604-0.793,8.98,1.445,14.888l4.113-0.557L229.172,115.351z"/>
											<path id="XMLID_260_" fill="#FFA8A7" d="M231.779,132.176c-0.824,0.79-2.002-0.725-3.02-1.682
												c-1.017-0.956-4.338-1.746-5.994,2.729c-1.688,4.56,1.462,9.144,4.076,9.391c4.506,0.426,5.183-3.093,5.183-3.093
												l0.153,19.233c7.559,8.016,20.806-1.434,14.851-4.982l-0.013-5.708c0,0,4.084-0.378,6.074-1.268
												c3.314-1.479,5.398-5.058,6.404-9.468c1.613-7.085,2.228-12.621,0.857-25.338c-1.501-13.938-15.945-10.217-23.746-2.458
												S231.779,132.176,231.779,132.176z"/>
											<path id="XMLID_259_" fill="#263238" d="M231.779,133.779c-0.414,0.12-1.992-2.48-3.02-3.285
												c-1.422-1.113,0.412-15.143,0.412-15.143c-1.646-3.611,1.388-9.08,4.562-11.302c2.374-1.663,4.989-2.294,7.518-2.762
												c2.275-0.42,4.544-0.736,6.799-0.945c2.74-0.255,5.471-0.354,8.24-0.982c2.206-0.501,3.867-1.187,6.146-2.232
												c1.728-0.792,3.159,0.987,1.629,3.947c-0.728,1.411-2.812,4.935-5.576,7.007c-6.718,5.039-14.521,6.249-21.309,6.996
												c-1.53,0.168-1.857,1.969-2.683,6.87C233.775,126.25,233.174,133.374,231.779,133.779z"/>
											<path id="XMLID_258_" fill="#263238" d="M224,115.472l-4.988-1.755c0.707-1.84,2.398-2.938,3.775-2.454
												C224.165,111.748,224.708,113.632,224,115.472z"/>
											<path id="XMLID_257_" fill="#F28F8F" d="M247.016,148.064c0,0-7.396,0.262-9.982-0.633
												c-1.73-0.599-3.157-2.058-3.576-3.126c0,0,0.484,2.405,2.031,4.273c1.893,2.285,11.527,1.759,11.527,1.759V148.064z"/>
										</g>
										<g id="XMLID_249_">
											<path id="XMLID_255_" fill="#263238" d="M245.238,126.434c0,0.982-0.664,1.954-1.482,2.171s-1.481-0.404-1.481-1.386
												c0-0.982,0.663-1.954,1.481-2.171C244.574,124.832,245.238,125.452,245.238,126.434z"/>
											<path id="XMLID_254_" fill="#263238" d="M242.857,119.985l-3.17,2.871c-0.469-0.927-0.137-2.321,0.738-3.114
												C241.302,118.95,242.391,119.059,242.857,119.985z"/>
											<path id="XMLID_253_" fill="#F28F8F" d="M246.347,137.961l3.384,0.559c-0.335,1.21-1.363,2.065-2.298,1.911
												C246.497,140.277,246.012,139.171,246.347,137.961z"/>
											<path id="XMLID_252_" fill="#263238" d="M258.836,117.21l-2.891-1.797c0.59-1.114,1.715-1.615,2.514-1.119
												C259.258,114.791,259.426,116.096,258.836,117.21z"/>
											<path id="XMLID_251_" fill="#263238" d="M257.566,122.644c0,0.982-0.662,1.954-1.482,2.17
												c-0.818,0.217-1.482-0.403-1.482-1.386c0-0.982,0.664-1.954,1.482-2.171
												C256.904,121.041,257.566,121.661,257.566,122.644z"/>
											<polygon id="XMLID_250_" fill="#F28F8F" points="250.24,123.232 250.413,133.566 255.727,130.791 											"/>
										</g>
									</g>
								</g>
							</g>
						</g>
					</g>
					<g id="XMLID_244_">
						<path id="XMLID_245_" fill="#FFA8A7" d="M202.268,226.463c4.15-42.631,10.848-57.782,21.359-62.024
							c3.528,2.763,4.09,15.338,0.1,24.782c0,0-8.771,28.272-9.466,37.938c-0.608,8.492,0.112,20.254,0.997,26.964
							c0.158,1.189,0.735,2.139,1.57,2.711c2.244,1.535,2.043,3.685,3.621,5.761c1.235,1.626,2.418,1.932,2.158,2.521
							c-0.332,0.759-1.511,2.061-3.211,1.622c-0.855-0.222-1.445-0.653-2.755-1.575c0,0,0.677,3.034,2.779,6.423
							c2.852,4.592,2.636,7.634-4.335,8.492c-4.368,0.537-7.47-2.241-9.393-13.197c-0.555-3.157-1.902-8.846-2.419-12.933
							C201.786,242.211,201.599,233.324,202.268,226.463z"/>
					</g>
					<path id="XMLID_91_" fill="#455A64" d="M226.635,162.413c0,0-7.645,2.467-11.621,8.578
						c-3.978,6.112-7.872,16.012-10.865,33.675c0,0,4.635,6.671,17.277,1.527c0,0,5.992-22.487,6.695-31.415
						C228.89,165.042,226.635,162.413,226.635,162.413z"/>
				</g>
				<g id="XMLID_86_">
					<path id="XMLID_89_" fill="#AC1E73" d="M233.738,100.121c-7.141,4.478-10.232,9.907-10.404,16.458
						c-0.143,5.422,0.339,11.334,0.534,13.467c-2.697,2.015-4.564,5.261-4.564,8.451c0,4.428,3.59,7.056,8.019,5.869
						c4.427-1.187,8.018-5.738,8.018-10.166c0-3.312-2.011-5.617-4.877-6.071c-0.016-0.105-1.52-9.43,0.061-18.853
						c1.586-9.477,19.295-14.937,23.256-9.469C252.616,95.079,243.681,93.885,233.738,100.121z"/>
					<path id="XMLID_88_" opacity="0.15" d="M233.738,100.121c-7.141,4.478-10.232,9.907-10.404,16.458
						c-0.143,5.422,0.339,11.334,0.534,13.467c-2.697,2.015-4.564,5.261-4.564,8.451c0,4.428,3.59,7.056,8.019,5.869
						c4.427-1.187,8.018-5.738,8.018-10.166c0-3.312-2.011-5.617-4.877-6.071c-0.016-0.105-1.52-9.43,0.061-18.853
						c1.586-9.477,19.295-14.937,23.256-9.469C252.616,95.079,243.681,93.885,233.738,100.121z"/>
					<path id="XMLID_87_" fill="#AC1E73" d="M231.164,135.317c0-2.122-1.721-3.382-3.842-2.813
						c-2.124,0.569-3.845,2.751-3.845,4.874s1.721,3.382,3.845,2.813C229.443,139.622,231.164,137.44,231.164,135.317z"/>
				</g>
			</g>
		</g>
		<g id="XMLID_77_">
			<path id="XMLID_82_" fill="#27DEBF" d="M170.551,202.94c-0.191,0.19-0.348,0.369-0.475,0.548c0,0.01-0.01,0.021-0.01,0.021
				c-0.284,0.369-0.475,0.706-0.559,1.011c0,0,0.012,0.011,0,0.011c-0.084,0.252-0.095,0.484-0.031,0.684
				c0.031,0.158,0.105,0.305,0.222,0.411c0.052,0.063,0.114,0.116,0.188,0.168l-3.862-2.231c-0.169-0.095-0.285-0.221-0.369-0.369
				c-0.137-0.253-0.157-0.558-0.053-0.926c0.011,0,0-0.011,0-0.011c0.063-0.221,0.189-0.473,0.358-0.736
				c0.168-0.263,0.4-0.547,0.674-0.843L170.551,202.94z"/>
			<path id="XMLID_81_" fill="#AC1E73" d="M170.585,202.903c-2.016,2.095-1.309,3.522,1.579,3.189l16.15-1.865v-19.748
				L170.585,202.903z"/>
			<path id="XMLID_80_" fill="#AC1E73" d="M170.582,202.898c-1.274,1.326-1.453,2.378-0.695,2.895l-3.862-2.231
				c-0.812-0.505-0.632-1.579,0.651-2.927l17.737-18.42l3.905,2.264L170.582,202.898z"/>
			<path id="XMLID_79_" opacity="0.15" d="M170.551,202.94c-0.191,0.19-0.348,0.369-0.475,0.548c0,0.01-0.01,0.021-0.01,0.021
				c-0.273,0.369-0.464,0.706-0.559,1.011c0,0,0.012,0.011,0,0.011c-0.072,0.252-0.084,0.484-0.031,0.684
				c0.031,0.158,0.105,0.295,0.222,0.411c0.052,0.063,0.114,0.116,0.188,0.168l-3.862-2.231c-0.169-0.095-0.285-0.221-0.369-0.369
				c-0.137-0.253-0.157-0.558-0.053-0.926c0.011,0,0-0.011,0-0.011c0.074-0.221,0.189-0.473,0.358-0.736
				c0.168-0.263,0.4-0.547,0.674-0.843L170.551,202.94z"/>
			<path id="XMLID_78_" opacity="0.4" fill="#FFFFFF" d="M188.318,184.478l-17.736,18.42c-0.01,0.01-0.031,0.031-0.031,0.042
				l-3.916-2.263c0.01-0.01,0.031-0.031,0.041-0.042l17.737-18.42L188.318,184.478z"/>
		</g>
		<path id="XMLID_76_" fill="#FFA8A7" d="M279.291,177.682c2.073,3.535,3.558,6.08,3.558,6.08s23.304-12.356,24.616-13.972
			c1.312-1.614,1.232-4.9,1.428-6.663c0.324-2.95-0.754-5.485-0.906-6.55c-0.326-2.261,2.93-1.739,3.962-0.84
			c0.745,0.648,1.159,1.583,1.671,2.427c0.511,0.845,1.455,3.589,2.428,3.765c0.757,0.137,2.264-0.944,2.878-1.408
			c2.56-1.933,4.142-4.622,6.109-7.07c0.395-0.492,0.82-1.006,1.412-1.222c0.964-0.351,2.005,0.191,2.865,0.749
			c0.789,0.513,1.581,1.076,2.09,1.869c0.362,0.564,0.562,1.217,0.712,1.871c1.023,4.459-1.238,8.232-3.946,11.606
			c-2.667,3.324-5.974,6.112-9.534,8.436c-2.123,1.387-4.928,2.621-7.329,3.927s-28.612,23.231-32.267,20.741
			c-1.492-1.017-7.592-6.196-11.729-11.82"/>
	</g>
</g>
<g id="Character">
	<g id="XMLID_1_">
		<path id="XMLID_37_" fill="#FFA8A7" d="M451.201,139.654c8.373,0,12.84,2.523,16.338,10.3
			c3.348,7.439,13.732,29.028,13.217,34.263s-21.895,27.452-21.895,27.452l-6.098-7.405l13.224-22.218l-12.975-18.719
			L451.201,139.654z"/>
		<g id="Character_1_">
			<g id="XMLID_3_">
				<g id="XMLID_24_">
					<g id="XMLID_35_">
						<path id="XMLID_36_" fill="#263238" d="M430.757,368.729c0,0,0.95,2.878,1.462,5.395c0.406,2,0.988,5.345,0.289,6.85
							c-0.701,1.504-3.435,2.476-7.671,2.443c-2.744-0.021-7.021,1.842-9.948,3.476c-3.023,1.688-9.312,2.36-12.512,1.983
							c-3.771-0.441-7.675-2.627-8.284-4.188c-0.61-1.562-1.124-3.7,9.084-6.967c0.084-0.028,12.349-4.024,16.647-8.768
							L430.757,368.729z"/>
					</g>
					<path id="XMLID_34_" fill="#FFA8A7" d="M430.757,369.01l-1.948-0.241l-8.984,0.184c-4.299,4.743-16.563,8.739-16.647,8.768
						c-0.581,0.186-1.122,0.366-1.635,0.546c-1.771,1.429-0.271,3.862,3.943,4.238c4.216,0.375,17.331-4.041,20.233-5.439
						C428.624,375.664,430.757,372.868,430.757,369.01z"/>
					<g id="XMLID_32_">
						<path id="XMLID_33_" fill="#FFA8A7" d="M430.757,365.15c0,0-0.011,2.456,0,3.859c0.013,1.404-1.645,3.495-5.935,3.342
							c-3.015-0.107-5.117-0.918-4.998-3.399v-3.577L430.757,365.15z"/>
					</g>
					<g id="XMLID_30_">
						<path id="XMLID_31_" fill="#263238" d="M459.57,352.591c0.773,0.316,0.93,1.808,0.969,4.766
							c0.029,2.237,0.403,6.153-2.236,6.861c-2.641,0.709-6.465,0.207-8.086-1.945c-2.023-2.687-3.378-5.04-6.281-8.329
							c-2.517-2.854-5.252-5.528-6.193-9.46c-0.852-3.554-0.021-5.062,2.412-6.023c2.309-0.911,4.633-0.172,8.002,2.639
							c1.156,0.709,2.196,1.337,2.996,1.584C453.368,343.368,458.799,352.273,459.57,352.591z"/>
					</g>
					<g id="XMLID_28_">
						<path id="XMLID_29_" fill="#FFA8A7" d="M459.645,349.855l-0.098,3.627c0,0-2.429,4.75-9.173,0.001
							c-0.149-0.354-0.753-7.372-0.753-7.372L459.645,349.855z"/>
					</g>
					<path id="XMLID_27_" fill="#FFA8A7" d="M451.152,342.683c-0.8-0.247-1.84-0.875-2.996-1.584l0,0
						c-2.719-0.871-8.448,0.137-5.867,4.089c2.777,4.248,5.635,6.456,8.086,8.296c3.051,1.504,4.119-0.359,4.119-0.359l-1.08-8.507
						C452.535,343.611,451.732,342.862,451.152,342.683z"/>
					<g id="XMLID_25_">
						<path id="XMLID_26_" fill="#AA1F78" d="M464.572,299.663c-1.342-11.897-3.925-18.776-3.925-18.776s2.282-16.015,4.081-31.381
							c4.221-36.069,1.406-36.652-3.693-49.19c0,0-46.238-5.949-48.174,13.282c-2.407,23.949-1.32,70.386-0.912,78.881
							c0.408,8.493,1.094,12.333,3.615,30.129c1.919,13.539,3.739,43.15,3.739,43.15c6.063,3.491,11.898-0.607,11.898-0.607
							s5.794-36.415,5.659-46.206c-0.164-11.958-3.134-21.45-3.134-21.45s3.93-39.028,4.937-45.231c0,0,1.113,12.444,1.521,20.939
							c0.408,8.494,2.706,16.659,4.735,32.471c1.759,13.717,4.683,42.355,4.683,42.355c6.063,3.492,10.297,1.907,10.297,1.907
							S465.913,311.561,464.572,299.663z"/>
					</g>
				</g>
				<g id="XMLID_21_">
					<g id="XMLID_22_">
						<polygon id="XMLID_23_" fill="#FFA8A7" points="431.627,131.861 433.322,149.836 449.113,148.838 447.849,128.903 						"/>
					</g>
				</g>
				<g id="XMLID_18_">
					<g id="XMLID_19_">
						<path id="XMLID_20_" fill="#455A64" d="M463.301,147.278c-1.604-4.76-4.875-7.544-12.1-7.625l-2.666,0.083
							c-0.507,2.65-8.283,4.799-15.969,2.086c-1.083,0.279-4.055,0.83-5.729,1.052l-3.678,0.537
							c-5.597,1.831-8.068,11.549-8.605,26.952c-0.537,15.404-2.84,48.352-2.84,48.352s12.03,6.447,31.021,3.952
							c16.995-2.232,23.605-12.285,23.02-11c0,0-2.593-12.223-8.775-24.686C465.929,164.997,465.682,154.341,463.301,147.278z"/>
					</g>
				</g>
				<path id="XMLID_17_" fill="#37474F" d="M433.326,223.234c2.9,0.034,6.043-0.123,9.409-0.566
					c15.497-2.036,22.355-10.569,23.002-11.084c-0.229-1.045-2.858-12.71-8.758-24.601c4.522-11.11,6.694-19.324,7.431-25.646
					c-0.738,4.608-7.551,22.462-16.463,27.816c0,0,5.028,0.783,9.332,6.69C461.576,201.741,458.052,221.967,433.326,223.234z"/>
				<path id="XMLID_16_" fill="#FFA8A7" d="M426.838,142.875c-7.416,0.932-13.81,2.262-16.514,9.547
					c-4.961,13.367-11.796,22.231-16.113,26.857c-4.612,4.941-23.535,14.392-27.795,13.702c-4.262-0.69-8.109-6.776-10.305-5.509
					c-2.194,1.268,2.612,5.597,2.352,6.667c-0.26,1.07-7.951-1.158-11.604-3.737c-3.653-2.579-5.792,4.83-1.069,10.367
					c4.723,5.537,13.6,5.966,23.237,4.033c9.638-1.935,27.271-7.644,34.268-14.18c9.181-8.576,10.849-13.238,14.829-20.621
					C430.84,160.126,426.838,142.875,426.838,142.875z"/>
				<g id="XMLID_4_">
					<g id="XMLID_14_">
						<path id="XMLID_15_" fill="#263238" d="M423.369,109.536c0,0-5.965-7.109-1.288-14.035
							c5.512-8.161,15.225-10.924,27.218-7.358c5.943,1.767,14.666,9.976,15.106,21.483c0.341,8.874-24.543,14.743-24.142,20.827
							L423.369,109.536z"/>
					</g>
					<g id="XMLID_12_">
						<path id="XMLID_13_" fill="#F28F8F" d="M419.913,112.137c0,0-3.497,5.287-3.04,5.845c0.456,0.559,2.678,1.155,2.678,1.155
							L419.913,112.137z"/>
					</g>
					<g id="XMLID_10_">
						<path id="XMLID_11_" fill="#FFA8A7" d="M430.598,95.387c-3.398,1.756-9.273,5.002-10.784,17.523
							c-1.55,12.854,1.311,17.321,3.063,19.005c1.184,1.137,7.287,1.55,10.471,0.561c3.982-1.236,12.612-5.501,16.659-12.136
							c4.76-7.805,5.742-18.208,0.249-22.287C442.524,92.314,433.476,93.9,430.598,95.387z"/>
					</g>
					<g id="XMLID_8_">
						<path id="XMLID_9_" fill="#263238" d="M429.594,95.924c0,0-2.962,11.726,0.588,19.137c0,0,2.077-4.576,6.011-3.263
							c3.961,1.321,3.597,6.601,0.482,9.3c-3.118,2.698-6.14,1.303-6.14,1.303s0.106,6.487,5.652,9.057c0,0,11.6,5.551,22.077-5.65
							c9.505-10.164,8.28-28.372-5.733-33.037C438.519,88.107,429.594,95.924,429.594,95.924z"/>
					</g>
					<path id="XMLID_7_" fill="#263238" d="M476.731,145.372L476.731,145.372c-9.262,0-16.771-7.508-16.771-16.77v-21.555l0,0
						c9.262,0,16.771,7.507,16.771,16.769V145.372z"/>
					<path id="XMLID_6_" fill="#263238" d="M420.572,90.653c-5.219,5.311-5.515,20.639,9.609,24.408l9.896-27.143
						C434.313,84.173,425.229,85.914,420.572,90.653z"/>
					<path id="XMLID_5_" fill="#263238" d="M428.656,119.262c-1.553-0.562-2.357-2.275-1.797-3.829
						c0.562-1.553,2.276-2.357,3.828-1.796L428.656,119.262z"/>
				</g>
			</g>
			<path id="XMLID_2_" opacity="0.1" d="M438.664,252.263l2.518-16.096c0,0,6.824-0.474,14.288-4.97c0,0-3.141,4.745-11.467,6.72
				l-2.569,18.647l-1.037,19.527L438.664,252.263z"/>
		</g>
	</g>
</g>
</svg>
